<svg width="121" height="40" viewBox="0 0 121 40" fill="none" xmlns="http://www.w3.org/2000/svg">
<g clip-path="url(#clip0_6258_11909)">
<path d="M111.505 0H10.3387C9.9696 0 9.60456 0 9.2375 0.002C8.92978 0.004 8.62407 0.01 8.31333 0.015C7.63807 0.0223323 6.96436 0.0808351 6.29804 0.19C5.63304 0.302207 4.98889 0.513588 4.38734 0.817C3.78568 1.12335 3.23598 1.52151 2.75822 1.997C2.27879 2.47032 1.87913 3.01732 1.57459 3.617C1.26896 4.21585 1.05701 4.85757 0.946069 5.52C0.83417 6.18171 0.773988 6.85105 0.766061 7.522C0.756005 7.829 0.756005 8.137 0.750977 8.443V31.56C0.756005 31.87 0.75701 32.17 0.766061 32.481C0.774316 33.152 0.834835 33.8213 0.947075 34.483C1.0573 35.1461 1.26892 35.7885 1.57459 36.388C1.87942 36.9854 2.27947 37.5297 2.75922 38C3.23464 38.4771 3.784 38.8751 4.38634 39.179C4.98823 39.4831 5.63267 39.6954 6.29804 39.809C6.96442 39.9179 7.63807 39.9771 8.31333 39.986C8.62508 39.993 8.92978 39.997 9.2375 39.997C9.60557 39.999 9.9696 39.999 10.3387 39.999H111.505C111.867 39.999 112.233 39.999 112.595 39.997C112.901 39.997 113.216 39.993 113.523 39.987C114.197 39.9782 114.869 39.9187 115.534 39.809C116.201 39.6946 116.848 39.4823 117.453 39.179C118.055 38.875 118.604 38.4769 119.079 38C119.558 37.5273 119.959 36.9827 120.267 36.386C120.571 35.7862 120.781 35.1438 120.89 34.481C121.002 33.8192 121.064 33.15 121.076 32.479C121.08 32.169 121.08 31.869 121.08 31.558C121.088 31.194 121.088 30.833 121.088 30.464V9.536C121.088 9.17 121.088 8.806 121.08 8.444C121.08 8.138 121.08 7.83 121.076 7.524C121.064 6.85266 121.002 6.18314 120.89 5.521C120.78 4.8589 120.57 4.21723 120.266 3.618C119.646 2.41511 118.662 1.43588 117.453 0.818C116.848 0.515273 116.201 0.303946 115.534 0.191C114.869 0.0810377 114.197 0.0221968 113.523 0.015C113.216 0.01 112.901 0.004 112.595 0.002C112.233 0 111.866 0 111.505 0V0Z" fill="#1A1A1A"/>
<path d="M25.5885 20.3C25.5995 19.4656 25.8218 18.6475 26.2349 17.9217C26.6479 17.196 27.2383 16.5862 27.9512 16.149C27.4983 15.504 26.9009 14.9731 26.2063 14.5985C25.5118 14.2239 24.7392 14.0159 23.95 13.991C22.2652 13.815 20.6327 14.996 19.7743 14.996C18.8998 14.996 17.5781 14.008 16.1561 14.038C15.2359 14.0676 14.339 14.3345 13.5529 14.8126C12.7668 15.2906 12.1183 15.9637 11.6706 16.766C9.73115 20.114 11.1782 25.035 13.0354 27.742C13.965 29.067 15.051 30.547 16.473 30.495C17.8639 30.437 18.3834 29.61 20.0631 29.61C21.7257 29.61 22.2131 30.495 23.6632 30.462C25.1563 30.437 26.096 29.13 26.9925 27.792C27.6608 26.8479 28.1753 25.8043 28.5167 24.7C27.6493 24.3343 26.9091 23.7221 26.3884 22.9396C25.8676 22.1571 25.5895 21.2391 25.5885 20.3ZM22.8489 12.21C23.6627 11.236 24.0638 9.9841 23.967 8.72C22.7235 8.85018 21.5748 9.4429 20.75 10.38C20.3468 10.8375 20.038 11.3697 19.8412 11.9462C19.6443 12.5227 19.5633 13.1323 19.6028 13.74C20.2247 13.7464 20.8399 13.612 21.4022 13.347C21.9644 13.082 22.4591 12.6932 22.8489 12.21Z" fill="white"/>
<path d="M43.1708 27.14H38.4255L37.2853 30.496H35.2747L39.7712 18.078H41.8601L46.3557 30.496H44.311L43.1708 27.14ZM38.9159 25.59H42.6784L40.8232 20.144H40.772L38.9159 25.59ZM56.0649 25.97C56.0649 28.783 54.5546 30.59 52.2753 30.59C51.6982 30.62 51.1243 30.4875 50.6193 30.2075C50.1142 29.9276 49.6984 29.5115 49.4193 29.007H49.3761V33.491H47.5109V21.442H49.316V22.948H49.3491C49.641 22.4456 50.0639 22.0316 50.573 21.7498C51.0821 21.4681 51.6582 21.3292 52.2402 21.348C54.5446 21.348 56.0639 23.164 56.0639 25.97H56.0649ZM54.1495 25.97C54.1495 24.137 53.1988 22.932 51.7498 22.932C50.3258 22.932 49.3681 24.162 49.3681 25.97C49.3681 27.794 50.3258 29.016 51.7498 29.016C53.1988 29.016 54.1495 27.819 54.1495 25.97ZM66.0579 25.97C66.0579 28.783 64.5476 30.59 62.2682 30.59C61.6912 30.62 61.1173 30.4875 60.6123 30.2075C60.1072 29.9276 59.6913 29.5115 59.4122 29.007H59.3691V33.491H57.5049V21.442H59.309V22.948H59.3431C59.6349 22.4456 60.0579 22.0316 60.567 21.7498C61.0761 21.4681 61.6522 21.3292 62.2341 21.348C64.5386 21.348 66.0579 23.164 66.0579 25.97ZM64.1425 25.97C64.1425 24.137 63.1918 22.932 61.7428 22.932C60.3188 22.932 59.3611 24.162 59.3611 25.97C59.3611 27.794 60.3188 29.016 61.7428 29.016C63.1918 29.016 64.1415 27.819 64.1415 25.97H64.1425ZM72.6613 27.036C72.7997 28.268 73.9991 29.076 75.6397 29.076C77.2101 29.076 78.3402 28.268 78.3402 27.157C78.3402 26.193 77.6583 25.617 76.0438 25.221L74.4303 24.833C72.1439 24.283 71.0819 23.216 71.0819 21.485C71.0819 19.343 72.9542 17.871 75.6136 17.871C78.245 17.871 80.049 19.343 80.1092 21.485H78.2279C78.1156 20.246 77.0887 19.498 75.5865 19.498C74.0843 19.498 73.0585 20.255 73.0585 21.356C73.0585 22.234 73.7143 22.751 75.3198 23.146L76.6916 23.482C79.2468 24.085 80.3078 25.108 80.3078 26.925C80.3078 29.248 78.4526 30.703 75.5013 30.703C72.7396 30.703 70.8743 29.283 70.754 27.036H72.6613ZM84.33 19.3V21.442H86.0569V22.914H84.33V27.905C84.33 28.681 84.676 29.042 85.4351 29.042C85.64 29.0384 85.8445 29.0241 86.0478 28.999V30.462C85.7067 30.5256 85.3599 30.5544 85.0129 30.548C83.1748 30.548 82.4578 29.859 82.4578 28.103V22.914H81.1381V21.442H82.4578V19.3H84.33ZM87.0567 25.97C87.0567 23.121 88.7394 21.331 91.3627 21.331C93.9951 21.331 95.6698 23.121 95.6698 25.97C95.6698 28.826 94.0041 30.608 91.3627 30.608C88.7223 30.608 87.0567 28.826 87.0567 25.97ZM93.7705 25.97C93.7705 24.016 92.8729 22.862 91.3627 22.862C89.8525 22.862 88.956 24.024 88.956 25.97C88.956 27.932 89.8525 29.076 91.3627 29.076C92.8729 29.076 93.7705 27.932 93.7705 25.97ZM97.2061 21.442H98.9841V22.983H99.0272C99.1476 22.502 99.4304 22.077 99.8279 21.7793C100.225 21.4816 100.714 21.3293 101.21 21.348C101.425 21.3471 101.639 21.3703 101.849 21.417V23.155C101.578 23.0725 101.295 23.0347 101.012 23.043C100.741 23.032 100.471 23.0796 100.22 23.1825C99.9699 23.2854 99.7446 23.4411 99.5601 23.639C99.3755 23.8369 99.2361 24.0722 99.1514 24.3289C99.0667 24.5856 99.0387 24.8575 99.0693 25.126V30.496H97.2061V21.442ZM110.441 27.837C110.19 29.48 108.586 30.608 106.532 30.608C103.891 30.608 102.251 28.844 102.251 26.013C102.251 23.173 103.9 21.331 106.453 21.331C108.966 21.331 110.544 23.051 110.544 25.797V26.434H104.132V26.546C104.103 26.8792 104.145 27.2149 104.255 27.5307C104.366 27.8465 104.543 28.1352 104.774 28.3778C105.005 28.6203 105.285 28.811 105.595 28.9372C105.906 29.0635 106.24 29.1224 106.575 29.11C107.016 29.1511 107.457 29.0493 107.835 28.82C108.212 28.5906 108.506 28.2459 108.671 27.837H110.441ZM104.141 25.135H108.68C108.697 24.8354 108.652 24.5357 108.547 24.2545C108.442 23.9733 108.28 23.7167 108.071 23.5009C107.862 23.2852 107.61 23.1148 107.332 23.0005C107.054 22.8863 106.755 22.8306 106.454 22.837C106.15 22.8352 105.85 22.8933 105.569 23.008C105.288 23.1227 105.033 23.2918 104.818 23.5055C104.603 23.7191 104.432 23.9731 104.316 24.2528C104.2 24.5325 104.141 24.8323 104.141 25.135Z" fill="white"/>
<path opacity="0.4" d="M38.6822 8.73101C39.073 8.70306 39.4651 8.76192 39.8302 8.90336C40.1954 9.0448 40.5245 9.26528 40.7939 9.54892C41.0633 9.83256 41.2662 10.1723 41.3879 10.5436C41.5097 10.9148 41.5473 11.3085 41.4981 11.696C41.4981 13.602 40.4652 14.698 38.6822 14.698H36.5212V8.73001L38.6822 8.73101ZM37.4508 13.854H38.5789C38.8581 13.8705 39.1374 13.8248 39.3965 13.7201C39.6557 13.6154 39.8882 13.4544 40.0771 13.2489C40.266 13.0434 40.4066 12.7984 40.4887 12.5318C40.5708 12.2653 40.5922 11.9839 40.5515 11.708C40.5893 11.4332 40.5657 11.1535 40.4824 10.8889C40.3991 10.6242 40.2582 10.3813 40.0697 10.1773C39.8812 9.97337 39.6498 9.81353 39.392 9.70923C39.1343 9.60493 38.8567 9.55875 38.5789 9.57401H37.4508V13.854ZM42.547 12.444C42.5198 12.1487 42.5545 11.8509 42.6492 11.5697C42.7438 11.2885 42.8962 11.03 43.0966 10.8109C43.2971 10.5917 43.5412 10.4167 43.8133 10.2969C44.0854 10.1771 44.3796 10.1153 44.677 10.1153C44.9745 10.1153 45.2686 10.1771 45.5407 10.2969C45.8129 10.4167 46.0569 10.5917 46.2574 10.8109C46.4578 11.03 46.6102 11.2885 46.7049 11.5697C46.7995 11.8509 46.8343 12.1487 46.807 12.444C46.8366 12.7406 46.8036 13.0401 46.71 13.3232C46.6165 13.6063 46.4645 13.8667 46.2639 14.0877C46.0633 14.3087 45.8185 14.4853 45.5452 14.6061C45.272 14.727 44.9764 14.7894 44.6775 14.7894C44.3786 14.7894 44.083 14.727 43.8098 14.6061C43.5365 14.4853 43.2917 14.3087 43.0911 14.0877C42.8905 13.8667 42.7385 13.6063 42.645 13.3232C42.5515 13.0401 42.5184 12.7406 42.5481 12.444H42.547ZM45.8904 12.444C45.8904 11.468 45.4502 10.897 44.679 10.897C43.9038 10.897 43.4686 11.468 43.4686 12.444C43.4686 13.428 43.9038 13.994 44.679 13.994C45.4512 13.994 45.8904 13.424 45.8904 12.444ZM52.4678 14.698H51.5432L50.6106 11.381H50.5404L49.6108 14.698H48.6953L47.4498 10.195H48.3543L49.1626 13.631H49.2298L50.1584 10.195H51.0128L51.9414 13.631H52.0115L52.8168 10.195H53.7083L52.4678 14.698ZM54.7552 10.195H55.6126V10.91H55.6788C55.7918 10.6531 55.9824 10.4377 56.224 10.294C56.4656 10.1502 56.7462 10.0852 57.0266 10.108C57.2463 10.0916 57.467 10.1246 57.6722 10.2047C57.8774 10.2848 58.0619 10.4099 58.212 10.5708C58.3622 10.7316 58.4741 10.9241 58.5395 11.134C58.6049 11.3438 58.6222 11.5656 58.59 11.783V14.698H57.6985V12.006C57.6985 11.282 57.3836 10.922 56.7237 10.922C56.5746 10.9151 56.4257 10.9405 56.2873 10.9963C56.1489 11.0522 56.0242 11.1372 55.9219 11.2455C55.8195 11.3539 55.7418 11.4831 55.6941 11.6242C55.6465 11.7653 55.63 11.915 55.6457 12.063V14.698H54.7552V10.195ZM60.0099 8.43701H60.9004V14.697H60.0099V8.43701ZM62.1399 12.444C62.1118 12.1483 62.146 11.8499 62.2402 11.5681C62.3345 11.2863 62.4867 11.0273 62.6872 10.8075C62.8877 10.5878 63.1319 10.4122 63.4044 10.2921C63.6769 10.172 63.9715 10.1099 64.2694 10.1099C64.5673 10.1099 64.8619 10.172 65.1343 10.2921C65.4068 10.4122 65.6511 10.5878 65.8515 10.8075C66.052 11.0273 66.2043 11.2863 66.2985 11.5681C66.3927 11.8499 66.4269 12.1483 66.3988 12.444C66.4284 12.7406 66.3954 13.0401 66.3019 13.3232C66.2083 13.6063 66.0564 13.8667 65.8558 14.0877C65.6551 14.3087 65.4103 14.4853 65.1371 14.6061C64.8639 14.727 64.5683 14.7894 64.2694 14.7894C63.9705 14.7894 63.6749 14.727 63.4016 14.6061C63.1284 14.4853 62.8836 14.3087 62.683 14.0877C62.4824 13.8667 62.3304 13.6063 62.2368 13.3232C62.1433 13.0401 62.1103 12.7406 62.1399 12.444ZM65.4823 12.444C65.4823 11.468 65.042 10.897 64.2709 10.897C63.4957 10.897 63.0605 11.468 63.0605 12.444C63.0605 13.428 63.4957 13.994 64.2709 13.994C65.043 13.994 65.4823 13.424 65.4823 12.444ZM67.3365 13.424C67.3365 12.614 67.9421 12.146 69.0172 12.08L70.2406 12.01V11.621C70.2406 11.146 69.9247 10.877 69.316 10.877C68.8176 10.877 68.4736 11.059 68.3744 11.377H67.5119C67.6022 10.604 68.3322 10.107 69.3571 10.107C70.4883 10.107 71.1271 10.67 71.1271 11.621V14.698H70.2697V14.065H70.1995C70.0563 14.2921 69.8553 14.4772 69.6169 14.6014C69.3785 14.7256 69.1113 14.7845 68.8427 14.772C68.6531 14.7917 68.4614 14.7716 68.2801 14.7129C68.0988 14.6542 67.9318 14.5582 67.79 14.4312C67.6482 14.3042 67.5346 14.1489 67.4567 13.9754C67.3787 13.802 67.3381 13.6141 67.3375 13.424H67.3365ZM70.2396 13.04V12.663L69.1365 12.733C68.5148 12.775 68.234 12.986 68.234 13.383C68.234 13.788 68.586 14.023 69.0703 14.023C69.2122 14.0373 69.3556 14.023 69.4919 13.9809C69.6281 13.9389 69.7546 13.87 69.8636 13.7783C69.9727 13.6866 70.0621 13.574 70.1267 13.4472C70.1913 13.3204 70.2297 13.1819 70.2396 13.04ZM72.2983 12.444C72.2983 11.021 73.0324 10.12 74.1736 10.12C74.4557 10.1072 74.7356 10.1747 74.9806 10.3146C75.2256 10.4545 75.4257 10.661 75.5575 10.91H75.6247V8.43701H76.5152V14.697H75.6618V13.987H75.5916C75.4494 14.2345 75.242 14.4385 74.9919 14.5769C74.7418 14.7153 74.4584 14.7827 74.1726 14.772C73.0244 14.772 72.2983 13.871 72.2983 12.444ZM73.2189 12.444C73.2189 13.399 73.6702 13.974 74.4253 13.974C75.1774 13.974 75.6407 13.391 75.6407 12.448C75.6407 11.51 75.1714 10.918 74.4253 10.918C73.6752 10.918 73.2189 11.498 73.2189 12.444ZM80.2025 12.444C80.1744 12.1483 80.2086 11.8499 80.3028 11.5681C80.3971 11.2863 80.5493 11.0273 80.7498 10.8075C80.9502 10.5878 81.1945 10.4122 81.467 10.2921C81.7394 10.172 82.034 10.1099 82.3319 10.1099C82.6298 10.1099 82.9245 10.172 83.1969 10.2921C83.4694 10.4122 83.7137 10.5878 83.9141 10.8075C84.1146 11.0273 84.2668 11.2863 84.3611 11.5681C84.4553 11.8499 84.4895 12.1483 84.4614 12.444C84.491 12.7406 84.458 13.0401 84.3645 13.3232C84.2709 13.6063 84.119 13.8667 83.9183 14.0877C83.7177 14.3087 83.4729 14.4853 83.1997 14.6061C82.9264 14.727 82.6309 14.7894 82.3319 14.7894C82.033 14.7894 81.7374 14.727 81.4642 14.6061C81.191 14.4853 80.9462 14.3087 80.7455 14.0877C80.5449 13.8667 80.393 13.6063 80.2994 13.3232C80.2059 13.0401 80.1729 12.7406 80.2025 12.444ZM83.5448 12.444C83.5448 11.468 83.1056 10.897 82.3335 10.897C81.5593 10.897 81.1231 11.468 81.1231 12.444C81.1231 13.428 81.5593 13.994 82.3335 13.994C83.1056 13.994 83.5448 13.424 83.5448 12.444ZM85.6578 10.195H86.5152V10.91H86.5813C86.6944 10.6531 86.885 10.4377 87.1266 10.294C87.3682 10.1502 87.6487 10.0852 87.9291 10.108C88.1489 10.0916 88.3695 10.1246 88.5747 10.2047C88.7799 10.2848 88.9644 10.4099 89.1145 10.5708C89.2647 10.7316 89.3766 10.9241 89.442 11.134C89.5075 11.3438 89.5247 11.5656 89.4925 11.783V14.698H88.601V12.006C88.601 11.282 88.2861 10.922 87.6263 10.922C87.4771 10.9151 87.3282 10.9405 87.1898 10.9963C87.0514 11.0522 86.9268 11.1372 86.8244 11.2455C86.722 11.3539 86.6443 11.4831 86.5967 11.6242C86.549 11.7653 86.5325 11.915 86.5482 12.063V14.698H85.6567L85.6578 10.195ZM94.5276 9.07401V10.215H95.5063V10.964H94.5276V13.279C94.5276 13.751 94.7221 13.958 95.1664 13.958C95.28 13.9575 95.3935 13.9505 95.5063 13.937V14.677C95.3461 14.7058 95.1838 14.7212 95.021 14.723C94.0302 14.723 93.6361 14.375 93.6361 13.507V10.964H92.9191V10.215H93.6361V9.07401H94.5276ZM96.7237 8.43701H97.6062V10.918H97.6764C97.7951 10.6587 97.991 10.4421 98.2376 10.2979C98.4842 10.1537 98.7694 10.0888 99.0543 10.112C99.2728 10.1002 99.4913 10.1366 99.6941 10.2187C99.8969 10.3008 100.079 10.4265 100.228 10.5869C100.376 10.7473 100.487 10.9383 100.553 11.1465C100.619 11.3546 100.638 11.5747 100.609 11.791V14.698H99.7171V12.01C99.7171 11.29 99.3812 10.926 98.7514 10.926C98.5982 10.9135 98.4441 10.9344 98.2998 10.9875C98.1556 11.0406 98.0247 11.1244 97.9164 11.2332C97.8081 11.342 97.7249 11.4731 97.6727 11.6173C97.6205 11.7615 97.6006 11.9153 97.6142 12.068V14.698H96.7237V8.43701ZM105.805 13.482C105.684 13.8934 105.422 14.2493 105.065 14.4874C104.707 14.7256 104.277 14.831 103.85 14.785C103.552 14.7931 103.256 14.7364 102.983 14.6189C102.709 14.5014 102.465 14.3259 102.266 14.1046C102.068 13.8834 101.92 13.6216 101.833 13.3376C101.746 13.0536 101.722 12.7541 101.763 12.46C101.723 12.1652 101.748 11.8653 101.835 11.5808C101.921 11.2962 102.068 11.0335 102.266 10.8105C102.463 10.5875 102.706 10.4094 102.979 10.2882C103.251 10.167 103.546 10.1055 103.845 10.108C105.101 10.108 105.859 10.964 105.859 12.378V12.688H102.67V12.738C102.656 12.9033 102.677 13.0697 102.732 13.2266C102.786 13.3834 102.872 13.5271 102.986 13.6486C103.099 13.7701 103.237 13.8666 103.39 13.9319C103.542 13.9973 103.707 14.03 103.874 14.028C104.087 14.0532 104.302 14.0147 104.493 13.9175C104.684 13.8203 104.842 13.6687 104.947 13.482H105.805ZM102.67 12.031H104.952C104.963 11.8798 104.943 11.7278 104.892 11.585C104.84 11.4421 104.76 11.3115 104.655 11.2016C104.55 11.0917 104.424 11.0048 104.283 10.9467C104.143 10.8885 103.992 10.8604 103.84 10.864C103.686 10.8621 103.533 10.891 103.39 10.949C103.247 11.007 103.117 11.0929 103.008 11.2017C102.899 11.3104 102.813 11.4399 102.755 11.5823C102.697 11.7247 102.668 11.8773 102.67 12.031Z" fill="white"/>
</g>
<defs>
<clipPath id="clip0_6258_11909">
<rect width="120" height="40" fill="white" transform="translate(0.75)"/>
</clipPath>
</defs>
</svg>
