<svg width="50" height="60" viewBox="0 0 50 60" fill="none" xmlns="http://www.w3.org/2000/svg">
<path d="M41.7428 17.124C40.7743 17.124 39.8454 17.5088 39.1605 18.1937C38.4756 18.8786 38.0908 19.8075 38.0908 20.776V21.3506H38.6654C39.1454 21.3513 39.6208 21.2574 40.0645 21.0742C40.5081 20.891 40.9113 20.6221 41.2509 20.2828C41.5905 19.9436 41.8598 19.5408 42.0436 19.0973C42.2273 18.6539 42.3218 18.1786 42.3216 17.6986V17.124H41.7428Z" fill="white"/>
<path d="M23.3176 17.9779H25.4687V19.2392H25.5108C25.8214 18.7614 26.2533 18.3746 26.7622 18.1181C27.322 17.8327 27.9431 17.6884 28.5714 17.6977C29.0843 17.6954 29.5919 17.8014 30.061 18.0088C30.5292 18.2155 30.951 18.5143 31.3013 18.8874C31.6661 19.2809 31.9516 19.741 32.1421 20.2426C32.3526 20.7829 32.4582 21.3584 32.4532 21.9382V27.9782H30.3091V22.4273C30.3091 21.5445 30.0989 20.8961 29.6785 20.4822C29.258 20.0618 28.6751 19.8614 27.9295 19.8614C27.6058 19.8497 27.283 19.9022 26.9796 20.016C26.6763 20.1298 26.3986 20.3025 26.1624 20.5242C25.6953 20.9661 25.464 21.5865 25.4687 22.3853V27.9908H23.3176V17.9779Z" fill="white"/>
<path d="M19.3545 17.9779V18.7585C18.5843 18.228 17.6837 17.9181 16.7502 17.8623C15.8167 17.8066 14.8856 18.007 14.0577 18.4421C13.2299 18.8771 12.5366 19.5301 12.053 20.3306C11.5694 21.131 11.3138 22.0485 11.3138 22.9837C11.3138 23.9189 11.5694 24.8363 12.053 25.6368C12.5366 26.4372 13.2299 27.0903 14.0577 27.5253C14.8856 27.9603 15.8167 28.1608 16.7502 28.105C17.6837 28.0492 18.5843 27.7393 19.3545 27.2088V27.9894H21.5813V17.9779H19.3545ZM16.448 25.8901C15.873 25.8901 15.3109 25.7196 14.8328 25.4C14.3548 25.0805 13.9823 24.6263 13.7624 24.095C13.5425 23.5636 13.4852 22.979 13.5977 22.4151C13.7102 21.8512 13.9874 21.3333 14.3943 20.927C14.8012 20.5207 15.3195 20.2442 15.8836 20.1325C16.4477 20.0209 17.0322 20.079 17.5632 20.2997C18.0942 20.5203 18.5478 20.8935 18.8667 21.372C19.1856 21.8505 19.3553 22.4129 19.3545 22.9879C19.3526 23.7578 19.0457 24.4955 18.5009 25.0395C17.9561 25.5835 17.2179 25.8894 16.448 25.8901ZM5.13046 17.8532C4.0921 17.8523 3.07817 18.1681 2.22399 18.7585V15H0V27.9894H2.22399V27.2088C2.88632 27.6642 3.64638 27.9575 4.44289 28.0651C5.2394 28.1728 6.05005 28.0917 6.80947 27.8285C7.5689 27.5653 8.25583 27.1272 8.81487 26.5498C9.37391 25.9723 9.78942 25.2715 10.0279 24.504C10.2663 23.7364 10.3211 22.9235 10.1876 22.1309C10.0542 21.3383 9.73643 20.5882 9.25984 19.941C8.78326 19.2938 8.16124 18.7676 7.44396 18.405C6.72668 18.0423 5.93421 17.8533 5.13046 17.8532ZM5.13046 25.8901C4.55544 25.8901 3.99333 25.7196 3.51528 25.4C3.03722 25.0805 2.66469 24.6263 2.44483 24.095C2.22497 23.5636 2.16766 22.979 2.28015 22.4151C2.39264 21.8512 2.66987 21.3333 3.07677 20.927C3.48367 20.5207 4.00194 20.2442 4.56602 20.1325C5.13009 20.0209 5.71462 20.079 6.24563 20.2997C6.77664 20.5203 7.23028 20.8935 7.54914 21.372C7.868 21.8505 8.03776 22.4129 8.03692 22.9879C8.0347 23.7576 7.72764 24.4952 7.18293 25.0391C6.63822 25.583 5.90023 25.889 5.13046 25.8901ZM42.9692 27.9894L39.0411 22.6936H36.4752L40.4257 27.9894H42.9692ZM36.4752 15H34.324V27.9894H36.4752V15Z" fill="white"/>
<path d="M47.6864 24.5186C47.2255 24.519 46.7836 24.6995 46.4579 25.0203C46.1322 25.3411 45.9492 25.776 45.9492 26.2294C45.9415 26.4587 45.9808 26.6872 46.0646 26.9012C46.1485 27.1153 46.2753 27.3106 46.4375 27.4755C46.5996 27.6403 46.7939 27.7715 47.0086 27.861C47.2233 27.9505 47.4541 27.9967 47.6873 27.9967C47.9205 27.9967 48.1513 27.9505 48.3661 27.861C48.5808 27.7715 48.775 27.6403 48.9371 27.4755C49.0993 27.3106 49.2261 27.1153 49.31 26.9012C49.3939 26.6872 49.4331 26.4587 49.4254 26.2294C49.4254 25.7756 49.2422 25.3405 48.9161 25.0196C48.5899 24.6988 48.1476 24.5186 47.6864 24.5186Z" fill="white"/>
<path d="M12.191 30.5265H14.2244V31.6223H14.265C14.4323 31.2237 14.7081 30.8799 15.061 30.6302C15.4014 30.3855 15.8105 30.255 16.2297 30.2574C16.6449 30.2431 17.0551 30.3507 17.4097 30.5671L16.6445 32.6986C16.5278 32.6048 16.3941 32.5344 16.2508 32.4912C16.118 32.4426 15.9786 32.4147 15.8373 32.4085C15.6392 32.4054 15.4425 32.4425 15.259 32.5175C15.0756 32.5925 14.9093 32.7039 14.7701 32.8449C14.6308 32.9859 14.5216 33.1537 14.4491 33.3381C14.3765 33.5225 14.342 33.7197 14.3477 33.9178V40.5351H12.191V30.5265ZM40.7988 30.5265H42.9527V31.7877H42.9947C43.3054 31.3099 43.7372 30.9231 44.2462 30.6666C44.8066 30.3837 45.4276 30.2418 46.0553 30.2532C46.5681 30.2511 47.0756 30.3566 47.545 30.5629C48.0132 30.7702 48.435 31.0695 48.7852 31.443C49.1501 31.8359 49.4356 32.2955 49.6261 32.7967C49.8365 33.3375 49.9421 33.9135 49.9372 34.4938V40.5351H47.7903V34.973C47.7903 34.0911 47.5796 33.4432 47.1582 33.0293C46.7369 32.6155 46.1544 32.4081 45.4107 32.4071C45.0871 32.3952 44.7643 32.4476 44.461 32.5611C44.1577 32.6746 43.8799 32.8471 43.6436 33.0686C43.183 33.5114 42.9527 34.1318 42.9527 34.9296V40.5351H40.7988V30.5265ZM34.302 30.1943C33.3733 30.1943 32.4618 30.4444 31.6632 30.9183C30.8645 31.3922 30.2083 32.0725 29.7633 32.8875C29.3183 33.7026 29.101 34.6225 29.1343 35.5506C29.1675 36.4786 29.45 37.3806 29.9522 38.1617C30.4544 38.9429 31.1577 39.5744 31.9881 39.99C32.8186 40.4055 33.7457 40.5897 34.672 40.5233C35.5982 40.4568 36.4895 40.1422 37.2522 39.6124C38.0149 39.0826 38.6208 38.3572 39.0064 37.5124H36.5526C36.2017 37.8795 35.7663 38.1551 35.2844 38.3152C34.8024 38.4753 34.2887 38.515 33.7879 38.4308C33.2871 38.3466 32.8145 38.1411 32.4114 37.8323C32.0083 37.5234 31.6869 37.1206 31.4754 36.6589L31.3548 36.3969H39.4744V35.3654C39.4707 33.9949 38.9246 32.6815 37.9553 31.7125C36.986 30.7435 35.6725 30.1977 34.302 30.1943ZM31.3591 34.334L31.4796 34.072C31.7273 33.5304 32.1254 33.0714 32.6265 32.7496C33.1276 32.4277 33.7106 32.2566 34.3062 32.2566C34.9017 32.2566 35.4847 32.4277 35.9858 32.7496C36.4869 33.0714 36.885 33.5304 37.1327 34.072L37.2533 34.3354L31.3591 34.334ZM22.6565 30.1943C21.7278 30.1943 20.8163 30.4444 20.0177 30.9183C19.2191 31.3922 18.5628 32.0725 18.1178 32.8875C17.6728 33.7026 17.4555 34.6225 17.4888 35.5506C17.522 36.4786 17.8046 37.3806 18.3067 38.1617C18.8089 38.9429 19.5122 39.5744 20.3427 39.99C21.1732 40.4055 22.1002 40.5897 23.0265 40.5233C23.9528 40.4568 24.844 40.1422 25.6067 39.6124C26.3694 39.0826 26.9754 38.3572 27.3609 37.5124H24.9071C24.5562 37.8795 24.1208 38.1551 23.6389 38.3152C23.157 38.4753 22.6432 38.515 22.1424 38.4308C21.6416 38.3466 21.169 38.1411 20.7659 37.8323C20.3628 37.5234 20.0415 37.1206 19.8299 36.6589L19.7094 36.3969H27.829V35.3654C27.8253 33.9949 27.2791 32.6815 26.3098 31.7125C25.3405 30.7435 24.027 30.1977 22.6565 30.1943ZM19.7136 34.334L19.8341 34.072C20.0821 33.5305 20.4803 33.0716 20.9815 32.7498C21.4827 32.4281 22.0658 32.2571 22.6614 32.2571C23.257 32.2571 23.84 32.4281 24.3412 32.7498C24.8424 33.0716 25.2407 33.5305 25.4887 34.072L25.6078 34.3354L19.7136 34.334ZM10.2865 30.5265H10.2669V40.2745C10.2795 40.1161 10.2865 39.585 10.2865 39.4196V30.5265ZM8.26008 30.5265H8.04287V31.307C7.8632 31.1846 7.67598 31.0737 7.48231 30.9749C6.66861 30.5542 5.75656 30.3606 4.84211 30.4144C3.71909 30.4773 2.6479 30.9076 1.79347 31.6391C0.939033 32.3706 0.348735 33.3626 0.113464 34.4625C-0.121806 35.5624 0.0109965 36.7092 0.491424 37.7262C0.971852 38.7432 1.77327 39.5741 2.77227 40.0909C3.59705 40.5201 4.52327 40.7162 5.45124 40.6582C6.3792 40.6002 7.27377 40.2902 8.03866 39.7616V40.6753C8.0423 41.0711 7.91794 41.4574 7.68411 41.7768C7.5944 41.8981 7.49505 42.012 7.38702 42.1173C6.80871 42.6891 5.99544 42.9754 4.94721 42.9763C4.47049 42.9741 4.00289 42.8454 3.59208 42.6036C3.19806 42.3909 2.85553 42.0943 2.58869 41.7347L0.829953 43.017C1.34788 43.664 2.01545 44.1752 2.77507 44.5066C4.11441 45.1124 5.63923 45.1628 7.01565 44.6468C7.63961 44.4177 8.2114 44.0661 8.69731 43.6126C9.19476 43.1477 9.58952 42.584 9.85625 41.9575C10.0024 41.6193 10.1105 41.2658 10.1786 40.9037C10.2353 40.5846 10.262 40.2608 10.2584 39.9367V30.5265H8.26008ZM7.41224 37.6104C7.14162 37.9033 6.81162 38.135 6.44429 38.2902C6.07697 38.4453 5.68076 38.5203 5.28214 38.5101C4.38526 38.5101 3.65794 38.2102 3.10019 37.6104C3.07216 37.581 3.04974 37.5502 3.02311 37.5194C2.70118 37.1789 2.46678 36.7653 2.34009 36.3142C2.21339 35.8631 2.19819 35.3879 2.2958 34.9296C2.37937 34.2767 2.67474 33.6692 3.13663 33.2003C3.55091 32.7662 4.08797 32.4692 4.67582 32.349C5.26368 32.2288 5.87424 32.2911 6.42567 32.5276C6.78827 32.6846 7.11529 32.9134 7.38702 33.2003C7.66342 33.4904 7.88134 33.8311 8.02885 34.2037C8.18149 34.5885 8.25857 34.9991 8.25587 35.4131C8.2751 36.2281 7.97194 37.0177 7.41224 37.6104Z" fill="white"/>
</svg>
