<svg width="60" height="60" viewBox="0 0 60 60" fill="none" xmlns="http://www.w3.org/2000/svg">
<g clip-path="url(#clip0_3710_39889)">
<path d="M0.240723 29.7868C0.449347 20.5561 3.96524 12.869 11.0322 6.87716C14.7491 3.72603 19.0368 1.68779 23.7974 0.655543C26.1549 0.144861 28.5432 -0.0631237 30.9559 0.0168703C37.6818 0.240854 43.6788 2.45509 48.886 6.70629C54.1394 10.9946 57.5382 16.4758 59.101 23.0827C59.5784 25.0992 59.8171 27.1464 59.8536 29.2192C59.9527 34.9019 58.5525 40.1854 55.6599 45.0753C55.587 45.1981 55.5172 45.3248 55.4321 45.4388C55.1889 45.7645 54.764 45.847 54.4204 45.6435C54.0793 45.442 53.9494 45.0234 54.1177 44.6555C54.1554 44.5723 54.2066 44.4942 54.254 44.4155C56.033 41.4717 57.2329 38.3065 57.8601 34.925C58.2607 32.7632 58.4009 30.5816 58.2895 28.3885C57.7609 17.9976 51.7076 9.1957 43.0644 4.70196C40.5187 3.3779 37.8302 2.47173 35.0029 1.97C32.95 1.60587 30.8816 1.47148 28.8031 1.56491C24.9378 1.7377 21.2536 2.65475 17.7703 4.34807C10.3699 7.94524 4.95205 14.4772 2.78325 22.4088C2.36472 23.9402 2.09082 25.4978 1.93596 27.0785C1.79581 28.5075 1.76573 29.9391 1.84764 31.3694C2.12346 36.1902 3.51152 40.6698 6.08925 44.7566C9.49059 50.1494 14.1821 53.9879 20.1407 56.2693C20.2168 56.2987 20.2936 56.3263 20.3685 56.3602C20.7736 56.5419 20.9502 56.9502 20.7973 57.3476C20.6469 57.7399 20.2271 57.9524 19.8201 57.7898C18.9107 57.4257 17.9917 57.0763 17.1131 56.6456C11.0617 53.6794 6.4969 49.1882 3.43152 43.1868C2.05499 40.4919 1.14498 37.639 0.655412 34.6504C0.392391 33.0416 0.274 31.4232 0.241363 29.7874L0.240723 29.7868Z" fill="white"/>
<path d="M19.0725 21.345C18.414 21.5414 17.7811 21.7309 17.1258 21.9267C17.1008 21.8377 17.0752 21.7629 17.0592 21.6861C16.9421 21.13 16.7354 20.6103 16.4161 20.1393C15.7582 19.1679 14.8232 18.6745 13.6726 18.5548C12.9731 18.4818 12.2813 18.5253 11.6126 18.7455C10.0908 19.2466 9.22172 20.3351 8.90046 21.871C8.67776 22.9359 8.75071 23.9925 9.19612 24.9959C9.81623 26.3936 10.9016 27.1743 12.4196 27.3548C13.247 27.4533 14.054 27.3708 14.8239 27.0476C16.0174 26.5471 16.6688 25.609 16.9306 24.3707C16.9427 24.3118 16.9389 24.2491 16.9447 24.155C16.5863 24.1147 16.2324 24.1422 15.8811 24.1371C15.5336 24.132 15.1854 24.1358 14.8379 24.1358H12.7088V22.9193C12.9174 22.8553 18.4697 22.8373 18.869 22.9026V28.6264C18.2508 28.6641 17.6339 28.6372 16.9747 28.6436V26.6323C16.905 26.6879 16.8775 26.7001 16.8659 26.7206C16.3066 27.7259 15.4453 28.3429 14.3503 28.6321C12.8362 29.0321 11.3483 28.9246 9.92054 28.2744C8.54657 27.6485 7.62375 26.5894 7.13099 25.17C6.66831 23.8389 6.63183 22.4777 7.01772 21.1255C7.56296 19.2139 8.83646 17.9967 10.7166 17.401C11.683 17.0951 12.6768 17.0221 13.686 17.081C14.573 17.1328 15.4273 17.312 16.2266 17.7062C17.6998 18.4326 18.6239 19.6094 19.045 21.1895C19.0552 21.2279 19.0591 21.2675 19.0731 21.3456L19.0725 21.345Z" fill="white"/>
<path d="M44.0896 25.9282C43.8657 26.7698 43.4394 27.4136 42.8021 27.9179C42.1935 28.3991 41.4902 28.6576 40.7305 28.7754C39.754 28.9264 38.7908 28.8874 37.8642 28.5201C36.2854 27.8942 35.3901 26.7397 35.2109 25.04C35.1457 24.4205 35.1962 23.8113 35.3735 23.2187C35.7792 21.8613 36.6803 20.9769 38.0216 20.5507C38.9764 20.2474 39.9556 20.2192 40.9308 20.4343C42.3867 20.7555 43.2897 21.6719 43.6845 23.0965C43.8349 23.6391 43.9105 24.1933 43.8561 24.7962C41.5996 24.7495 39.3566 24.7027 37.0694 24.6554C37.0886 24.8499 37.1001 25.0189 37.1218 25.1859C37.2985 26.5304 38.3467 27.4891 39.7015 27.5236C40.0253 27.532 40.3619 27.5198 40.6742 27.4417C41.5772 27.2171 42.0572 26.5893 42.2229 25.6966C42.2357 25.6268 42.2447 25.5558 42.2568 25.4854C42.2587 25.4758 42.2664 25.4675 42.2914 25.4246C42.8827 25.552 43.4625 25.7606 44.089 25.927L44.0896 25.9282ZM41.9688 23.6737C41.917 22.7752 41.334 22.0226 40.5149 21.7577C40.1815 21.6502 39.8372 21.615 39.4865 21.6265C38.1509 21.6719 37.4277 22.5602 37.1871 23.5924C37.1788 23.6289 37.1903 23.6699 37.1948 23.7428C38.7851 23.7198 40.3651 23.6967 41.9682 23.6737H41.9688Z" fill="white"/>
<path d="M22.8707 39.0749C20.5957 39.0262 18.3533 38.9789 16.1147 38.9315C15.9912 39.8499 16.548 40.9442 17.3767 41.4158C18.1543 41.8587 18.9856 41.9367 19.8329 41.6724C20.6609 41.4139 21.0737 40.7874 21.2273 39.9638C21.242 39.8844 21.2478 39.8032 21.2631 39.6777C21.8711 39.8531 22.4611 40.0233 23.0864 40.2038C23.0486 40.3375 23.0249 40.4546 22.9833 40.5653C22.6205 41.5317 21.9748 42.2548 21.0315 42.6605C19.566 43.2902 18.0672 43.3325 16.5998 42.6797C15.1887 42.0519 14.4041 40.9339 14.2198 39.3949C14.1347 38.6813 14.2013 37.9831 14.4342 37.3093C14.8643 36.0645 15.7308 35.248 16.9742 34.8429C17.9776 34.5152 19.0067 34.4877 20.0293 34.7334C21.2977 35.0381 22.1527 35.8226 22.5866 37.0578C22.8093 37.6913 22.8995 38.3441 22.8707 39.0749V39.0749ZM16.1768 38.0247C17.7882 37.9985 19.3772 37.9722 20.9668 37.9466C20.9316 37.02 20.2789 36.2073 19.3791 36.0031C19.0361 35.925 18.6694 35.9103 18.3162 35.9263C17.1719 35.9794 16.3381 36.8837 16.1768 38.0247V38.0247Z" fill="white"/>
<path d="M33.1036 25.4061C33.7173 25.584 34.3022 25.7536 34.9236 25.9341C34.8424 26.1593 34.7848 26.3635 34.6984 26.5535C34.3227 27.3772 33.7269 28.0043 32.902 28.3652C31.3969 29.0237 29.8597 29.0717 28.359 28.3748C26.8711 27.6843 26.1192 26.4627 26.02 24.834C25.9809 24.194 26.0577 23.5662 26.2811 22.964C26.7348 21.7398 27.6064 20.9444 28.8402 20.5533C29.7944 20.2513 30.7729 20.2193 31.7488 20.4337C33.2457 20.762 34.1493 21.7142 34.5333 23.1778C34.6683 23.6936 34.724 24.2203 34.6805 24.7981C32.4253 24.7514 30.1848 24.7047 27.9155 24.658C27.8989 25.2148 28.0192 25.7133 28.2726 26.176C28.7462 27.0412 29.5148 27.4495 30.4708 27.5224C30.7627 27.5448 31.0654 27.5224 31.354 27.4719C32.2576 27.3132 32.7875 26.7468 33.0127 25.8752C33.0479 25.7376 33.0671 25.5962 33.1036 25.4067V25.4061ZM32.7958 23.675C32.7184 22.7247 32.1494 21.9932 31.2861 21.7533C30.977 21.6675 30.6436 21.631 30.3217 21.6342C28.8934 21.6489 28.1408 22.7215 28.0026 23.7429C29.5954 23.7205 31.1825 23.6981 32.7958 23.675V23.675Z" fill="white"/>
<path d="M41.2853 42.9107H39.5286C39.5286 42.7872 39.5286 42.6784 39.5286 42.569C39.5286 41.0446 39.5312 39.5203 39.5261 37.9959C39.5254 37.7725 39.5082 37.5454 39.464 37.3265C39.3405 36.7166 38.9757 36.2923 38.3914 36.0895C37.6344 35.8258 36.8632 35.8188 36.1094 36.0997C35.2595 36.4165 34.7501 37.203 34.7476 38.1648C34.7437 39.6175 34.7463 41.0702 34.7463 42.5229C34.7463 42.6439 34.7463 42.7648 34.7463 42.9056H32.9954V31.7333C33.5707 31.6802 34.1364 31.6277 34.7386 31.5714V36.5138C34.7572 36.5176 34.7763 36.5208 34.7949 36.5246C34.8211 36.476 34.8519 36.4286 34.8736 36.3781C35.2838 35.431 36.0127 34.8716 37.0085 34.6688C37.7489 34.5178 38.4945 34.5498 39.2266 34.7469C40.3894 35.0604 41.0364 35.8418 41.2309 37.011C41.2776 37.2919 41.2981 37.5806 41.2994 37.8653C41.3058 39.4511 41.3026 41.0369 41.3019 42.6227C41.3019 42.7123 41.2917 42.8019 41.2853 42.9107V42.9107Z" fill="white"/>
<path d="M30.531 38.8406C30.4984 38.4733 30.4894 38.1456 30.4376 37.825C30.2757 36.8267 29.6543 36.1554 28.6995 35.9602C28.2144 35.861 27.7229 35.8738 27.2449 36.0274C26.5588 36.2482 26.0866 36.707 25.8229 37.3693C25.4658 38.2672 25.4312 39.1836 25.7595 40.0955C26.1064 41.0587 26.827 41.5879 27.8176 41.7665C28.2234 41.8401 28.6336 41.8362 29.0367 41.7492C29.9231 41.5578 30.5253 40.9198 30.6833 40.02C30.7025 39.9125 30.7224 39.805 30.7454 39.6796C31.3514 39.8556 31.9268 40.0226 32.5392 40.2011C32.513 40.315 32.4989 40.4219 32.463 40.5211C32.1111 41.5047 31.4615 42.2381 30.5099 42.6534C29.0252 43.3011 27.5092 43.3279 26.0213 42.665C24.4572 41.968 23.5767 40.4347 23.6586 38.6729C23.6995 37.784 23.9286 36.9604 24.4611 36.236C25.0505 35.4341 25.8536 34.9522 26.8091 34.7289C27.7491 34.5088 28.6969 34.5196 29.6306 34.775C31.0334 35.1583 31.88 36.0837 32.2071 37.4909C32.2666 37.7482 32.2902 38.0138 32.335 38.3043C31.7412 38.5168 31.1435 38.6672 30.5317 38.8412L30.531 38.8406Z" fill="white"/>
<path d="M18.2784 31.5586V32.8001H13.4845C13.4787 33.6538 13.4826 34.4877 13.4819 35.3222C13.4813 36.1611 13.4819 37.0001 13.4819 37.8391V42.8646C13.258 42.9382 12.1617 42.9593 11.6082 42.9011C11.5806 42.0724 11.5998 41.2379 11.596 40.404C11.5928 39.565 11.5954 38.7261 11.5954 37.8871V35.3701C11.5954 34.5312 11.5954 33.6928 11.5954 32.8116C11.1916 32.7867 10.7973 32.8039 10.4038 32.8007C10.0051 32.7975 9.60575 32.8001 9.20706 32.8001H6.77653C6.75605 32.3816 6.75861 31.981 6.77525 31.5586H18.279H18.2784Z" fill="white"/>
<path d="M46.2745 28.6238H44.5159V20.5354C44.7923 20.4938 45.072 20.5181 45.3696 20.5207C45.6031 21.2688 45.8329 22.0041 46.0626 22.74C46.0799 22.74 46.0966 22.74 46.1138 22.74C46.1394 22.6594 46.1669 22.5794 46.1906 22.4981C46.5074 21.3936 47.3278 20.545 48.7543 20.3517C49.4083 20.2628 50.0604 20.2916 50.7016 20.458C51.8849 20.7652 52.5978 21.5581 52.7693 22.7682C52.8097 23.0511 52.8333 23.3384 52.8346 23.6232C52.841 25.209 52.8378 26.7948 52.8372 28.3806C52.8372 28.451 52.8314 28.5214 52.8282 28.5879C52.5933 28.6602 51.4043 28.6698 51.0639 28.5988V28.2763C51.0639 26.7724 51.0658 25.2685 51.0613 23.7646C51.0613 23.5509 51.0447 23.3352 51.0088 23.1247C50.8885 22.4201 50.4642 21.9695 49.7916 21.7641C49.1837 21.5785 48.561 21.5664 47.9441 21.7225C46.917 21.9823 46.2821 22.7976 46.2764 23.8728C46.2681 25.3357 46.2745 26.7986 46.2745 28.2616C46.2745 28.3729 46.2745 28.4836 46.2745 28.6244V28.6238Z" fill="white"/>
<path d="M19.8513 20.5271H20.7005C20.9309 21.2637 21.1639 22.0073 21.3968 22.7509C21.4141 22.749 21.4314 22.7477 21.4486 22.7458C21.4768 22.6441 21.5069 22.5423 21.5338 22.4399C21.6355 22.0515 21.7904 21.6867 22.0124 21.3507C22.5993 20.4644 23.5285 20.163 24.4967 20.3652C25.1648 20.5047 25.6013 21.0256 25.6973 21.7878C25.7837 22.4757 25.7152 23.1541 25.52 23.8203C25.4759 23.9707 25.4023 24.0558 25.2384 24.0987C24.7745 24.2196 24.3175 24.3662 23.8574 24.4999C23.7928 24.5185 23.7249 24.5255 23.6366 24.5422C23.7102 24.1934 23.7928 23.8792 23.8408 23.5592C23.9048 23.1355 23.9694 22.71 23.8817 22.2786C23.7646 21.7027 23.3531 21.4646 22.8181 21.7097C22.6127 21.8038 22.4143 21.9619 22.2716 22.1385C21.8429 22.6703 21.6105 23.2898 21.6067 23.9771C21.5984 25.4087 21.6041 26.8409 21.6041 28.2724V28.6231H19.8513V20.5265V20.5271Z" fill="white"/>
<path d="M39.0225 54.9764C38.9886 54.826 38.963 54.7108 38.9297 54.563C39.1223 54.5041 39.3124 54.4433 39.5044 54.387C39.6983 54.3301 39.8935 54.2763 40.1206 54.2117C40.5097 55.5409 40.8918 56.8483 41.2809 58.1768C40.8726 58.2984 40.5033 58.4078 40.1008 58.5275C40.0458 58.3854 39.992 58.2485 39.9299 58.0885C39.8762 58.1615 39.8339 58.2159 39.7949 58.2728C39.1466 59.2225 37.8879 59.4273 36.9644 58.7329C36.1325 58.1077 35.8086 56.8496 36.2381 55.9159C36.6777 54.9604 37.8117 54.506 38.7959 54.8907C38.8593 54.9156 38.9233 54.9387 39.0225 54.9758V54.9764ZM39.5799 56.886C39.5728 56.2307 39.059 55.6855 38.4651 55.7028C37.8354 55.7207 37.3605 56.2058 37.3695 56.8233C37.3784 57.4754 37.8597 57.9829 38.4664 57.9803C39.0999 57.9771 39.5869 57.4991 39.5799 56.8867V56.886Z" fill="white"/>
<path d="M26.521 55.9145C26.5645 55.7673 26.5985 55.6553 26.6407 55.5126C27.042 55.5971 27.4355 55.6797 27.8502 55.766C27.5674 57.1247 27.2915 58.4513 27.008 59.8118C26.594 59.7261 26.1998 59.6448 25.7934 59.5603C25.8177 59.401 25.8388 59.264 25.8625 59.1066C25.6302 59.2032 25.4331 59.3107 25.2226 59.369C24.2793 59.6288 23.2739 59.1117 22.8983 58.1857C22.5476 57.3224 22.7843 56.223 23.4601 55.5817C24.4002 54.6903 25.764 55.0032 26.3623 55.7392C26.4046 55.791 26.4519 55.839 26.5204 55.9139L26.521 55.9145ZM26.2599 57.2578C26.2542 56.6421 25.7652 56.1795 25.1272 56.1859C24.5218 56.1923 24.0508 56.7074 24.0521 57.3615C24.0534 57.9752 24.5442 58.4558 25.1714 58.4583C25.7787 58.4609 26.2657 57.9227 26.2599 57.2571V57.2578Z" fill="white"/>
<path d="M50.9141 49.5534C51.243 49.8465 51.5943 49.9054 51.954 49.739C52.5613 49.458 52.8192 48.9602 52.736 48.2703C53.0413 48.1487 53.3408 48.0297 53.6646 47.901C53.8195 48.3298 53.7971 48.7394 53.6825 49.1458C53.406 50.1236 52.4871 50.8864 51.4734 50.9549C50.372 51.0291 49.4166 50.2388 49.2316 49.1842C49.0332 48.054 49.7596 46.8899 50.843 46.5354C51.6967 46.2564 52.6247 46.6935 52.9958 47.2189C52.3079 47.99 51.6167 48.765 50.9141 49.5534ZM50.4239 49.0434C50.8443 48.5724 51.2488 48.1193 51.6577 47.6617C51.2372 47.4051 50.8155 47.4806 50.4866 47.8466C50.1397 48.2325 50.1084 48.6229 50.4239 49.0427V49.0434Z" fill="white"/>
<path d="M44.1268 56.8604C43.7665 57.0536 43.4183 57.2405 43.0312 57.4479C42.381 56.2332 41.7378 55.0327 41.0774 53.7982C41.453 53.5973 41.8069 53.4078 42.1704 53.2133C42.2479 53.3362 42.3067 53.4296 42.3778 53.5422C42.4303 53.4405 42.4763 53.3534 42.5205 53.2651C42.7752 52.7608 43.1854 52.4338 43.721 52.2905C44.352 52.1215 44.8909 52.3103 45.3145 52.8082C45.3996 52.9087 45.4719 53.0226 45.5347 53.1391C45.9423 53.8942 46.3455 54.6513 46.771 55.4461C46.4095 55.6393 46.0556 55.8294 45.6844 56.0278C45.6313 55.9472 45.5833 55.8838 45.5462 55.8147C45.232 55.2298 44.9209 54.6429 44.6054 54.0587C44.5427 53.9422 44.4755 53.8251 44.3911 53.7246C44.1197 53.4008 43.7601 53.3406 43.3716 53.5416C42.9876 53.7406 42.8065 54.0875 42.8993 54.4746C42.9275 54.5917 42.9864 54.7037 43.0433 54.8113C43.3588 55.407 43.6788 56.0009 43.9962 56.5954C44.0385 56.6748 44.0762 56.7567 44.1268 56.8597V56.8604Z" fill="white"/>
<path d="M29.0667 52.988C29.4986 53.0079 29.8916 53.0258 30.3184 53.0456C30.1949 55.3719 30.074 57.6616 29.9511 59.9776C29.5236 59.9552 29.1326 59.9341 28.7019 59.911C28.8241 57.5957 28.9444 55.3066 29.0667 52.988Z" fill="white"/>
<path d="M31.4083 60C31.3181 57.6764 31.2291 55.3924 31.1389 53.077C31.5478 53.0252 31.9491 53.0098 32.3881 53.0085C32.4783 55.322 32.5679 57.6124 32.6588 59.9303C32.2384 59.9539 31.8544 59.9757 31.4083 60.0007V60Z" fill="white"/>
<path d="M48.3555 49.3954C48.4176 49.6962 48.4771 49.9822 48.5353 50.2644C47.5939 50.6625 47.3105 50.9959 47.3623 51.6307C47.402 52.119 47.7834 52.5683 48.2557 52.6847C48.8105 52.8211 49.2834 52.5523 49.7519 51.815C50.0187 51.9386 50.2907 52.064 50.5588 52.1881C50.5524 52.247 50.5544 52.2784 50.5448 52.3053C50.1333 53.4661 48.7804 54.1451 47.6067 53.7778C46.6532 53.4796 46.0337 52.5651 46.1406 51.4989C46.2488 50.4142 47.2497 49.4331 48.3555 49.3954V49.3954Z" fill="white"/>
<path d="M34.1166 59.8209C33.9342 58.4443 33.7563 57.1017 33.5732 55.7188C33.9822 55.6637 34.3802 55.6106 34.8148 55.5524C34.9965 56.9257 35.1738 58.2664 35.3568 59.6461C34.9472 59.7037 34.5594 59.7588 34.1166 59.8209Z" fill="white"/>
<path d="M34.727 54.0709C34.7206 54.4824 34.3917 54.7998 33.9764 54.7947C33.5598 54.7896 33.2462 54.4677 33.25 54.0498C33.2539 53.6434 33.5911 53.3132 33.9975 53.3177C34.3981 53.3222 34.7328 53.6684 34.727 54.0709V54.0709Z" fill="white"/>
</g>
<defs>
<clipPath id="clip0_3710_39889">
<rect width="59.6179" height="60" fill="white" transform="translate(0.240723)"/>
</clipPath>
</defs>
</svg>
