<svg width="80" height="80" viewBox="0 0 80 80" fill="none" xmlns="http://www.w3.org/2000/svg">
<path d="M29.8535 23.0647H39.6585C42.0435 23.0647 45.1891 23.0647 46.8134 24.051C48.5948 25.111 49.9934 27.0396 49.9934 29.6945C49.9934 32.5702 48.482 34.7295 45.9792 35.7502V35.8287C49.3113 36.5109 51.127 39.0087 51.127 42.3408C51.127 46.3158 48.2857 50.1043 42.9121 50.1043H29.8535V23.0647ZM33.4506 34.6853H40.6498C44.7376 34.6853 46.4061 33.2082 46.4061 30.3668C46.4061 26.6176 43.7561 26.0876 40.6498 26.0876H33.4506V34.6853ZM33.4506 47.0666H42.4655C45.567 47.0666 47.5397 45.1724 47.5397 42.223C47.5397 38.6995 44.6984 37.7181 41.6705 37.7181H33.4506V47.0666Z" fill="black"/>
<path d="M60.3283 36.5894C60.3283 47.945 51.1221 57.1513 39.7615 57.1513C28.4058 57.1513 19.1996 47.945 19.1996 36.5894C19.1996 25.2337 28.4058 16.0275 39.7615 16.0275C51.1221 16.0324 60.3283 25.2386 60.3283 36.5894ZM39.7664 12.8966C26.6882 12.8966 16.0834 23.5014 16.0834 36.5796C16.0834 49.6577 26.6882 60.2625 39.7664 60.2625C52.8495 60.2625 63.4543 49.6577 63.4543 36.5796C63.4543 23.5014 52.8495 12.8966 39.7664 12.8966Z" fill="black"/>
<path d="M63.4004 65.2632H16.1276V68.3695H63.4004V65.2632Z" fill="black"/>
<path d="M61.9233 61.8427C61.9822 61.8427 62.0361 61.8378 62.0901 61.8378C62.1392 61.8329 62.1883 61.8231 62.2275 61.8084C62.2717 61.7887 62.3011 61.7593 62.3257 61.7249C62.3502 61.6857 62.36 61.6366 62.36 61.5728C62.36 61.5188 62.3502 61.4698 62.3306 61.4403C62.3109 61.406 62.2815 61.3814 62.2471 61.3667C62.2128 61.3471 62.1784 61.3373 62.1294 61.3274C62.0852 61.3225 62.0459 61.3225 61.9969 61.3225H61.6583V61.8476H61.9233V61.8427ZM62.0361 61.1066C62.2324 61.1066 62.3747 61.1459 62.4729 61.2244C62.5661 61.3029 62.6152 61.4207 62.6152 61.5826C62.6152 61.7348 62.571 61.8378 62.4925 61.9114C62.4091 61.9801 62.306 62.0194 62.1784 62.0341L62.6496 62.7604H62.3747L61.9233 62.0488H61.6534V62.7604H61.3933V61.1115H62.0361V61.1066ZM60.878 62.4071C60.932 62.5543 61.0154 62.6868 61.1234 62.7948C61.2264 62.9027 61.3491 62.9861 61.4914 63.0499C61.6288 63.1088 61.7859 63.1383 61.9478 63.1383C62.1146 63.1383 62.2668 63.1088 62.4042 63.0499C62.5465 62.9861 62.6692 62.9027 62.7722 62.7948C62.8753 62.6868 62.9587 62.5592 63.0127 62.4071C63.0716 62.2598 63.1059 62.1028 63.1059 61.931C63.1059 61.7593 63.0765 61.6023 63.0127 61.455C62.9538 61.3078 62.8704 61.1802 62.7722 61.0723C62.6643 60.9643 62.5416 60.8809 62.4042 60.822C62.2668 60.7631 62.1097 60.7287 61.9478 60.7287C61.7859 60.7287 61.6288 60.7631 61.4914 60.822C61.3491 60.8858 61.2215 60.9692 61.1234 61.0723C61.0154 61.1802 60.9369 61.3078 60.878 61.455C60.8191 61.6023 60.7897 61.7544 60.7897 61.931C60.7847 62.0979 60.8142 62.2598 60.878 62.4071ZM60.6424 61.3716C60.716 61.1998 60.8191 61.0575 60.9467 60.9299C61.0743 60.8024 61.2264 60.7091 61.3982 60.6355C61.5699 60.5619 61.7564 60.5275 61.9429 60.5275C62.1392 60.5275 62.3208 60.5619 62.4974 60.6355C62.6643 60.7091 62.8164 60.8024 62.9391 60.9299C63.0667 61.0575 63.1746 61.2048 63.2433 61.3716C63.3219 61.5434 63.3562 61.7298 63.3562 61.931C63.3562 62.1323 63.3219 62.3187 63.2433 62.4905C63.1697 62.6672 63.0667 62.8144 62.9391 62.942C62.8115 63.0745 62.6643 63.1677 62.4974 63.2413C62.3208 63.31 62.1392 63.3444 61.9429 63.3444C61.7515 63.3444 61.5699 63.31 61.3982 63.2413C61.2264 63.1677 61.0743 63.0745 60.9467 62.942C60.8191 62.8144 60.716 62.6672 60.6424 62.4905C60.5639 62.3187 60.5345 62.1323 60.5345 61.931C60.5296 61.7298 60.5639 61.5434 60.6424 61.3716Z" fill="black"/>
<path d="M21.8594 2.48313C21.7465 2.30156 21.6091 2.14452 21.4423 2.01202C21.2754 1.87462 21.0841 1.77156 20.873 1.69304C20.662 1.61943 20.4412 1.58017 20.2105 1.58017C19.7885 1.58017 19.4303 1.6636 19.1309 1.82554C18.8365 1.98749 18.596 2.20832 18.4144 2.48313C18.2329 2.75794 18.0955 3.07202 18.012 3.42535C17.9286 3.77868 17.8844 4.14182 17.8844 4.51478C17.8844 4.87302 17.9237 5.22145 18.012 5.56005C18.0955 5.89866 18.228 6.20292 18.4144 6.47773C18.596 6.74764 18.8365 6.96847 19.1309 7.13041C19.4254 7.29236 19.7836 7.37578 20.2105 7.37578C20.7847 7.37578 21.2362 7.19912 21.5552 6.85069C21.879 6.49736 22.0753 6.03607 22.149 5.46191H23.9696C23.9205 5.99681 23.7978 6.47773 23.5966 6.90958C23.3954 7.34143 23.1353 7.70948 22.8065 8.00883C22.4777 8.31309 22.095 8.54374 21.6582 8.70568C21.2215 8.86272 20.7356 8.94614 20.2105 8.94614C19.5579 8.94614 18.969 8.83327 18.4439 8.60263C17.9188 8.37689 17.482 8.06281 17.1189 7.66041C16.7606 7.26291 16.4858 6.7918 16.2944 6.25199C16.1031 5.71218 16.0049 5.13311 16.0049 4.50988C16.0049 3.87192 16.0982 3.27813 16.2944 2.73341C16.4858 2.18869 16.7606 1.70777 17.1189 1.30536C17.4771 0.898049 17.9188 0.57907 18.4439 0.348423C18.9641 0.117777 19.553 0 20.2105 0C20.6816 0 21.1282 0.0687031 21.5453 0.201202C21.9625 0.338609 22.3403 0.534904 22.6691 0.794995C22.9979 1.05509 23.2727 1.37406 23.4887 1.75684C23.7046 2.13961 23.842 2.58128 23.896 3.07202H22.0753C22.041 2.85609 21.9723 2.6598 21.8594 2.48313Z" fill="black"/>
<path d="M26.4184 7.26291C26.6736 7.50828 27.0416 7.63587 27.5176 7.63587C27.8612 7.63587 28.1556 7.55244 28.4059 7.38069C28.6512 7.20893 28.8034 7.02735 28.8623 6.83597H30.359C30.1186 7.57698 29.7505 8.11188 29.2549 8.43086C28.7592 8.74984 28.1605 8.91179 27.4588 8.91179C26.9729 8.91179 26.5313 8.83327 26.1436 8.67623C25.751 8.5192 25.4222 8.29837 25.1474 8.01374C24.8775 7.72911 24.6665 7.38559 24.5192 6.98319C24.372 6.58569 24.2984 6.14403 24.2984 5.66801C24.2984 5.20672 24.372 4.77487 24.5241 4.37737C24.6763 3.97988 24.8922 3.63145 25.1719 3.34192C25.4516 3.05238 25.7853 2.82174 26.173 2.65489C26.5607 2.48804 26.9876 2.40461 27.4588 2.40461C27.9838 2.40461 28.4451 2.50767 28.8377 2.70887C29.2303 2.91498 29.5493 3.18488 29.7996 3.5284C30.0499 3.87191 30.2314 4.2645 30.3443 4.70126C30.4572 5.13802 30.4964 5.59931 30.4621 6.08023H25.9964C26.0209 6.61514 26.1583 7.01754 26.4184 7.26291ZM28.3372 4.00932C28.1311 3.78849 27.8219 3.67562 27.4097 3.67562C27.1398 3.67562 26.914 3.71979 26.7325 3.81303C26.5509 3.90627 26.4086 4.01914 26.3006 4.15163C26.1926 4.28904 26.119 4.43136 26.0749 4.58348C26.0307 4.73561 26.0062 4.86811 25.9964 4.9908H28.7641C28.6856 4.55895 28.5433 4.23015 28.3372 4.00932Z" fill="black"/>
<path d="M32.8471 2.55674V3.70506H32.8716C32.9501 3.51368 33.0581 3.33701 33.1955 3.17016C33.3329 3.00822 33.485 2.8659 33.6617 2.75303C33.8384 2.64016 34.0248 2.54692 34.226 2.48313C34.4272 2.41933 34.6334 2.38989 34.8493 2.38989C34.9621 2.38989 35.0848 2.40952 35.2222 2.44878V4.02895C35.1437 4.01423 35.0456 3.99951 34.9327 3.98969C34.8198 3.97988 34.7119 3.97006 34.6088 3.97006C34.2997 3.97006 34.0347 4.02404 33.8187 4.1271C33.6028 4.23015 33.431 4.37247 33.2985 4.55404C33.166 4.73561 33.0728 4.94172 33.0188 5.18218C32.9648 5.42264 32.9354 5.68274 32.9354 5.96246V8.75475H31.2374V2.55674H32.8471Z" fill="black"/>
<path d="M39.7665 2.55674V3.69525H38.52V6.76236C38.52 7.0519 38.5691 7.24328 38.6623 7.33652C38.7556 7.42976 38.9519 7.47884 39.2365 7.47884C39.3346 7.47884 39.423 7.47393 39.5113 7.46902C39.5996 7.45921 39.6831 7.44939 39.7616 7.43467V8.74985C39.6193 8.77438 39.4573 8.78911 39.2807 8.79892C39.104 8.80874 38.9322 8.81364 38.7654 8.81364C38.5004 8.81364 38.2501 8.79401 38.0195 8.75966C37.7839 8.72531 37.5778 8.65661 37.3962 8.54865C37.2146 8.44559 37.0772 8.29837 36.9693 8.10698C36.8662 7.91559 36.8122 7.66532 36.8122 7.35125V3.70016H35.7817V2.56165H36.8122V0.706663H38.5102V2.56165H39.7665V2.55674Z" fill="black"/>
<path d="M40.7577 1.5998V0.196292H42.4557V1.5998H40.7577ZM42.4557 2.55674V8.74494H40.7577V2.55674H42.4557Z" fill="black"/>
<path d="M43.1329 2.55674H44.1488V2.07582C44.1488 1.52619 44.3205 1.07471 44.664 0.721381C45.0076 0.36805 45.5277 0.196292 46.2197 0.196292C46.3718 0.196292 46.5239 0.2012 46.6761 0.215922C46.8282 0.225737 46.9754 0.240458 47.1177 0.245366V1.51638C46.9165 1.49184 46.7104 1.48202 46.4945 1.48202C46.2638 1.48202 46.097 1.53601 45.9988 1.64397C45.9007 1.75193 45.8516 1.9335 45.8516 2.18869V2.56165H47.0245V3.70016H45.8516V8.75475H44.1488V3.70016H43.1329V2.55674Z" fill="black"/>
<path d="M48.1728 1.5998V0.196292H49.8708V1.5998H48.1728ZM49.8757 2.55674V8.74494H48.1728V2.55674H49.8757Z" fill="black"/>
<path d="M52.5551 7.26292C52.8103 7.50828 53.1784 7.63588 53.6544 7.63588C53.9979 7.63588 54.2923 7.55245 54.5426 7.38069C54.788 7.20893 54.9401 7.02736 54.999 6.83597H56.4957C56.2553 7.57699 55.8872 8.11189 55.3965 8.43087C54.9008 8.74985 54.3021 8.91179 53.6004 8.91179C53.1146 8.91179 52.6729 8.83327 52.2852 8.67624C51.8926 8.5192 51.5638 8.29837 51.289 8.01374C51.0191 7.72912 50.8081 7.3856 50.6609 6.9832C50.5136 6.5857 50.44 6.14403 50.44 5.66802C50.44 5.20673 50.5186 4.77488 50.6658 4.37738C50.8179 3.96516 51.0338 3.62164 51.3135 3.33211C51.5933 3.04257 51.927 2.81193 52.3147 2.64508C52.7023 2.47823 53.1293 2.3948 53.6004 2.3948C54.1255 2.3948 54.5868 2.49786 54.9794 2.69906C55.372 2.90517 55.6909 3.17507 55.9412 3.51859C56.1915 3.86211 56.3731 4.2547 56.4859 4.69145C56.5988 5.12821 56.6381 5.5895 56.6086 6.07042H52.1429C52.1625 6.61514 52.2999 7.01755 52.5551 7.26292ZM54.4788 4.00933C54.2776 3.78849 53.9635 3.67563 53.5513 3.67563C53.2814 3.67563 53.0557 3.71979 52.8741 3.81303C52.6925 3.90627 52.5502 4.01914 52.4422 4.15164C52.3343 4.28905 52.2607 4.43136 52.2165 4.58349C52.1723 4.73562 52.1478 4.86812 52.138 4.9908H54.9008C54.8223 4.55895 54.68 4.23016 54.4788 4.00933Z" fill="black"/>
<path d="M61.7663 7.95976C61.5651 8.29346 61.305 8.53883 60.9811 8.68605C60.6572 8.83327 60.294 8.90688 59.8867 8.90688C59.4254 8.90688 59.0181 8.81855 58.6648 8.63698C58.3115 8.45541 58.0219 8.21494 57.7962 7.90578C57.5704 7.59661 57.3987 7.24328 57.2809 6.84579C57.1631 6.44829 57.1091 6.03116 57.1091 5.59931C57.1091 5.18219 57.168 4.78469 57.2809 4.39701C57.3938 4.00933 57.5704 3.67072 57.7962 3.37137C58.0219 3.07693 58.3115 2.83646 58.6501 2.6598C58.9936 2.47823 59.3911 2.38989 59.8475 2.38989C60.2155 2.38989 60.5639 2.46841 60.8927 2.62545C61.2264 2.78248 61.4865 3.00822 61.6779 3.31248H61.7025V0.201204H63.4004V8.74985H61.7859V7.95976H61.7663ZM61.6926 4.89756C61.6436 4.66201 61.5651 4.4559 61.4473 4.27432C61.3295 4.09275 61.1823 3.95044 60.9958 3.83757C60.8142 3.7247 60.5787 3.67072 60.3039 3.67072C60.029 3.67072 59.7886 3.7247 59.5972 3.83757C59.4058 3.95044 59.2537 4.09766 59.1359 4.27923C59.023 4.4608 58.9396 4.67182 58.8856 4.90738C58.8316 5.14293 58.8071 5.3883 58.8071 5.64348C58.8071 5.88394 58.8366 6.1244 58.8905 6.35996C58.9445 6.60042 59.0378 6.81144 59.1604 7.00282C59.2831 7.1893 59.4402 7.34143 59.6266 7.45921C59.8131 7.57699 60.0389 7.63097 60.3039 7.63097C60.5836 7.63097 60.8142 7.57699 61.0056 7.46412C61.1921 7.35125 61.3442 7.20403 61.4571 7.01264C61.57 6.82616 61.6485 6.61023 61.6976 6.37468C61.7466 6.13422 61.7712 5.88885 61.7712 5.63367C61.7663 5.37848 61.7417 5.13311 61.6926 4.89756Z" fill="black"/>
<path d="M20.2743 74.4694C20.1909 73.8707 19.6167 73.4143 18.9592 73.4143C17.7716 73.4143 17.325 74.4252 17.325 75.4803C17.325 76.4814 17.7716 77.4923 18.9592 77.4923C19.7689 77.4923 20.2253 76.9378 20.3234 76.1428H21.6091C21.4717 77.6445 20.4363 78.6063 18.9592 78.6063C17.0943 78.6063 16 77.2126 16 75.4803C16 73.694 17.0943 72.3003 18.9592 72.3003C20.2841 72.3003 21.3932 73.0757 21.5552 74.4694H20.2743Z" fill="black"/>
<path d="M24.372 73.9885C25.746 73.9885 26.6294 74.8963 26.6294 76.29C26.6294 77.6739 25.746 78.5818 24.372 78.5818C23.0077 78.5818 22.1195 77.669 22.1195 76.29C22.1195 74.9012 23.0077 73.9885 24.372 73.9885ZM24.372 77.6837C25.1915 77.6837 25.432 76.982 25.432 76.2949C25.432 75.5932 25.1866 74.8963 24.372 74.8963C23.5623 74.8963 23.3169 75.5981 23.3169 76.2949C23.3169 76.982 23.5623 77.6837 24.372 77.6837Z" fill="black"/>
<path d="M27.3704 74.1013H28.5089V74.9111H28.5286C28.7445 74.3614 29.3383 73.9836 29.9223 73.9836C30.0057 73.9836 30.1087 73.9983 30.1824 74.0228V75.1368C30.0695 75.1123 29.8928 75.0975 29.7505 75.0975C28.8721 75.0975 28.5678 75.7306 28.5678 76.4961V78.4591H27.3704V74.1013Z" fill="black"/>
<path d="M31.787 74.1062V74.6608H31.8018C32.0864 74.1995 32.5575 73.9885 33.0973 73.9885C34.4665 73.9885 35.0799 75.0926 35.0799 76.3293C35.0799 77.4923 34.4419 78.5818 33.166 78.5818C32.6458 78.5818 32.1453 78.356 31.8606 77.9242H31.841V80H30.6436V74.1062H31.787ZM33.8825 76.2998C33.8825 75.6079 33.6028 74.8914 32.8372 74.8914C32.052 74.8914 31.8018 75.5932 31.8018 76.2998C31.8018 77.0065 32.0717 77.6837 32.847 77.6837C33.6322 77.6837 33.8825 77.0065 33.8825 76.2998Z" fill="black"/>
<path d="M37.7054 73.9885C39.0794 73.9885 39.9677 74.8963 39.9677 76.29C39.9677 77.6739 39.0794 78.5818 37.7054 78.5818C36.3411 78.5818 35.4578 77.669 35.4578 76.29C35.4578 74.9012 36.3411 73.9885 37.7054 73.9885ZM37.7054 77.6837C38.5249 77.6837 38.7703 76.982 38.7703 76.2949C38.7703 75.5932 38.5249 74.8963 37.7054 74.8963C36.8956 74.8963 36.6503 75.5981 36.6503 76.2949C36.6552 76.982 36.9006 77.6837 37.7054 77.6837Z" fill="black"/>
<path d="M41.8472 74.1013V74.9111H41.8668C42.0827 74.3614 42.6765 73.9836 43.2556 73.9836C43.339 73.9836 43.4421 73.9983 43.5157 74.0228V75.1368C43.4077 75.1123 43.231 75.0975 43.0838 75.0975C42.2054 75.0975 41.9011 75.7306 41.9011 76.4961V78.4591H40.7037V74.1013H41.8472Z" fill="black"/>
<path d="M43.869 75.446C43.9377 74.3222 44.9388 73.9885 45.9203 73.9885C46.7889 73.9885 47.8342 74.1799 47.8342 75.2251V77.4923C47.8342 77.8898 47.8735 78.2824 47.9863 78.464H46.7693C46.73 78.3266 46.6908 78.1843 46.6859 78.042C46.308 78.4395 45.7535 78.5818 45.2186 78.5818C44.3941 78.5818 43.7365 78.1695 43.7365 77.2764C43.7365 76.29 44.4776 76.0545 45.2186 75.9514C45.9547 75.8435 46.6368 75.868 46.6368 75.3773C46.6368 74.862 46.2786 74.7884 45.8614 74.7884C45.405 74.7884 45.1106 74.9749 45.0664 75.446H43.869ZM46.6319 76.3342C46.4258 76.5109 46.0087 76.5207 45.6357 76.5894C45.2627 76.663 44.929 76.7906 44.929 77.2322C44.929 77.6788 45.2725 77.7868 45.6651 77.7868C46.5975 77.7868 46.6368 77.0458 46.6368 76.7857V76.3342H46.6319Z" fill="black"/>
<path d="M50.2486 74.1062H51.127V74.9061H50.2486V77.0654C50.2486 77.4727 50.3517 77.5709 50.7541 77.5709C50.8817 77.5709 50.9994 77.561 51.127 77.5365V78.4738C50.9258 78.5082 50.6608 78.518 50.4253 78.518C49.6941 78.518 49.0512 78.3462 49.0512 77.4825V74.9111H48.3249V74.1112H49.0512V72.8058H50.2486V74.1062Z" fill="black"/>
<path d="M53.2274 73.4339H52.03V72.4476H53.2274V73.4339ZM52.03 74.1062H53.2274V78.464H52.03V74.1062Z" fill="black"/>
<path d="M56.2798 73.9885C57.6539 73.9885 58.5421 74.8963 58.5421 76.29C58.5421 77.6739 57.6539 78.5818 56.2798 78.5818C54.9155 78.5818 54.0322 77.669 54.0322 76.29C54.0322 74.9012 54.9155 73.9885 56.2798 73.9885ZM56.2798 77.6837C57.0993 77.6837 57.3447 76.982 57.3447 76.2949C57.3447 75.5932 57.0993 74.8963 56.2798 74.8963C55.4701 74.8963 55.2247 75.5981 55.2247 76.2949C55.2247 76.982 55.4701 77.6837 56.2798 77.6837Z" fill="black"/>
<path d="M59.3126 74.1062H60.4511V74.7148H60.4756C60.7799 74.224 61.3 73.9885 61.8104 73.9885C63.0814 73.9885 63.4053 74.7049 63.4053 75.7846V78.464H62.2079V76.0005C62.2079 75.284 61.9969 74.9307 61.4424 74.9307C60.7897 74.9307 60.5149 75.2938 60.5149 76.1821V78.4689H59.3175V74.1062H59.3126Z" fill="black"/>
</svg>
