<svg width="81" height="80" viewBox="0 0 81 80" fill="none" xmlns="http://www.w3.org/2000/svg">
<path d="M41.0641 0.08004C40.7419 0.207222 40.4027 0.571811 40.2925 0.894006C40.0127 1.74189 40.8436 2.6576 41.7254 2.47954C42.1239 2.39475 42.5563 1.99625 42.6581 1.59775C42.904 0.614205 41.9713 -0.27607 41.0641 0.08004Z" fill="black"/>
<path d="M36.0013 0.325973C34.916 0.817744 35.128 2.45415 36.3065 2.65764C36.722 2.72548 37.2731 2.50503 37.5105 2.17435C37.9599 1.5554 37.7225 0.63121 37.0527 0.317494C36.6033 0.122481 36.4507 0.122481 36.0013 0.325973Z" fill="black"/>
<path d="M45.7526 0.664491C45.0658 1.07995 44.981 2.06349 45.6 2.60614C45.9985 2.95377 46.4055 3.0216 46.9057 2.81811C47.5925 2.53831 47.8723 1.65651 47.4653 1.03756C47.1262 0.511873 46.2953 0.333818 45.7526 0.664491Z" fill="black"/>
<path d="M30.9904 1.17361C30.6258 1.40254 30.3799 1.818 30.3799 2.23346C30.3799 2.88633 30.948 3.46289 31.5924 3.46289C31.9739 3.46289 32.2876 3.31027 32.5844 2.99656C32.7624 2.80154 32.7963 2.69132 32.7963 2.23346C32.7963 1.77561 32.7624 1.66538 32.5844 1.47037C32.1265 0.9786 31.4991 0.868375 30.9904 1.17361Z" fill="black"/>
<path d="M50.8564 1.61432C50.2714 1.82629 50.017 2.26719 50.0679 2.93701C50.1018 3.344 50.1527 3.44574 50.407 3.68315C50.8225 4.06469 51.2888 4.13253 51.7975 3.87816C52.0943 3.7425 52.23 3.60684 52.3487 3.344C52.5437 2.92006 52.5437 2.71656 52.3826 2.3011C52.1537 1.73302 51.4245 1.40235 50.8564 1.61432Z" fill="black"/>
<path d="M26.3957 2.50524C26.3279 2.53068 26.1753 2.63242 26.0735 2.73417C25.4037 3.33616 25.5224 4.3621 26.3109 4.75212C26.8875 5.0404 27.5319 4.86235 27.9049 4.31123C28.0745 4.06534 28.0999 3.93816 28.0745 3.56509C28.0406 3.18355 27.9897 3.06484 27.7269 2.81048C27.4725 2.54763 27.3623 2.49676 26.9723 2.4798C26.7264 2.46285 26.4635 2.47133 26.3957 2.50524Z" fill="black"/>
<path d="M55.6047 3.26764C54.6551 3.50505 54.3922 4.86165 55.1808 5.48061C55.893 6.04869 57.0291 5.57387 57.1478 4.65816C57.2665 3.79332 56.4441 3.05567 55.6047 3.26764Z" fill="black"/>
<path d="M22.0968 4.4806C21.2659 4.66713 20.8419 5.60828 21.2744 6.32898C21.4524 6.63422 21.9951 6.93945 22.3597 6.93945C23.2754 6.93945 23.8943 5.79481 23.3856 5.02324C23.1227 4.61626 22.5631 4.38733 22.0968 4.4806Z" fill="black"/>
<path d="M59.8021 5.64239C58.8694 6.12568 58.8948 7.45685 59.8529 7.88079C60.2684 8.06733 60.5906 8.04189 61.006 7.80448C61.2943 7.63491 61.5826 7.1177 61.5826 6.77855C61.5826 6.43092 61.3113 5.89675 61.04 5.7187C60.7008 5.49825 60.1497 5.46433 59.8021 5.64239Z" fill="black"/>
<path d="M36.6805 6.60058C36.2565 6.68537 35.8411 6.89734 35.5697 7.14322C34.9423 7.7113 34.866 8.79659 35.4086 9.38163C35.7224 9.72078 36.0445 9.831 37.0535 9.94971C37.5792 10.0091 38.071 10.1108 38.1388 10.1617C38.4017 10.3821 38.2151 10.7467 37.7742 10.8824C37.4012 10.9926 36.5957 10.9332 36.1463 10.7637C35.8919 10.6704 35.68 10.5941 35.6715 10.6111C35.663 10.6195 35.5358 10.8654 35.3917 11.1537C35.0949 11.7557 35.078 11.7387 35.8834 11.9761C36.4176 12.1288 37.6301 12.1542 38.1388 12.0185C38.6475 11.8829 39.1563 11.5268 39.4022 11.1452C39.5802 10.8739 39.6226 10.7043 39.6226 10.2804C39.6226 9.27988 39.08 8.84746 37.6216 8.70332C36.6211 8.60158 36.3328 8.46592 36.443 8.13524C36.5702 7.73674 37.4266 7.58412 38.2321 7.83001C38.461 7.89784 38.6899 7.95719 38.7323 7.95719C38.8086 7.95719 39.1987 7.11779 39.1987 6.94821C39.1987 6.68537 37.4266 6.43948 36.6805 6.60058Z" fill="black"/>
<path d="M43.1154 6.6001C42.2675 6.77815 41.7333 7.34623 41.674 8.11781C41.6061 9.07591 41.9877 9.48289 43.3697 9.91531C44.1752 10.1612 44.455 10.3223 44.455 10.5343C44.455 10.6869 44.2006 10.8989 43.9293 10.9667C43.6071 11.0515 42.6914 10.7886 42.2675 10.5004C42.0725 10.3562 41.8944 10.246 41.8775 10.246C41.8605 10.246 41.6824 10.458 41.4874 10.7123C41.072 11.2465 41.0889 11.2804 41.7248 11.628C42.5388 12.0689 43.8021 12.247 44.6076 12.0265C45.04 11.9163 45.5403 11.4924 45.6929 11.1193C45.7607 10.9667 45.8116 10.636 45.8116 10.3901C45.8116 9.56768 45.3792 9.16918 44.0311 8.75372C43.0306 8.44848 42.8271 8.23651 43.1917 7.90584C43.4715 7.65995 44.1498 7.71082 44.845 8.03302C45.1503 8.17716 45.4216 8.29586 45.4386 8.29586C45.4809 8.29586 46.066 7.42254 46.066 7.35471C46.066 7.26145 45.2605 6.87142 44.7942 6.74424C44.1583 6.56618 43.5478 6.51531 43.1154 6.6001Z" fill="black"/>
<path d="M17.6202 7.14319C17.4761 7.20254 17.2556 7.3806 17.1284 7.52474C16.6791 8.0589 16.8826 9.04244 17.5015 9.36464C17.9255 9.57661 18.6122 9.49182 18.9344 9.18658C19.5958 8.55067 19.4177 7.49082 18.5953 7.16015C18.1883 6.99905 17.9594 6.99057 17.6202 7.14319Z" fill="black"/>
<path d="M30.1004 8.1004C28.6844 8.55826 28.1757 8.76175 28.2011 8.84654C28.2265 8.90589 28.5996 10.0505 29.032 11.3817C29.4644 12.7129 29.8545 13.8066 29.9053 13.8066C29.9816 13.8066 33.7038 12.6196 33.7462 12.5857C33.7632 12.5687 33.6869 12.3228 33.5936 12.0346C33.3816 11.4156 33.5088 11.4156 31.8131 11.9837C31.2111 12.1872 30.7108 12.3228 30.6939 12.2974C30.626 12.1702 30.4395 11.4241 30.4734 11.4071C30.4904 11.3902 31.0245 11.2121 31.652 11.0171C32.2794 10.8136 32.822 10.6271 32.8644 10.5932C32.8984 10.5593 32.8475 10.3049 32.7457 10.0166L32.5762 9.49941L32.2201 9.60963C32.025 9.66898 31.457 9.85552 30.9567 10.0166L30.0495 10.3134L29.9223 9.92335C29.846 9.71138 29.7866 9.50789 29.7866 9.47397C29.7866 9.44853 30.3462 9.23656 31.0415 9.01611C31.7283 8.79567 32.3218 8.59217 32.3642 8.54978C32.432 8.48195 32.2031 7.64255 32.0844 7.52384C32.059 7.48993 31.1602 7.75277 30.1004 8.1004Z" fill="black"/>
<path d="M63.7441 8.55019C62.9641 9.0674 63.0319 10.2714 63.8713 10.6868C64.414 10.9582 65.0668 10.8056 65.4229 10.3223C65.5162 10.1951 65.601 9.92376 65.6264 9.72026C65.6773 9.27089 65.5247 8.93174 65.1431 8.60106C64.804 8.32126 64.1342 8.29582 63.7441 8.55019Z" fill="black"/>
<path d="M51.0602 10.9333C50.4836 12.2476 50.0088 13.3583 50.0088 13.4007C50.0088 13.4431 50.2547 13.5872 50.5599 13.7229L51.111 13.9688L51.4841 13.1633C51.7724 12.5613 51.8996 12.3663 51.9928 12.4002C52.0691 12.4171 52.3744 12.5443 52.6796 12.6715C53.4512 13.0022 54.1634 13.0446 54.6213 12.7817C55.1809 12.468 55.5624 11.7897 55.5624 11.1029C55.5624 10.6875 55.2656 10.1363 54.9095 9.85653C54.6552 9.66152 52.3235 8.55079 52.1709 8.55079C52.1454 8.55079 51.6452 9.6276 51.0602 10.9333ZM53.5275 10.4416C54.1719 10.7638 54.333 10.9927 54.1719 11.3827C54.0023 11.8067 53.7225 11.849 53.0188 11.5608C52.6881 11.4251 52.3998 11.2979 52.3829 11.2725C52.332 11.1877 52.7983 10.1618 52.8916 10.1618C52.9425 10.1618 53.2223 10.2889 53.5275 10.4416Z" fill="black"/>
<path d="M13.609 10.3226C12.8035 10.8313 12.8035 11.959 13.609 12.4508C14.1686 12.7899 14.9232 12.5949 15.2963 12.0099C15.4235 11.7894 15.4574 11.6283 15.4319 11.2807C15.4065 10.8991 15.3556 10.7804 15.0928 10.5261C14.8384 10.2632 14.7197 10.2123 14.3382 10.1869C13.9905 10.1615 13.8294 10.1954 13.609 10.3226Z" fill="black"/>
<path d="M22.9024 11.374C22.6311 11.5266 22.4106 11.6708 22.4106 11.6962C22.4106 11.7301 22.86 12.5526 23.4111 13.5192C23.9707 14.4942 24.5473 15.5286 24.7084 15.8169C24.8695 16.1137 25.0221 16.3511 25.0476 16.3511C25.0984 16.3511 27.9049 14.7825 28.3204 14.5197L28.5154 14.4009L28.2441 13.9092C28.0999 13.6463 27.9643 13.4089 27.9558 13.4004C27.9473 13.3835 27.4131 13.6633 26.7857 14.0194C26.1498 14.3755 25.5987 14.6468 25.5563 14.6214C25.5224 14.596 25.0476 13.7905 24.5219 12.8408C23.9877 11.8827 23.5214 11.1027 23.4705 11.1027C23.4281 11.1027 23.1653 11.2214 22.9024 11.374Z" fill="black"/>
<path d="M57.5036 12.9166C57.0203 13.5949 56.3251 14.5615 55.969 15.0617C55.6044 15.562 55.3076 15.9944 55.3076 16.0198C55.3076 16.0538 56.0283 16.5964 56.9186 17.2238L58.5211 18.377L58.8094 17.9784C58.9705 17.758 59.1231 17.5376 59.157 17.4782C59.1909 17.4104 58.8094 17.0967 58.1056 16.5964L57.0034 15.8164L57.1984 15.5535C57.3086 15.4094 57.8343 14.6802 58.36 13.9341C58.8857 13.1879 59.352 12.5351 59.3944 12.4842C59.4368 12.4248 59.2927 12.2722 58.9789 12.0602C58.7076 11.8822 58.4617 11.7211 58.4363 11.7041C58.4024 11.6872 57.9869 12.2383 57.5036 12.9166Z" fill="black"/>
<path d="M67.4333 11.8745C67.2552 12.0017 67.0772 12.2221 66.9754 12.468C66.8313 12.8157 66.8228 12.9004 66.9246 13.2566C67.0602 13.7398 67.4503 14.062 67.9759 14.1214C68.9425 14.2316 69.6208 13.3074 69.2223 12.4172C69.0188 11.9508 68.7306 11.7558 68.1709 11.7049C67.8148 11.6795 67.6792 11.7134 67.4333 11.8745Z" fill="black"/>
<path d="M19.9093 13.383C19.8839 13.4254 19.3582 13.9002 18.7392 14.4343C18.1203 14.9685 17.4674 15.5281 17.2893 15.6892L16.9502 15.986L17.7557 16.9102C18.1881 17.4189 18.9851 18.3431 19.5193 18.9536L20.4859 20.0728L21.0879 19.5471C21.4185 19.2588 21.7068 19.0044 21.7322 18.979C21.7577 18.9536 22.1816 18.5805 22.6903 18.1396L23.5976 17.3511L23.2499 16.9356C23.0549 16.6982 22.8684 16.5201 22.826 16.5371C22.7836 16.554 22.2834 16.961 21.7238 17.4528L20.6893 18.3346L20.4095 18.0039C20.2485 17.8174 20.1213 17.6393 20.1213 17.6054C20.1213 17.5715 20.5622 17.1645 21.0963 16.6982L22.0714 15.8418L21.7153 15.4433C21.5203 15.2144 21.3422 15.0194 21.3337 15.0024C21.3253 14.9855 20.8674 15.3585 20.3163 15.8334C19.7652 16.2997 19.2988 16.6897 19.2734 16.6812C19.248 16.6812 19.1038 16.5286 18.9512 16.3506L18.6714 16.0284L19.5871 15.2483C20.9946 14.0443 20.8844 14.2309 20.4519 13.7306C20.0704 13.2812 19.9941 13.2388 19.9093 13.383Z" fill="black"/>
<path d="M10.176 13.9009C9.34513 14.3333 9.37056 15.6221 10.2015 16.0545C10.5491 16.2326 11.1257 16.2156 11.4563 16.0121C11.8125 15.7917 12.1007 15.1727 12.0329 14.7912C11.8633 13.9009 10.9815 13.4769 10.176 13.9009Z" fill="black"/>
<path d="M70.9098 15.5118C69.7821 15.9612 69.8584 17.4874 71.0285 17.8774C71.6559 18.0809 72.436 17.5891 72.5632 16.9108C72.7412 16.0036 71.7577 15.1727 70.9098 15.5118Z" fill="black"/>
<path d="M62.0227 17.953C60.6152 18.5042 59.4367 18.979 59.4112 19.0044C59.3773 19.0383 59.5638 19.2673 59.8097 19.5301L60.2676 20.0049L60.8017 19.7675L61.3444 19.5386L61.9294 20.166C62.8621 21.175 62.8282 21.0902 62.506 21.6752L62.2347 22.184L62.684 22.7012C62.9299 22.9895 63.1419 23.2099 63.1504 23.2014C63.1673 23.1845 63.7524 22.0229 64.4561 20.6154L65.7449 18.0463L65.2531 17.4952C64.9818 17.1899 64.7274 16.9441 64.6766 16.9441C64.6342 16.9525 63.4386 17.4019 62.0227 17.953ZM64.2102 18.4194C64.2102 18.4533 63.4386 19.9286 63.3963 19.988C63.3539 20.0388 62.6247 19.1994 62.6247 19.1062C62.6247 19.0553 62.9554 18.8772 63.3539 18.7077C64.083 18.4024 64.2102 18.36 64.2102 18.4194Z" fill="black"/>
<path d="M7.23329 17.877C6.66521 18.1738 6.44476 18.8352 6.71608 19.4371C6.95349 19.9883 7.30112 20.1833 7.94551 20.1409C8.38641 20.1155 8.4712 20.0815 8.71708 19.8102C9.11559 19.3863 9.17494 18.9199 8.91209 18.4112C8.58142 17.7583 7.87768 17.5294 7.23329 17.877Z" fill="black"/>
<path d="M14.6275 18.9032C13.7288 19.3526 13.1183 20.2259 12.9572 21.2943C12.9148 21.5825 12.9403 21.8369 13.0759 22.2693C13.3048 23.0409 13.8136 23.6175 14.5936 23.999C15.0939 24.2449 15.238 24.2788 15.84 24.2788C16.4081 24.2703 16.5861 24.2364 16.9423 24.0499C18.1547 23.4224 18.85 22.0234 18.5617 20.794L18.5024 20.5227L17.9004 20.7177L17.2899 20.9127L17.3153 21.3791C17.3577 22.3032 16.832 22.8883 15.9248 22.9476C15.4754 22.9731 15.3737 22.9476 15.043 22.7272C14.5428 22.388 14.2714 21.9302 14.2714 21.413C14.2714 21.1925 14.3308 20.8958 14.3901 20.7686C14.6021 20.3616 15.0769 20.014 15.4924 19.9546L15.8739 19.8953L15.9248 19.412C15.9587 19.1491 16.0011 18.8693 16.0181 18.7845C16.0605 18.6574 16.0011 18.6404 15.6026 18.6404C15.2634 18.6404 15.0176 18.7082 14.6275 18.9032Z" fill="black"/>
<path d="M73.4952 19.7258C73.0373 20.0141 72.9101 20.2261 72.8847 20.7433C72.8254 21.6081 73.3171 22.0829 74.1989 22.0151C74.6059 21.9812 74.7076 21.9303 74.9451 21.6675C75.6742 20.8704 75.2249 19.6919 74.148 19.5986C73.8598 19.5732 73.6817 19.6071 73.4952 19.7258Z" fill="black"/>
<path d="M66.2283 22.9897L63.8882 24.2784L64.1849 24.8465L64.4817 25.4146L64.7361 25.2874C64.8717 25.2196 65.4992 24.8719 66.1351 24.5243C66.771 24.1767 67.2967 23.9054 67.3051 23.9138C67.3221 23.9308 66.9575 24.7532 66.5081 25.7537L65.6857 27.5682L65.974 28.1109C66.1266 28.3991 66.2707 28.645 66.2792 28.645C66.3216 28.645 70.6797 26.254 70.8832 26.1183C70.968 26.0675 70.9171 25.9064 70.6882 25.4824L70.3914 24.9143L69.8233 25.2281C69.5096 25.3976 68.8907 25.7453 68.4498 25.9912C68.0089 26.237 67.6189 26.4405 67.5849 26.4405C67.5595 26.4405 67.9071 25.6181 68.3735 24.6091L69.2129 22.7692L68.9076 22.235C68.7381 21.9383 68.6024 21.6924 68.5939 21.7009C68.5854 21.7009 67.5256 22.2774 66.2283 22.9897Z" fill="black"/>
<path d="M4.85954 22.1838C4.24907 22.489 4.01166 23.2182 4.3169 23.8626C4.62214 24.4985 5.5972 24.719 6.13136 24.2696C6.47052 23.9728 6.64009 23.6421 6.64009 23.2352C6.64009 22.6247 6.0381 22.0312 5.41067 22.0312C5.275 22.0312 5.02064 22.099 4.85954 22.1838Z" fill="black"/>
<path d="M32.8399 23.354C32.7212 23.371 32.399 23.4304 32.1192 23.4812C30.7372 23.7271 29.0329 24.4648 27.8798 25.3127C22.6569 29.1875 22.1566 36.7251 26.8115 41.2189C27.9816 42.3466 29.2195 43.1012 30.7202 43.6014C31.212 43.7625 31.9157 43.9406 32.2888 43.9915C32.6619 44.0508 33.0519 44.1102 33.1621 44.1271L33.3487 44.161V50.6049V57.0488H33.8998H34.4509V50.6134V44.178L34.9427 44.1271C35.4344 44.0678 36.2399 43.9321 36.5028 43.8558C36.613 43.8219 36.7147 43.9406 36.9182 44.3476C37.8255 46.1451 39.2753 47.7221 40.9881 48.782C42.2938 49.5875 44.1422 50.2149 45.4988 50.3251L46.1517 50.376V53.7082V57.0488H46.7452H47.3387L47.3556 53.7167L47.3811 50.393L47.7202 50.3675C48.8479 50.2912 50.5437 49.8164 51.612 49.2738C54.2235 47.9595 56.2584 45.6364 57.1656 42.9316C57.9457 40.5999 57.9033 37.7935 57.0554 35.5974C55.6479 31.9516 52.6888 29.4249 48.9242 28.6363C47.3387 28.3057 45.4479 28.3989 43.8539 28.8992L43.3621 29.0518L43.0908 28.5685C41.6833 26.0418 39.0888 24.1511 36.1297 23.5067C35.5362 23.3795 33.2978 23.2693 32.8399 23.354ZM49.1447 29.8573C55.207 31.4513 58.2848 38.0393 55.6055 43.6947C54.1896 46.6792 51.1796 48.8159 47.8305 49.2144L47.3387 49.2653V46.1451L47.3302 43.0164L48.6529 41.7446L49.9756 40.4728L49.5686 40.0658L49.1532 39.6673L48.2459 40.5236L47.3387 41.3715L47.3217 39.3112L47.2963 37.2508H46.7452H46.1941L46.1517 40.9561L46.1093 44.6528L44.812 43.6862C44.0998 43.1521 43.4893 42.7196 43.4554 42.7196C43.4215 42.7196 43.2519 42.9231 43.0823 43.169L42.7771 43.6184L43.6335 44.2543C44.1083 44.6019 44.8714 45.1531 45.3207 45.4753L46.1432 46.0688V47.6628L46.1517 49.2568L45.6684 49.2059C42.3955 48.8159 39.6654 46.9675 38.0629 44.0593L37.7407 43.4827L38.3936 43.1945C40.4709 42.2448 42.3701 40.388 43.3537 38.3615C44.1846 36.6488 44.4135 35.5805 44.405 33.6049C44.3965 32.2907 44.3711 32.0787 44.1422 31.2309C44.0065 30.7137 43.8624 30.2304 43.8285 30.1541C43.7776 30.0353 43.8369 29.993 44.1337 29.9166C45.1681 29.6368 45.6345 29.586 46.9571 29.6114C48.0763 29.6368 48.4579 29.6792 49.1447 29.8573ZM34.5781 32.6044L34.5187 35.2159L35.1377 34.6224C35.4853 34.2917 35.9262 33.8762 36.1297 33.6897L36.4858 33.359L36.8843 33.7491L37.2828 34.1476L36.1128 35.2668C35.4768 35.8857 34.8579 36.4623 34.7392 36.5471L34.5357 36.7082V38.5905C34.5357 39.6249 34.5103 41.3037 34.4763 42.3127L34.4255 44.161H33.8828H33.3487V42.5925V41.0239L31.6953 39.7945C30.7881 39.1246 30.0419 38.5481 30.0419 38.5142C30.0419 38.37 30.6609 37.6408 30.7457 37.6917C30.7965 37.7256 31.3901 38.1665 32.0684 38.6668L33.3063 39.591L33.3571 38.8448C33.3911 38.4378 33.4165 36.2758 33.425 34.0458L33.4335 30.0014H34.0354H34.6374L34.5781 32.6044Z" fill="black"/>
<path d="M75.6152 24.2275C75.0726 24.5497 74.8776 25.1601 75.1065 25.7452C75.5728 26.9153 77.2092 26.7033 77.4805 25.4484C77.5569 25.0669 77.2771 24.4564 76.9125 24.236C76.5564 24.0155 75.9544 24.0155 75.6152 24.2275Z" fill="black"/>
<path d="M10.5145 24.8547C10.0567 25.6347 9.90406 25.4906 12.5664 26.8218C13.8721 27.4661 14.9574 27.9833 14.9744 27.9664C14.9998 27.941 15.1355 27.6866 15.2796 27.3983L15.5425 26.8641L15.1016 26.6437C14.8557 26.5165 13.7958 25.9824 12.7529 25.4567C11.71 24.9225 10.8198 24.4901 10.7859 24.4901C10.7519 24.4901 10.6332 24.6512 10.5145 24.8547Z" fill="black"/>
<path d="M3.18846 26.703C2.30666 26.9574 2.03534 28.102 2.69669 28.7634C3.47674 29.5434 4.77399 28.9923 4.77399 27.8901C4.77399 27.0507 3.99394 26.4656 3.18846 26.703Z" fill="black"/>
<path d="M9.47115 28.5519C9.10656 28.7214 8.75045 29.1115 8.58935 29.5354C8.44521 29.9085 7.74995 32.1554 7.76691 32.1808C7.80082 32.2062 12.7779 33.7324 12.8457 33.7324C12.939 33.7324 13.2781 32.6217 13.2018 32.5454C13.1594 32.5115 12.7355 32.3589 12.2522 32.2147C11.7096 32.0451 11.3874 31.9095 11.4128 31.8416C11.4298 31.7908 11.9639 31.5788 12.5998 31.3838L13.7529 31.0192L13.9649 30.3239C14.0836 29.9424 14.1599 29.6117 14.143 29.5863C14.1175 29.5693 13.6258 29.7304 13.0322 29.9424C12.4472 30.1628 11.93 30.3409 11.8876 30.3409C11.8452 30.3409 11.8113 30.1968 11.8113 30.0187C11.8028 28.8571 10.548 28.0686 9.47115 28.5519ZM10.4123 29.7983C10.6921 29.9085 10.726 30.2392 10.531 30.9259C10.4208 31.282 10.3275 31.5788 10.319 31.5958C10.3021 31.6212 9.36092 31.3584 9.28461 31.3075C9.22526 31.2736 9.60681 30.1205 9.73399 29.9339C9.86965 29.7474 10.1325 29.6965 10.4123 29.7983Z" fill="black"/>
<path d="M77.2677 28.8916C76.8014 29.1375 76.6318 29.4342 76.6318 30.0023C76.6318 30.4602 76.6573 30.528 76.9286 30.8078C77.7426 31.6472 79.0483 31.1385 79.0483 29.9853C79.0483 29.0527 78.0732 28.4592 77.2677 28.8916Z" fill="black"/>
<path d="M69.5108 29.5605C68.1118 29.959 66.9502 30.2982 66.9417 30.3066C66.8993 30.3321 67.9422 34.0203 68.027 34.156C68.0778 34.2408 68.1796 34.2408 68.5018 34.1645C69.2055 33.9949 69.1886 34.0797 68.7646 32.5959L68.3831 31.2647L68.5951 31.1799C68.7138 31.1376 68.9257 31.0952 69.0699 31.0782L69.3412 31.0612L69.6719 32.2483C69.8584 32.9011 70.0195 33.4523 70.0365 33.4692C70.0619 33.5116 70.9437 33.3081 71.0709 33.2318C71.1302 33.1894 71.0454 32.7824 70.825 31.9939C70.6384 31.341 70.4858 30.7645 70.4858 30.7221C70.4858 30.6288 71.2404 30.3914 71.3083 30.4592C71.3507 30.4932 71.7661 31.9091 72.012 32.8164L72.0968 33.1216L72.614 32.969C72.9023 32.8757 73.1482 32.7909 73.1736 32.774C73.199 32.74 72.1307 28.9076 72.0798 28.8568C72.0629 28.8398 70.9098 29.162 69.5108 29.5605Z" fill="black"/>
<path d="M1.75666 31.6047C1.49382 31.7234 1.35815 31.8591 1.22249 32.1389C1.01052 32.5798 1.00204 32.7918 1.16314 33.1648C1.60404 34.2077 3.05392 34.1738 3.4609 33.1055C3.63895 32.6476 3.53721 32.1813 3.18958 31.8506C2.7402 31.4267 2.31626 31.3504 1.75666 31.6047Z" fill="black"/>
<path d="M78.1324 33.8176C77.7593 34.0465 77.4965 34.6315 77.5728 35.0555C77.6915 35.6744 78.3104 36.1577 78.9209 36.0814C79.3873 36.0305 79.6755 35.8186 79.9045 35.3692C80.2012 34.7672 79.9808 34.0804 79.3873 33.7752C79.0396 33.5971 78.4631 33.6141 78.1324 33.8176Z" fill="black"/>
<path d="M8.38618 35.0124C7.64004 35.1905 7.20763 35.7671 7.07196 36.7591C6.9363 37.7002 6.85999 39.1586 6.94478 39.1586C6.98718 39.1586 8.08942 39.2518 9.39516 39.3705C10.6924 39.4893 11.8625 39.5825 11.9897 39.5825C12.2101 39.5825 12.2186 39.5656 12.278 38.9805C12.3119 38.6583 12.3203 38.37 12.3034 38.3531C12.2864 38.3361 11.8964 38.2937 11.4301 38.2513L10.5822 38.1835L10.6076 37.3611C10.65 36.3267 10.4974 35.8179 10.0395 35.4025C9.62409 35.0294 8.97122 34.8768 8.38618 35.0124ZM9.27645 36.4538C9.43755 36.6149 9.45451 36.7082 9.42059 37.2932C9.41211 37.6578 9.36972 37.9885 9.33581 38.0139C9.30189 38.0479 9.02209 38.0479 8.71685 38.0139L8.16573 37.9546V37.5646C8.17421 37.005 8.30139 36.5132 8.47097 36.386C8.6999 36.2249 9.07296 36.2503 9.27645 36.4538Z" fill="black"/>
<path d="M72.9519 35.2503L72.4855 35.3012L72.511 35.8947C72.5194 36.2169 72.5534 36.573 72.5703 36.6663C72.6212 36.8783 72.5873 36.8867 70.4421 37.0394C69.7893 37.0817 69.0686 37.1411 68.8312 37.1665L68.4072 37.2174L68.4327 37.8109C68.4496 38.167 68.5005 38.4214 68.5598 38.4468C68.6192 38.4638 69.5603 38.4044 70.6541 38.3197C71.7479 38.2349 72.6551 38.167 72.6636 38.1755C72.6721 38.184 72.706 38.5486 72.7399 38.981L72.7992 39.7695L73.3588 39.7102C73.6641 39.6763 73.9354 39.6339 73.9524 39.6169C73.9693 39.6 73.9185 38.5995 73.8252 37.4039C73.6895 35.598 73.6386 35.2164 73.5369 35.2079C73.4691 35.2079 73.2062 35.2249 72.9519 35.2503Z" fill="black"/>
<path d="M1.31511 36.4208C1.20489 36.4377 0.992915 36.5903 0.831818 36.7514C0.145034 37.4382 0.45875 38.5744 1.40838 38.8287C2.15451 39.0322 2.90913 38.4302 2.90913 37.6417C2.90913 36.7854 2.18843 36.2342 1.31511 36.4208Z" fill="black"/>
<path d="M78.7096 38.7429C77.5904 39.1923 77.6667 40.7778 78.8198 41.0915C79.4981 41.2781 80.2442 40.8117 80.3629 40.108C80.5156 39.2008 79.5575 38.4038 78.7096 38.7429Z" fill="black"/>
<path d="M1.03525 41.5584C0.00931785 42.2367 0.49261 43.8223 1.72204 43.8223C2.0951 43.8223 2.58688 43.5425 2.76493 43.2287C2.98538 42.8557 2.9769 42.3046 2.74797 41.9315C2.40034 41.3719 1.58638 41.1854 1.03525 41.5584Z" fill="black"/>
<path d="M78.2429 43.8736C77.8105 44.0855 77.6494 44.3908 77.6494 44.9843C77.6494 45.4252 77.6833 45.5439 77.8614 45.7304C78.5143 46.4257 79.5148 46.3239 79.9133 45.5185C80.4559 44.4501 79.3113 43.3309 78.2429 43.8736Z" fill="black"/>
<path d="M1.8492 46.3662C1.75594 46.4001 1.5694 46.5527 1.42526 46.7053C1.19633 46.9427 1.1709 47.0275 1.1709 47.5108C1.1709 48.028 1.18786 48.0789 1.48461 48.3672C1.74746 48.6385 1.85768 48.6894 2.24771 48.7148C2.59534 48.7402 2.75644 48.7063 2.97688 48.5791C3.78237 48.0704 3.78237 46.9427 2.97688 46.4509C2.6886 46.2729 2.15444 46.239 1.8492 46.3662Z" fill="black"/>
<path d="M77.4795 48.655C77.3354 48.6974 77.1065 48.85 76.9708 48.9942C76.7758 49.1977 76.7249 49.3333 76.6995 49.7318C76.6401 50.5543 77.098 51.063 77.8696 51.063C78.3359 51.063 78.6327 50.8849 78.9464 50.4356C79.5484 49.5453 78.5479 48.3328 77.4795 48.655Z" fill="black"/>
<path d="M3.22235 51.1559C2.64579 51.3509 2.3999 51.7071 2.3999 52.326C2.3999 53.0552 3.02733 53.6233 3.73955 53.5385C4.20589 53.4791 4.49417 53.2841 4.69766 52.8856C4.90963 52.4617 4.90115 52.0547 4.67222 51.7071C4.29068 51.1559 3.79043 50.9609 3.22235 51.1559Z" fill="black"/>
<path d="M75.7766 53.4376C75.1916 53.7004 74.9118 54.5229 75.2085 55.0994C75.5222 55.7099 76.2514 55.9473 76.8958 55.6421C77.3028 55.4471 77.5232 55.0486 77.5232 54.5144C77.5232 54.1244 77.4893 54.0396 77.201 53.7259C76.9212 53.4291 76.8195 53.3782 76.4549 53.3528C76.209 53.3274 75.9292 53.3613 75.7766 53.4376Z" fill="black"/>
<path d="M4.67254 56.0145C4.35883 56.3113 4.31643 56.396 4.291 56.803C4.26556 57.1591 4.291 57.3202 4.42666 57.5407C4.92691 58.3292 6.01219 58.3462 6.53788 57.5576C6.70746 57.3118 6.73289 57.1846 6.69898 56.7945C6.66506 56.3791 6.63115 56.3028 6.30047 56.0145C5.97828 55.7262 5.89349 55.6923 5.47803 55.6923C5.06257 55.6923 4.98626 55.7262 4.67254 56.0145Z" fill="black"/>
<path d="M73.5033 57.9732C73.0794 58.253 72.9183 58.6006 72.9607 59.1263C72.9861 59.4654 73.0539 59.652 73.2065 59.8131C73.6474 60.2794 74.1901 60.3896 74.7158 60.1183C75.1143 59.9233 75.3262 59.6011 75.3771 59.1517C75.428 58.7023 75.2754 58.3632 74.8938 58.0325C74.5547 57.7527 73.8849 57.7273 73.5033 57.9732Z" fill="black"/>
<path d="M61.5397 58.66L61.1242 59.0839L62.2604 60.2371C63.3541 61.3393 63.3881 61.3902 63.1083 61.3478C62.9472 61.3308 62.0399 61.2036 61.0903 61.068L59.3776 60.8306L58.9282 61.2715L58.4873 61.7124L60.395 63.6201L62.3028 65.5278L62.7691 65.0615L63.2354 64.5952L62.0908 63.4505C61.4634 62.8231 60.9886 62.3059 61.0309 62.3059C61.0818 62.3059 61.9806 62.4331 63.0404 62.5857L64.9651 62.874L65.3891 62.4415L65.8215 62.0091L63.9731 60.1184C62.9556 59.0839 62.0823 58.2361 62.0399 58.2361C61.9975 58.2361 61.7686 58.4311 61.5397 58.66Z" fill="black"/>
<path d="M17.8403 59.2532C16.6363 59.6941 15.746 61.0931 15.9241 62.2463C16.0089 62.8313 16.4413 63.6198 16.8822 64.0014C17.4927 64.544 17.8657 64.7051 18.6203 64.7475C19.358 64.7899 19.3241 64.8408 19.1799 64.0353L19.0867 63.5096L18.6373 63.4757C17.8318 63.4079 17.2383 62.7889 17.2383 62.0088C17.2383 61.4747 17.5011 61.0253 18.0099 60.6777C18.3405 60.4572 18.4423 60.4318 18.8917 60.4572C19.7395 60.5081 20.2907 61.0762 20.2907 61.9071V62.2717L20.8842 62.4243C21.2149 62.5091 21.5116 62.56 21.5371 62.5261C21.6473 62.4158 21.5879 61.4832 21.4438 61.0507C21.2403 60.4572 20.5196 59.6772 19.9006 59.3719C19.2647 59.0667 18.4677 59.0158 17.8403 59.2532Z" fill="black"/>
<path d="M7.25914 60.1775C6.86064 60.4233 6.69954 60.7964 6.74194 61.3475C6.77585 61.7036 6.8352 61.8563 7.02174 62.0513C7.53047 62.5854 8.33595 62.5939 8.81925 62.0852C9.30254 61.568 9.2771 60.8134 8.75989 60.3131C8.42074 59.9824 7.67461 59.9146 7.25914 60.1775Z" fill="black"/>
<path d="M70.9941 62.0352C70.0444 62.4507 69.9681 63.7225 70.8414 64.2567C71.8843 64.8926 73.1561 63.6207 72.5202 62.5779C72.215 62.0776 71.4858 61.8232 70.9941 62.0352Z" fill="black"/>
<path d="M23.3682 63.5272C22.6221 63.7646 22.0879 64.2394 21.6725 65.0449C21.469 65.4264 21.4351 65.5875 21.4351 66.2489C21.4351 66.8848 21.469 67.0713 21.6301 67.3935C21.9184 67.9362 22.4525 68.4703 23.046 68.7756C23.5039 69.0214 23.6226 69.0469 24.3179 69.0469C25.0046 69.0469 25.1233 69.0214 25.5303 68.7925C26.1323 68.4618 26.6834 67.8429 26.9039 67.2409C27.1498 66.588 27.1159 65.6554 26.8361 65.1042C26.1662 63.8239 24.6485 63.1287 23.3682 63.5272ZM24.9453 64.8923C25.7508 65.2992 25.9967 66.181 25.5218 66.9865C24.9877 67.9022 23.9617 68.0718 23.2071 67.3765C22.9697 67.1646 22.8001 66.9102 22.7493 66.7067C22.5712 66.0369 22.9697 65.1805 23.6141 64.8583C24.0889 64.6294 24.445 64.6294 24.9453 64.8923Z" fill="black"/>
<path d="M55.4941 63.7395C54.5615 64.0871 53.9171 64.6891 53.6034 65.52C53.137 66.7664 53.773 68.3435 55.0024 68.9879C55.3754 69.1829 55.5365 69.2168 56.1979 69.2168C56.8677 69.2168 57.0203 69.1914 57.4612 68.9709C58.0463 68.6826 58.6059 68.1569 58.8857 67.6313C59.0468 67.326 59.0807 67.1395 59.0807 66.4612C59.0807 65.537 58.9365 65.147 58.3515 64.4771C57.6647 63.6971 56.4523 63.3834 55.4941 63.7395ZM57.0712 65.1385C57.4528 65.4013 57.741 65.8677 57.8173 66.351C57.9869 67.4447 56.6388 68.3604 55.6552 67.8093C55.1889 67.5465 54.8667 67.0717 54.8158 66.546C54.765 66.0118 54.8328 65.7744 55.1126 65.4352C55.6213 64.8333 56.4523 64.7061 57.0712 65.1385Z" fill="black"/>
<path d="M10.5148 64.0359C9.94675 64.2394 9.69238 64.5955 9.69238 65.189C9.69238 66.0877 10.5063 66.6558 11.3458 66.3421C11.8036 66.164 12.0749 65.8079 12.1258 65.3246C12.2275 64.4259 11.3627 63.7306 10.5148 64.0359Z" fill="black"/>
<path d="M67.7123 65.8675C66.2793 66.5118 67.229 68.6909 68.6873 68.1143C69.1367 67.9278 69.3995 67.5717 69.4419 67.063C69.4928 66.5288 69.2724 66.1388 68.7891 65.8844C68.3312 65.6555 68.1701 65.6555 67.7123 65.8675Z" fill="black"/>
<path d="M50.3144 66.3423C50.0091 66.461 49.7547 66.5628 49.7378 66.5797C49.7039 66.6136 51.4505 71.3448 51.5607 71.5314C51.6116 71.6077 51.7557 71.5822 52.1797 71.4126C52.4764 71.2939 52.7393 71.1837 52.7478 71.1668C52.7817 71.1328 50.9842 66.283 50.9079 66.1897C50.8824 66.1643 50.6111 66.2321 50.3144 66.3423Z" fill="black"/>
<path d="M30.0663 67.2071C29.7356 67.6141 28.9301 68.5891 28.2688 69.3861C27.6159 70.1747 27.0732 70.8445 27.0732 70.8784C27.0732 70.9038 27.3446 71.0056 27.6837 71.1158L28.2942 71.3108L28.5062 71.0734C28.6333 70.9377 28.8029 70.7258 28.8962 70.5986L29.0658 70.3697L30.0578 70.7173L31.0413 71.0565L31.1007 71.6669L31.16 72.2859L31.7535 72.4724C32.0757 72.5826 32.364 72.6505 32.381 72.625C32.4234 72.5826 32.2877 68.9028 32.1944 67.5971L32.1436 66.9103L31.4907 66.6899C31.1346 66.5627 30.8039 66.4609 30.7615 66.4609C30.7107 66.4609 30.4054 66.7916 30.0663 67.2071ZM31.0583 68.8774C31.0583 69.3692 31.0244 69.7677 30.9905 69.7677C30.8294 69.7677 29.8628 69.4031 29.8882 69.3522C29.956 69.1996 30.9396 67.9871 30.9989 67.9871C31.0328 67.9871 31.0583 68.3856 31.0583 68.8774Z" fill="black"/>
<path d="M45.9393 67.5795C44.8201 67.8169 43.8959 68.0119 43.8874 68.0289C43.845 68.0543 44.057 69.0463 44.1079 69.1142C44.1418 69.1481 44.4809 69.1142 44.8625 69.0378C45.2779 68.9531 45.5916 68.9276 45.634 68.97C45.668 69.0124 45.8799 69.9196 46.1004 70.988C46.3123 72.0648 46.5074 72.9466 46.5243 72.9635C46.5328 72.9805 46.8211 72.9296 47.1602 72.8533C47.7198 72.7261 47.7707 72.6922 47.7283 72.5311C47.7029 72.4378 47.5333 71.59 47.3468 70.6573C47.1517 69.7246 46.9822 68.8767 46.9567 68.7835C46.9228 68.6309 46.9652 68.5969 47.2535 68.5461C48.5338 68.3426 48.5168 68.3595 48.3473 67.5625C48.2794 67.2573 48.2201 67.1386 48.1183 67.1471C48.042 67.1555 47.0585 67.3506 45.9393 67.5795Z" fill="black"/>
<path d="M13.8472 67.664C12.3889 68.4102 13.4233 70.5723 14.8986 69.86C15.5769 69.5294 15.8228 68.656 15.3904 68.0795C14.9749 67.5199 14.4238 67.3673 13.8472 67.664Z" fill="black"/>
<path d="M35.4679 67.8421C35.4679 67.893 35.3322 69.1055 35.1796 70.5299C35.0185 71.9459 34.8913 73.116 34.8998 73.1244C34.9337 73.1499 38.817 73.5653 38.8425 73.5399C38.8509 73.5314 38.8933 73.2686 38.9272 72.9633C39.012 72.302 39.1307 72.3698 37.5706 72.2172C36.9771 72.1578 36.4514 72.09 36.4006 72.0561C36.3412 72.0222 36.3836 71.4032 36.5277 70.1145C36.6464 69.08 36.7397 68.1643 36.7397 68.0711C36.7397 67.9439 36.6549 67.9015 36.3412 67.8591C36.1123 67.8337 35.8325 67.7913 35.7053 67.7743C35.5527 67.7489 35.4679 67.7743 35.4679 67.8421Z" fill="black"/>
<path d="M41.284 68.131L41.0381 68.1734L41.0974 69.7928C41.1229 70.6916 41.1737 71.8871 41.2077 72.4552L41.2585 73.498H41.8944H42.5304L42.4795 72.0312C42.4456 71.2342 42.3947 70.0133 42.3608 69.318L42.3099 68.0716L41.9199 68.0801C41.7079 68.0886 41.4196 68.114 41.284 68.131Z" fill="black"/>
<path d="M63.863 69.2923C63.3119 69.6654 63.1677 70.4455 63.5408 70.9966C64.075 71.7851 65.2196 71.7173 65.6605 70.8694C66.254 69.7587 64.9144 68.5801 63.863 69.2923Z" fill="black"/>
<path d="M17.6702 70.7597C17.0937 71.0395 16.8648 71.7263 17.1361 72.3452C17.577 73.3373 18.9336 73.3288 19.3745 72.3283C19.8493 71.26 18.7386 70.234 17.6702 70.7597Z" fill="black"/>
<path d="M60.1074 71.9724C59.6157 72.125 59.2935 72.5913 59.2935 73.1594C59.2935 73.8716 59.7937 74.3804 60.4974 74.3804C61.1927 74.3804 61.7099 73.8547 61.7099 73.1594C61.7099 72.3285 60.896 71.7265 60.1074 71.9724Z" fill="black"/>
<path d="M22.0713 73.252C21.2235 73.5912 20.986 74.7528 21.6474 75.3124C22.3681 75.9144 23.4025 75.6515 23.6908 74.7952C23.996 73.854 22.987 72.8875 22.0713 73.252Z" fill="black"/>
<path d="M55.7062 74.295C55.1382 74.4985 54.8838 74.8546 54.8838 75.4481C54.8838 76.3638 55.7147 76.9319 56.5626 76.5842C58.0209 76.0077 57.1815 73.7693 55.7062 74.295Z" fill="black"/>
<path d="M26.3868 75.389C25.8356 75.7536 25.6406 76.4997 25.9713 77.0423C26.3104 77.6019 27.0227 77.8054 27.6077 77.5256C28.0147 77.3306 28.2012 77.0084 28.2436 76.4658C28.2775 76.0503 28.2521 75.957 28.0486 75.7196C27.5823 75.1685 26.9124 75.0329 26.3868 75.389Z" fill="black"/>
<path d="M50.9416 76.0335C50.8483 76.0759 50.6618 76.2285 50.5262 76.3726C50.1955 76.7203 50.1277 77.3901 50.382 77.8056C50.8907 78.611 52.0099 78.611 52.5187 77.8056C52.6459 77.5851 52.6798 77.424 52.6543 77.0764C52.6289 76.6948 52.578 76.5761 52.3152 76.3218C52.0608 76.0589 51.9506 76.008 51.5606 75.9826C51.3147 75.9741 51.0349 75.9911 50.9416 76.0335Z" fill="black"/>
<path d="M31.4313 76.6438C31.0837 76.7456 30.6597 77.2289 30.5919 77.6019C30.4732 78.2039 30.8802 78.8398 31.4906 79.0264C32.3724 79.2892 33.2457 78.4244 32.9999 77.5256C32.8812 77.1102 32.542 76.7371 32.1774 76.6353C31.8213 76.5421 31.7874 76.5421 31.4313 76.6438Z" fill="black"/>
<path d="M46.1091 77.1438C46.0158 77.1777 45.8293 77.3303 45.6936 77.4745C45.363 77.8221 45.2951 78.4919 45.5495 78.9074C46.2193 79.9673 47.8473 79.5264 47.8473 78.2885C47.8473 77.4321 46.8976 76.8131 46.1091 77.1438Z" fill="black"/>
<path d="M36.2309 77.4581C35.8493 77.6023 35.4678 78.1619 35.4678 78.5858C35.4678 79.7304 36.8329 80.2731 37.6299 79.4337C38.1301 78.908 37.969 77.8566 37.3331 77.526C37.0957 77.3988 36.4852 77.3649 36.2309 77.4581Z" fill="black"/>
<path d="M41.1744 77.6442C40.0637 78.1614 40.2757 79.7809 41.4797 79.9843C42.5141 80.1539 43.3111 78.9075 42.6921 78.0851C42.2936 77.5509 41.734 77.3898 41.1744 77.6442Z" fill="black"/>
</svg>
