<svg width="118" height="40" viewBox="0 0 118 40" fill="none" xmlns="http://www.w3.org/2000/svg">
<path d="M114.149 12.4611C113.975 12.3894 113.821 12.328 113.657 12.2666C113.739 12.1334 113.801 12.0003 113.893 11.8775C114.323 11.2529 114.476 10.5566 114.487 9.82962C114.507 8.65212 114.435 4.16735 114.394 3.11272C114.364 2.31406 114.824 1.67923 115.582 1.12631C115.951 0.860092 116.627 0.307176 117.016 0.051196C117.051 0.0363207 117.085 0.0192208 117.118 0C117.118 0.051196 117.108 0.0716743 117.108 0.102392C116.964 0.726983 116.637 1.48468 116.637 2.98985C116.575 3.54276 116.637 8.34494 116.627 8.87738C116.627 9.77843 116.063 10.5361 115.388 11.2529C115.009 11.6522 114.599 12.0311 114.2 12.4201C114.19 12.4304 114.169 12.4406 114.149 12.4611Z" fill="#FFD0D8"/>
<path fill-rule="evenodd" clip-rule="evenodd" d="M63.8421 27.8608C61.4973 27.1441 60.2276 25.3727 60.2174 22.7924L60.33 16.6489C60.4017 14.2837 62.1526 12.6761 64.395 12.1539C66.791 11.601 69.32 12.4406 70.6511 14.2325C72.7911 17.1097 72.7809 23.0177 70.6307 25.9154C69.2074 27.8403 66.4019 28.639 63.8421 27.8608ZM60.2174 0.402313H57.0125L57.0228 30.4718H59.859C59.8886 30.206 59.9157 29.9544 59.944 29.693L59.9443 29.6896C59.9747 29.4084 60.0063 29.1159 60.0433 28.7824C60.2668 28.9363 60.4638 29.0734 60.6482 29.2018C60.8442 29.3381 61.026 29.4647 61.2106 29.5912C65.2858 32.3865 71.1529 31.3524 73.7229 27.2055C76.2213 23.161 76.3236 18.7787 74.4908 14.5089C72.0334 8.80569 65.7875 7.34149 60.7396 11.089C60.6597 11.149 60.5581 11.1786 60.4348 11.2145C60.3686 11.2338 60.2961 11.255 60.2174 11.2836V0.402313ZM47.4848 19.3513C47.4836 19.6721 47.4825 19.9934 47.4825 20.3146V22.6696C47.4825 25.3932 46.3766 27.0212 44.0011 27.8097C41.5028 28.6493 38.6256 27.9223 37.1306 26.0792C34.7552 23.1508 34.7552 17.0483 37.1306 14.1096C38.6051 12.287 41.4311 11.5191 43.8578 12.287C45.9978 12.9526 47.4415 15.0004 47.4825 17.4374C47.4893 18.0718 47.487 18.7108 47.4848 19.3513ZM47.4994 10.0985L47.4993 10.0989C47.4772 10.4925 47.4566 10.8601 47.4415 11.2222C47.1302 11.0424 46.8289 10.8516 46.5311 10.663C45.8788 10.2499 45.243 9.8472 44.5541 9.59413C40.1 7.88419 35.1647 9.94226 33.1578 14.3861C31.5503 17.9391 31.5708 21.6149 32.8916 25.2294C34.3046 29.0998 37.4276 31.0964 41.6666 31.1067C43.8578 31.1169 45.7316 30.349 47.4108 28.9052C47.4825 33.6255 46.8784 35.6836 44.2469 36.5949C42.6598 36.9942 41.5847 37.0556 40.1717 36.7382C38.3696 36.3799 37.0283 34.5163 36.3729 32.8678C35.6853 33.2152 35.0386 33.5473 34.4148 33.8677L34.4146 33.8677L34.4118 33.8692C34.1541 34.0015 33.9004 34.1318 33.6493 34.2603C34.8268 37.6188 37.315 39.5028 41.0113 39.9226C45.578 40.4448 49.2334 38.2946 50.329 34.3627C50.6126 33.2659 50.7537 32.1372 50.7488 31.0043C50.7795 25.9896 50.7757 20.9807 50.7718 15.9733C50.7705 14.3041 50.7693 12.6352 50.7693 10.9662C50.7693 10.7131 50.7506 10.46 50.7314 10.198C50.7187 10.0253 50.7057 9.8488 50.6976 9.6658H47.5234C47.5154 9.81397 47.5073 9.95788 47.4994 10.0985ZM84.4228 30.4514H81.1053V9.70676H84.1771C84.195 9.92174 84.211 10.1387 84.2284 10.3756L84.2284 10.376L84.2288 10.3813L84.2289 10.3826C84.2512 10.6855 84.2759 11.0211 84.3102 11.4269C86.1123 9.58389 88.1089 8.73404 90.638 9.67604C90.5287 10.2172 90.4274 10.7346 90.3286 11.239L90.3285 11.2397C90.2329 11.7274 90.1398 12.203 90.0442 12.6761C89.8894 12.7111 89.7317 12.7317 89.5731 12.7376C85.9894 12.3997 84.5559 13.5465 84.4638 17.0687C84.3758 20.402 84.4088 27.3766 84.4198 29.7125V29.7137V29.7144V29.7147L84.4198 29.7199C84.4216 30.0994 84.4228 30.3552 84.4228 30.4514ZM95.9164 15.3157C96.6748 15.527 97.4212 15.7349 98.1982 15.949C98.2136 15.8645 98.2289 15.7974 98.2443 15.7302L98.2596 15.6623C98.5463 14.6486 98.9661 13.7169 99.775 13.0001C101.116 11.8226 102.744 11.669 104.413 11.8636C105.116 11.949 105.799 12.157 106.43 12.4779C107.403 12.9899 107.925 13.8705 107.884 14.9558C107.854 16.0207 107.198 16.7272 106.246 17.1265C105.417 17.4747 104.557 17.7511 103.697 18.0173C103.066 18.2088 102.433 18.3895 101.799 18.5701L101.799 18.5701L101.799 18.5702L101.799 18.5702C100.807 18.8531 99.8141 19.1361 98.833 19.4611C97.7904 19.7931 96.8401 20.3647 96.0582 21.13C95.0036 22.1847 94.6349 23.4851 94.594 24.9185C94.5121 27.4067 95.9456 29.5671 98.3211 30.4375C99.8365 30.9904 101.413 31.0825 103.021 30.9187C105.12 30.7037 106.912 29.8948 108.233 28.236C108.247 28.2215 108.266 28.2116 108.293 28.1976C108.323 28.1819 108.363 28.1612 108.417 28.1234V30.3556H111.284V29.8231C111.284 25.5227 111.263 15.5702 111.192 14.9046C110.915 12.3448 109.615 10.5222 107.117 9.58024C105.529 8.98636 103.881 8.88397 102.212 9.01708C99.601 9.22187 97.5326 10.3687 96.1708 12.6008C95.6974 13.3736 95.384 14.2337 95.2493 15.1299L95.9164 15.3157ZM105.898 19.8809C106.686 19.6044 107.454 19.246 108.038 18.4986C108.068 18.5839 108.075 18.6758 108.059 18.7648C108.069 20.4235 108.079 22.0823 108.059 23.7513C108.038 25.4203 107.137 26.5875 105.704 27.3657C104.444 28.0517 103.041 28.1951 101.628 28.1234C100.986 28.0874 100.35 27.9739 99.7341 27.7855C97.3381 27.0483 97.2664 23.7103 98.874 22.5328C99.7136 21.9185 100.666 21.5703 101.639 21.2529C102.139 21.0908 102.641 20.9337 103.143 20.7768L103.144 20.7766L103.144 20.7766L103.144 20.7766C104.067 20.4877 104.989 20.1993 105.898 19.8809ZM1.32617 15.3158L1.32588 15.3157L0.65864 15.1299C0.793387 14.2337 1.10676 13.3736 1.58017 12.6008C2.94198 10.3687 5.0103 9.22187 7.62129 9.01708C9.29028 8.88397 10.9388 8.98636 12.5259 9.58024C15.0242 10.5222 16.3246 12.3448 16.6011 14.9046C16.6678 15.5749 16.6985 16.2482 16.6932 16.9217C16.7 19.7887 16.6978 22.6557 16.6955 25.5227C16.6943 26.9561 16.6932 28.3896 16.6932 29.8231V30.3556H13.6829C13.6829 30.3556 13.6727 28.2053 13.6419 28.236C12.3211 29.8948 10.5292 30.7037 8.43019 30.9187C6.82263 31.0825 5.2458 30.9904 3.7304 30.4375C1.3549 29.5671 -0.0785813 27.4067 0.00333223 24.9185C0.044289 23.4851 0.412899 22.1847 1.46754 21.13C2.24945 20.3647 3.19977 19.7931 4.24236 19.4611C5.22342 19.1361 6.21592 18.8531 7.20823 18.5702L7.20827 18.5702L7.20861 18.5701C7.84215 18.3895 8.47562 18.2088 9.10597 18.0173C9.96606 17.7511 10.8262 17.4747 11.6555 17.1265C12.6078 16.7272 13.2631 16.0207 13.2938 14.9558C13.3348 13.8705 12.8126 12.9899 11.8398 12.4779C11.2085 12.157 10.5258 11.949 9.82272 11.8636C8.15373 11.669 6.5257 11.8226 5.18436 13.0001C4.37547 13.7169 3.95566 14.6486 3.66896 15.6623C3.66311 15.6886 3.65726 15.7133 3.65141 15.738C3.63678 15.7996 3.62215 15.8613 3.60753 15.949C2.83064 15.735 2.08445 15.5271 1.32617 15.3158ZM13.4474 18.4883C12.8638 19.2358 12.0958 19.5942 11.3074 19.8706C10.3985 20.1891 9.47662 20.4775 8.55303 20.7664L8.553 20.7664L8.55247 20.7665C8.05087 20.9235 7.54875 21.0805 7.0479 21.2427C6.07517 21.5601 5.12293 21.9082 4.28331 22.5226C2.67576 23.7001 2.74743 27.0381 5.14341 27.7753C5.75893 27.9637 6.39495 28.0771 7.03766 28.1132C8.45066 28.1849 9.85343 28.0415 11.1129 27.3555C12.5463 26.5773 13.4474 25.41 13.4679 23.741C13.4883 22.0721 13.4781 20.4133 13.4679 18.7546C13.4847 18.6656 13.4776 18.5737 13.4474 18.4883ZM25.1597 1.34508C25.5458 1.04528 25.9669 0.71831 26.2571 0.530256C26.2817 0.517969 26.2592 30.4206 26.2592 30.4206H23.0645V4.25835C23.0267 3.28562 23.5888 2.51256 24.5103 1.83985C24.6846 1.71398 24.9152 1.53498 25.1597 1.34508Z" fill="#1A1A1A"/>
</svg>
