<svg width="26" height="26" viewBox="0 0 26 26" fill="none" xmlns="http://www.w3.org/2000/svg">
<rect x="0.555664" y="0.790283" width="25.0002" height="25" rx="6.50003" fill="white"/>
<path d="M18.2405 10.8625C18.1681 10.8325 18.1043 10.8069 18.0361 10.7812C18.0702 10.7257 18.0957 10.6701 18.1341 10.6188C18.3129 10.358 18.3767 10.0673 18.381 9.76383C18.3895 9.27223 18.3597 7.39987 18.3427 6.95957C18.3299 6.62614 18.5215 6.3611 18.8366 6.13026C18.9899 6.01912 19.2709 5.78828 19.4327 5.68141C19.4473 5.6752 19.4615 5.66806 19.4752 5.66003C19.4752 5.68141 19.471 5.68996 19.471 5.70278C19.4114 5.96354 19.2751 6.27988 19.2751 6.90827C19.2496 7.13911 19.2751 9.14399 19.2709 9.36628C19.2709 9.74246 19.0367 10.0588 18.7557 10.358C18.5981 10.5247 18.4278 10.6829 18.2618 10.8454C18.2575 10.8496 18.249 10.8539 18.2405 10.8625Z" fill="black"/>
<path d="M10.6381 11.2445C10.1278 11.1036 9.64364 10.9679 9.13862 10.8271C9.20714 10.3703 9.36648 9.93207 9.6072 9.53825C10.2997 8.40076 11.3514 7.81636 12.679 7.712C13.5276 7.64417 14.3659 7.69635 15.1729 7.99898C16.4433 8.47903 17.1045 9.4078 17.245 10.7123C17.2815 11.0514 17.2919 16.1232 17.2919 18.3146V18.586H15.8341V17.4485C15.782 17.485 15.756 17.4902 15.7404 17.5059C15.0688 18.3512 14.1576 18.7634 13.0903 18.873C12.2729 18.9564 11.4711 18.9095 10.7006 18.6277C9.49266 18.1842 8.76375 17.0832 8.80541 15.8153C8.82623 15.0848 9.01367 14.4221 9.54993 13.8847C9.94752 13.4947 10.4307 13.2034 10.9609 13.0342C11.7783 12.7629 12.6113 12.5489 13.4339 12.2985C13.8713 12.1628 14.3086 12.0219 14.7303 11.8445C15.2145 11.641 15.5477 11.281 15.5634 10.7383C15.5842 10.1853 15.3187 9.73652 14.824 9.47563C14.503 9.31207 14.1559 9.20612 13.7984 9.16256C12.9497 9.06342 12.1219 9.14169 11.4399 9.74174C11.0286 10.107 10.8151 10.5818 10.6693 11.0984C10.6589 11.1453 10.6485 11.1871 10.6381 11.2445ZM15.6415 12.5437C15.3447 12.9246 14.9542 13.1072 14.5533 13.2481C13.84 13.4986 13.1111 13.7125 12.3874 13.9473C11.8928 14.1091 11.4086 14.2865 10.9817 14.5995C10.1643 15.1996 10.2007 16.9006 11.419 17.2763C11.732 17.3723 12.0554 17.4301 12.3822 17.4485C13.1007 17.485 13.814 17.412 14.4544 17.0624C15.1833 16.6658 15.6415 16.071 15.6519 15.2205C15.6623 14.37 15.6571 13.5247 15.6519 12.6794C15.6604 12.634 15.6568 12.5872 15.6415 12.5437Z" fill="black"/>
</svg>
