<svg width="24" height="24" viewBox="0 0 24 24" fill="none" xmlns="http://www.w3.org/2000/svg">
<path d="M6.14027 11.8598L3.36027 14.6498C3.17027 14.8498 3.17027 15.1598 3.36027 15.3598L6.14027 18.1498C6.45027 18.4698 6.99027 18.2398 6.99027 17.7998V15.9998H13.0003C13.5503 15.9998 14.0003 15.5498 14.0003 14.9998C14.0003 14.4498 13.5503 13.9998 13.0003 13.9998H6.99027V12.2098C6.99027 11.7598 6.45027 11.5398 6.14027 11.8598ZM20.6503 8.64984L17.8703 5.85984C17.5603 5.53984 17.0203 5.76984 17.0203 6.20984V7.99984H11.0003C10.4503 7.99984 10.0003 8.44984 10.0003 8.99984C10.0003 9.54984 10.4503 9.99984 11.0003 9.99984H17.0103V11.7898C17.0103 12.2398 17.5503 12.4598 17.8603 12.1398L20.6403 9.34984C20.8403 9.15984 20.8403 8.83984 20.6503 8.64984Z" fill="#1A1A1A"/>
</svg>
