<svg width="25" height="24" viewBox="0 0 25 24" fill="none" xmlns="http://www.w3.org/2000/svg">
<path d="M22.3102 11.41L18.8302 8.29003C18.633 8.65732 18.3838 8.99414 18.0902 9.29003C17.8102 9.58003 17.5002 9.87003 17.2302 10.13C17.1831 10.1725 17.129 10.2063 17.0702 10.23C16.9082 10.2953 16.7873 10.2532 16.6902 10.23C16.593 10.2069 16.3502 10.1 16.3502 10.1L15.7902 9.89003L16.1002 9.37003L16.1802 9.25003C16.2083 9.18826 16.2453 9.13098 16.2902 9.08003C16.5244 8.73208 16.6434 8.31929 16.6302 7.90003C16.6302 7.59003 16.6302 6.96003 16.6302 6.24003L13.2802 3.24003C13.0789 3.06149 12.8192 2.96289 12.5502 2.96289C12.2811 2.96289 12.0214 3.06149 11.8202 3.24003L2.68017 11.41C2.59957 11.4831 2.54293 11.5789 2.51767 11.6847C2.49242 11.7906 2.49973 11.9016 2.53865 12.0032C2.57756 12.1048 2.64627 12.1923 2.73576 12.2542C2.82526 12.3161 2.93136 12.3495 3.04017 12.35H4.50017V17.19C4.41951 18.0331 4.49408 18.8838 4.72017 19.7C4.90318 20.1132 5.20634 20.4616 5.59017 20.7C6.25649 20.978 6.98277 21.0813 7.70017 21H17.3002C18.0142 21.094 18.7403 21.0045 19.4102 20.74C19.794 20.5016 20.0972 20.1532 20.2802 19.74C20.5112 18.9111 20.5858 18.0463 20.5002 17.19V12.35H21.9502C22.059 12.3495 22.1651 12.3161 22.2546 12.2542C22.3441 12.1923 22.4128 12.1048 22.4517 12.0032C22.4906 11.9016 22.4979 11.7906 22.4727 11.6847C22.4474 11.5789 22.3908 11.4831 22.3102 11.41Z" fill="#1A1A1A"/>
<path d="M16.8475 9.8114C16.7244 9.76072 16.6158 9.71727 16.5 9.67383C16.5579 9.57971 16.6014 9.48559 16.6665 9.3987C16.9706 8.95705 17.0792 8.46471 17.0865 7.95065C17.1009 7.11802 17.0503 3.94679 17.0213 3.20104C16.9996 2.6363 17.3254 2.1874 17.8612 1.79643C18.1218 1.60818 18.5997 1.21721 18.8748 1.0362C18.8997 1.02568 18.9239 1.01359 18.9472 1C18.9472 1.0362 18.94 1.05068 18.94 1.0724C18.8386 1.51406 18.6069 2.04984 18.6069 3.11416C18.5635 3.50513 18.6069 6.90081 18.5997 7.27731C18.5997 7.91445 18.2015 8.45023 17.7236 8.95705C17.4557 9.23942 17.1661 9.50731 16.8837 9.78244C16.8765 9.78968 16.862 9.79692 16.8475 9.8114Z" fill="#1A1A1A"/>
</svg>
