<svg width="25" height="24" viewBox="0 0 25 24" fill="none" xmlns="http://www.w3.org/2000/svg">
<rect x="2.5" y="2" width="20" height="20" rx="5" fill="#1A1A1A"/>
<path d="M17.3916 10.0087C17.3234 9.98054 17.2633 9.9564 17.1992 9.93226C17.2313 9.87995 17.2553 9.82765 17.2914 9.77937C17.4597 9.53395 17.5198 9.26036 17.5238 8.9747C17.5318 8.51202 17.5038 6.7498 17.4877 6.3354C17.4757 6.02158 17.656 5.77213 17.9526 5.55487C18.0968 5.45026 18.3613 5.233 18.5136 5.13242C18.5274 5.12658 18.5407 5.11986 18.5537 5.1123C18.5537 5.13242 18.5497 5.14047 18.5497 5.15254C18.4936 5.39796 18.3653 5.69569 18.3653 6.28712C18.3413 6.50438 18.3653 8.39132 18.3613 8.60053C18.3613 8.95459 18.1409 9.25231 17.8764 9.53395C17.7282 9.69086 17.5679 9.83972 17.4116 9.99261C17.4076 9.99663 17.3996 10.0007 17.3916 10.0087Z" fill="white"/>
<path d="M10.2352 10.369C9.75502 10.2364 9.29931 10.1087 8.82399 9.97612C8.88848 9.54628 9.03845 9.13379 9.26501 8.76313C9.91672 7.69256 10.9066 7.14253 12.1561 7.04432C12.9548 6.98047 13.7437 7.02958 14.5032 7.31442C15.6989 7.76622 16.3212 8.64036 16.4535 9.86809C16.4878 10.1873 16.4976 14.9607 16.4976 17.0233V17.2786H15.1256V16.2081C15.0766 16.2424 15.0521 16.2473 15.0374 16.2621C14.4052 17.0576 13.5477 17.4456 12.5432 17.5487C11.7739 17.6273 11.0193 17.5831 10.294 17.3179C9.1572 16.9005 8.47118 15.8643 8.51038 14.6709C8.52998 13.9834 8.70639 13.3597 9.21111 12.8539C9.5853 12.4868 10.0401 12.2127 10.539 12.0534C11.3084 11.7981 12.0924 11.5967 12.8666 11.361C13.2782 11.2333 13.6898 11.1007 14.0867 10.9338C14.5425 10.7422 14.8561 10.4034 14.8708 9.89264C14.8904 9.37208 14.6404 8.94975 14.1749 8.7042C13.8728 8.55026 13.5461 8.45054 13.2096 8.40955C12.4109 8.31624 11.6318 8.3899 10.9899 8.95466C10.6027 9.29842 10.4018 9.74531 10.2646 10.2315C10.2548 10.2757 10.245 10.315 10.2352 10.369ZM14.9443 11.5918C14.665 11.9503 14.2974 12.1222 13.9201 12.2548C13.2488 12.4905 12.5628 12.6919 11.8817 12.9128C11.4162 13.0651 10.9605 13.2321 10.5586 13.5267C9.78932 14.0915 9.82362 15.6924 10.9703 16.046C11.2648 16.1364 11.5692 16.1908 11.8768 16.2081C12.553 16.2424 13.2243 16.1737 13.827 15.8447C14.513 15.4714 14.9443 14.9116 14.9541 14.1111C14.9639 13.3106 14.959 12.5151 14.9541 11.7195C14.9621 11.6768 14.9587 11.6328 14.9443 11.5918Z" fill="white"/>
</svg>
