<svg width="61" height="60" viewBox="0 0 61 60" fill="none" xmlns="http://www.w3.org/2000/svg">
<path d="M31.2014 0.0600301C30.9597 0.155417 30.7054 0.428858 30.6227 0.670504C30.4128 1.30641 31.036 1.9932 31.6974 1.85966C31.9963 1.79607 32.3206 1.49719 32.3969 1.19831C32.5813 0.460654 31.8818 -0.207052 31.2014 0.0600301Z" fill="white"/>
<path d="M27.4048 0.24448C26.5908 0.613308 26.7498 1.84062 27.6337 1.99323C27.9453 2.04411 28.3586 1.87877 28.5367 1.63076C28.8737 1.16655 28.6957 0.473408 28.1933 0.238121C27.8563 0.0918612 27.7418 0.0918612 27.4048 0.24448Z" fill="white"/>
<path d="M34.718 0.498735C34.2029 0.810331 34.1393 1.54799 34.6036 1.95497C34.9024 2.21569 35.2077 2.26657 35.5829 2.11395C36.098 1.9041 36.3078 1.24275 36.0026 0.778535C35.7482 0.384271 35.125 0.250729 34.718 0.498735Z" fill="white"/>
<path d="M23.6466 0.880332C23.3731 1.05203 23.1887 1.36362 23.1887 1.67522C23.1887 2.16487 23.6148 2.59729 24.0981 2.59729C24.3842 2.59729 24.6195 2.48283 24.8421 2.24754C24.9756 2.10128 25.0011 2.01861 25.0011 1.67522C25.0011 1.33183 24.9756 1.24916 24.8421 1.1029C24.4987 0.734072 24.0281 0.651404 23.6466 0.880332Z" fill="white"/>
<path d="M38.5461 1.21098C38.1073 1.36996 37.9166 1.70063 37.9547 2.203C37.9801 2.50824 38.0183 2.58455 38.2091 2.76261C38.5207 3.04877 38.8704 3.09964 39.252 2.90886C39.4745 2.80712 39.5763 2.70537 39.6653 2.50824C39.8116 2.19029 39.8116 2.03767 39.6907 1.72607C39.519 1.30001 38.9722 1.05201 38.5461 1.21098Z" fill="white"/>
<path d="M20.2002 1.87881C20.1493 1.89789 20.0349 1.9742 19.9586 2.0505C19.4562 2.502 19.5452 3.27145 20.1366 3.56397C20.5691 3.78018 21.0523 3.64664 21.3321 3.2333C21.4593 3.04888 21.4784 2.9535 21.4593 2.6737C21.4339 2.38754 21.3957 2.29851 21.1986 2.10774C21.0078 1.9106 20.9252 1.87245 20.6326 1.85973C20.4482 1.84701 20.2511 1.85337 20.2002 1.87881Z" fill="white"/>
<path d="M42.1071 2.45097C41.3949 2.62903 41.1977 3.64648 41.7891 4.1107C42.3233 4.53676 43.1754 4.18065 43.2644 3.49387C43.3535 2.84524 42.7366 2.292 42.1071 2.45097Z" fill="white"/>
<path d="M16.9762 3.36045C16.353 3.50035 16.035 4.20621 16.3593 4.74673C16.4929 4.97566 16.8999 5.20459 17.1733 5.20459C17.8601 5.20459 18.3243 4.34611 17.9428 3.76743C17.7456 3.4622 17.3259 3.2905 16.9762 3.36045Z" fill="white"/>
<path d="M45.2551 4.23167C44.5556 4.59414 44.5747 5.59252 45.2933 5.91047C45.6049 6.05037 45.8465 6.0313 46.1581 5.85324C46.3743 5.72606 46.5905 5.33815 46.5905 5.08379C46.5905 4.82307 46.387 4.42244 46.1835 4.2889C45.9292 4.12356 45.5158 4.09813 45.2551 4.23167Z" fill="white"/>
<path d="M27.9139 4.95019C27.596 5.01378 27.2844 5.17276 27.0809 5.35717C26.6103 5.78323 26.5531 6.5972 26.96 7.03598C27.1953 7.29034 27.437 7.37301 28.1937 7.46204C28.588 7.50655 28.9568 7.58286 29.0077 7.62101C29.2048 7.78635 29.0649 8.05979 28.7342 8.16154C28.4544 8.24421 27.8503 8.19969 27.5133 8.07251C27.3225 8.00256 27.1635 7.94533 27.1572 7.95805C27.1508 7.96441 27.0554 8.14882 26.9473 8.36503C26.7248 8.81653 26.712 8.80381 27.3162 8.98186C27.7168 9.09633 28.6261 9.1154 29.0077 9.01366C29.3892 8.91191 29.7708 8.64483 29.9552 8.35867C30.0887 8.15518 30.1205 8.028 30.1205 7.71004C30.1205 6.95967 29.7135 6.63535 28.6198 6.52725C27.8694 6.45094 27.6532 6.34919 27.7359 6.10119C27.8312 5.80231 28.4735 5.68785 29.0776 5.87226C29.2493 5.92313 29.421 5.96765 29.4528 5.96765C29.51 5.96765 29.8026 5.3381 29.8026 5.21091C29.8026 5.01378 28.4735 4.82937 27.9139 4.95019Z" fill="white"/>
<path d="M32.7403 4.9502C32.1044 5.08374 31.7038 5.5098 31.6593 6.08848C31.6084 6.80706 31.8946 7.11229 32.9311 7.43661C33.5352 7.62102 33.7451 7.74184 33.7451 7.90082C33.7451 8.01529 33.5543 8.17426 33.3508 8.22514C33.1092 8.28873 32.4224 8.09159 32.1044 7.87539C31.9582 7.76728 31.8246 7.68461 31.8119 7.68461C31.7992 7.68461 31.6656 7.84359 31.5194 8.03436C31.2078 8.43499 31.2205 8.46042 31.6974 8.72115C32.3079 9.05182 33.2554 9.18536 33.8595 9.02002C34.1838 8.93736 34.559 8.6194 34.6735 8.3396C34.7244 8.22514 34.7625 7.97713 34.7625 7.79272C34.7625 7.17588 34.4382 6.87701 33.4271 6.56541C32.6767 6.33648 32.5241 6.1775 32.7976 5.9295C33.0074 5.74508 33.5161 5.78324 34.0376 6.02489C34.2665 6.13299 34.47 6.22202 34.4827 6.22202C34.5145 6.22202 34.9533 5.56703 34.9533 5.51616C34.9533 5.44621 34.3492 5.15369 33.9994 5.0583C33.5225 4.92476 33.0646 4.88661 32.7403 4.9502Z" fill="white"/>
<path d="M13.6185 5.35715C13.5104 5.40166 13.345 5.5352 13.2497 5.64331C12.9126 6.04393 13.0652 6.78159 13.5295 7.02323C13.8474 7.18221 14.3625 7.11862 14.6041 6.88969C15.1002 6.41276 14.9666 5.61787 14.3498 5.36987C14.0445 5.24904 13.8728 5.24268 13.6185 5.35715Z" fill="white"/>
<path d="M22.9791 6.07555C21.9171 6.41894 21.5356 6.57156 21.5546 6.63515C21.5737 6.67966 21.8535 7.53814 22.1778 8.53652C22.5021 9.5349 22.7947 10.3552 22.8328 10.3552C22.89 10.3552 25.6817 9.46495 25.7135 9.43951C25.7262 9.4268 25.669 9.24238 25.599 9.02617C25.44 8.56196 25.5354 8.56196 24.2636 8.98802C23.8121 9.14064 23.4369 9.24238 23.4242 9.2233C23.3733 9.12792 23.2334 8.56832 23.2589 8.5556C23.2716 8.54288 23.6722 8.40934 24.1428 8.26308C24.6134 8.11046 25.0203 7.97056 25.0521 7.94512C25.0776 7.91969 25.0394 7.72891 24.9631 7.5127L24.8359 7.1248L24.5688 7.20747C24.4226 7.25198 23.9965 7.39188 23.6213 7.5127L22.9409 7.73527L22.8455 7.44275C22.7883 7.28378 22.7438 7.13116 22.7438 7.10572C22.7438 7.08664 23.1635 6.92767 23.6849 6.76233C24.2 6.59699 24.6452 6.44437 24.677 6.41258C24.7278 6.36171 24.5561 5.73215 24.4671 5.64313C24.448 5.61769 23.774 5.81482 22.9791 6.07555Z" fill="white"/>
<path d="M48.2119 6.41276C47.6269 6.80067 47.6778 7.70366 48.3073 8.01526C48.7143 8.21875 49.2039 8.10429 49.471 7.74182C49.541 7.64643 49.6046 7.44294 49.6236 7.29032C49.6618 6.95329 49.5473 6.69892 49.2612 6.45092C49.0068 6.24107 48.5044 6.22199 48.2119 6.41276Z" fill="white"/>
<path d="M38.6987 8.19976C38.2663 9.18542 37.9102 10.0185 37.9102 10.0503C37.9102 10.0821 38.0946 10.1902 38.3235 10.2919L38.7368 10.4763L39.0166 9.8722C39.2329 9.42071 39.3282 9.27445 39.3982 9.29988C39.4554 9.3126 39.6843 9.40799 39.9133 9.50338C40.492 9.75138 41.0261 9.78318 41.3695 9.58604C41.7892 9.35076 42.0754 8.84203 42.0754 8.32694C42.0754 8.01534 41.8528 7.602 41.5857 7.39215C41.3949 7.24589 39.6462 6.41285 39.5317 6.41285C39.5127 6.41285 39.1375 7.22046 38.6987 8.19976ZM40.5492 7.83093C41.0325 8.07258 41.1533 8.24427 41.0325 8.53679C40.9053 8.85475 40.6954 8.88654 40.1676 8.67033C39.9196 8.56859 39.7034 8.4732 39.6907 8.45412C39.6526 8.39053 40.0023 7.62108 40.0723 7.62108C40.1104 7.62108 40.3203 7.71647 40.5492 7.83093Z" fill="white"/>
<path d="M10.6106 7.74193C10.0064 8.12347 10.0064 8.96923 10.6106 9.33806C11.0303 9.59243 11.5962 9.44617 11.876 9.00739C11.9714 8.84205 11.9968 8.72123 11.9778 8.46051C11.9587 8.17435 11.9205 8.08532 11.7234 7.89455C11.5326 7.69741 11.4436 7.65926 11.1574 7.64018C10.8967 7.6211 10.7759 7.64654 10.6106 7.74193Z" fill="white"/>
<path d="M17.5803 8.53027C17.3768 8.64473 17.2114 8.75284 17.2114 8.77191C17.2114 8.79735 17.5485 9.41418 17.9618 10.1391C18.3815 10.8704 18.8139 11.6462 18.9347 11.8624C19.0556 12.085 19.17 12.2631 19.1891 12.2631C19.2273 12.2631 21.3321 11.0866 21.6437 10.8895L21.79 10.8005L21.5865 10.4316C21.4784 10.2345 21.3766 10.0565 21.3703 10.0501C21.3639 10.0374 20.9633 10.2472 20.4927 10.5143C20.0158 10.7814 19.6024 10.9849 19.5707 10.9658C19.5452 10.9467 19.1891 10.3426 18.7948 9.63039C18.3942 8.91181 18.0445 8.32677 18.0063 8.32677C17.9745 8.32677 17.7774 8.4158 17.5803 8.53027Z" fill="white"/>
<path d="M43.5315 9.68757C43.1691 10.1963 42.6476 10.9212 42.3805 11.2964C42.1071 11.6716 41.8845 11.9959 41.8845 12.015C41.8845 12.0404 42.425 12.4474 43.0928 12.918L44.2946 13.7828L44.5108 13.484C44.6317 13.3186 44.7461 13.1533 44.7716 13.1088C44.797 13.0579 44.5108 12.8226 43.983 12.4474L43.1563 11.8624L43.3026 11.6653C43.3853 11.5572 43.7795 11.0103 44.1738 10.4507C44.5681 9.89106 44.9178 9.40141 44.9496 9.36326C44.9814 9.31875 44.8733 9.20428 44.638 9.0453C44.4345 8.91176 44.2501 8.79094 44.231 8.77822C44.2056 8.7655 43.894 9.17884 43.5315 9.68757Z" fill="white"/>
<path d="M50.9783 8.90552C50.8447 9.0009 50.7112 9.16624 50.6349 9.35065C50.5268 9.61138 50.5204 9.67497 50.5967 9.94205C50.6985 10.3045 50.991 10.5462 51.3853 10.5907C52.1102 10.6733 52.6189 9.9802 52.3201 9.3125C52.1674 8.96275 51.9512 8.81649 51.5315 8.77833C51.2644 8.75926 51.1627 8.78469 50.9783 8.90552Z" fill="white"/>
<path d="M15.3355 10.0375C15.3165 10.0693 14.9222 10.4254 14.458 10.826C13.9938 11.2266 13.5041 11.6463 13.3706 11.7672L13.1162 11.9897L13.7203 12.6829C14.0446 13.0644 14.6424 13.7576 15.043 14.2154L15.768 15.0548L16.2195 14.6605C16.4675 14.4443 16.6837 14.2536 16.7027 14.2345C16.7218 14.2154 17.0398 13.9356 17.4213 13.6049L18.1017 13.0135L17.841 12.7019C17.6948 12.5239 17.5549 12.3903 17.5231 12.4031C17.4913 12.4158 17.1161 12.721 16.6964 13.0898L15.9206 13.7512L15.7107 13.5032C15.5899 13.3633 15.4945 13.2297 15.4945 13.2043C15.4945 13.1789 15.8252 12.8736 16.2258 12.5239L16.9571 11.8816L16.69 11.5827C16.5438 11.411 16.4102 11.2648 16.4039 11.2521C16.3975 11.2393 16.0541 11.5191 15.6408 11.8753C15.2274 12.225 14.8777 12.5175 14.8586 12.5112C14.8395 12.5112 14.7314 12.3967 14.617 12.2632L14.4071 12.0215L15.0939 11.4365C16.1495 10.5335 16.0668 10.6734 15.7425 10.2982C15.4564 9.96117 15.3991 9.92937 15.3355 10.0375Z" fill="white"/>
<path d="M8.03536 10.4254C7.41217 10.7497 7.43124 11.7163 8.05443 12.0406C8.31516 12.1742 8.74758 12.1615 8.99558 12.0088C9.26267 11.8435 9.47887 11.3793 9.428 11.0931C9.30082 10.4254 8.63947 10.1075 8.03536 10.4254Z" fill="white"/>
<path d="M53.5858 11.6338C52.74 11.9708 52.7973 13.1154 53.6748 13.4079C54.1454 13.5606 54.7304 13.1917 54.8258 12.683C54.9594 12.0026 54.2217 11.3794 53.5858 11.6338Z" fill="white"/>
<path d="M46.9208 13.465C45.8652 13.8784 44.9813 14.2345 44.9622 14.2536C44.9368 14.279 45.0767 14.4507 45.2611 14.6478L45.6045 15.0039L46.0051 14.8259L46.4121 14.6542L46.8509 15.1248C47.5504 15.8815 47.5249 15.8179 47.2833 16.2567L47.0798 16.6382L47.4168 17.0261C47.6012 17.2423 47.7602 17.4077 47.7666 17.4013C47.7793 17.3886 48.2181 16.5174 48.7459 15.4618L49.7125 13.535L49.3436 13.1216C49.1402 12.8927 48.9494 12.7083 48.9112 12.7083C48.8794 12.7147 47.9828 13.0517 46.9208 13.465ZM48.5615 13.8148C48.5615 13.8402 47.9828 14.9467 47.951 14.9912C47.9192 15.0294 47.3723 14.3998 47.3723 14.3299C47.3723 14.2917 47.6203 14.1582 47.9192 14.031C48.4661 13.8021 48.5615 13.7703 48.5615 13.8148Z" fill="white"/>
<path d="M5.82853 13.4078C5.40247 13.6304 5.23714 14.1264 5.44063 14.5779C5.61868 14.9912 5.8794 15.1375 6.3627 15.1057C6.69337 15.0866 6.75696 15.0612 6.94138 14.8577C7.24025 14.5397 7.28477 14.19 7.08763 13.8084C6.83963 13.3188 6.31182 13.1471 5.82853 13.4078Z" fill="white"/>
<path d="M11.374 14.1772C10.6999 14.5142 10.2421 15.1692 10.1212 15.9705C10.0894 16.1867 10.1085 16.3774 10.2103 16.7018C10.382 17.2804 10.7635 17.7129 11.3485 17.999C11.7237 18.1834 11.8318 18.2089 12.2833 18.2089C12.7094 18.2025 12.8429 18.1771 13.11 18.0372C14.0194 17.5666 14.5408 16.5173 14.3246 15.5953L14.2801 15.3918L13.8286 15.538L13.3707 15.6843L13.3898 16.034C13.4216 16.7272 13.0273 17.166 12.3469 17.2105C12.0099 17.2296 11.9336 17.2105 11.6856 17.0451C11.3104 16.7908 11.1069 16.4474 11.1069 16.0595C11.1069 15.8941 11.1514 15.6716 11.1959 15.5762C11.3549 15.271 11.711 15.0102 12.0226 14.9657L12.3088 14.9212L12.3469 14.5587C12.3724 14.3616 12.4041 14.1518 12.4169 14.0882C12.4487 13.9928 12.4041 13.9801 12.1053 13.9801C11.8509 13.9801 11.6665 14.0309 11.374 14.1772Z" fill="white"/>
<path d="M55.5249 14.7942C55.1816 15.0104 55.0862 15.1694 55.0671 15.5573C55.0226 16.206 55.3914 16.5621 56.0528 16.5112C56.358 16.4858 56.4343 16.4476 56.6124 16.2505C57.1592 15.6527 56.8222 14.7688 56.0146 14.6988C55.7984 14.6798 55.6648 14.7052 55.5249 14.7942Z" fill="white"/>
<path d="M50.0749 17.2425L48.3198 18.2091L48.5424 18.6351L48.765 19.0612L48.9557 18.9658C49.0575 18.9149 49.5281 18.6542 50.005 18.3935C50.4819 18.1328 50.8762 17.9293 50.8825 17.9356C50.8953 17.9483 50.6218 18.5652 50.2848 19.3156L49.668 20.6764L49.8842 21.0834C49.9986 21.2996 50.1067 21.484 50.1131 21.484C50.1449 21.484 53.4135 19.6907 53.5661 19.589C53.6297 19.5508 53.5915 19.43 53.4198 19.1121L53.1973 18.686L52.7712 18.9213C52.5359 19.0485 52.0717 19.3092 51.741 19.4936C51.4103 19.678 51.1178 19.8306 51.0924 19.8306C51.0733 19.8306 51.334 19.2138 51.6838 18.4571L52.3133 17.0771L52.0844 16.6765C51.9572 16.454 51.8555 16.2695 51.8491 16.2759C51.8428 16.2759 51.0479 16.7083 50.0749 17.2425Z" fill="white"/>
<path d="M4.0481 16.6382C3.59024 16.8671 3.41219 17.414 3.64112 17.8973C3.87004 18.3742 4.60134 18.5396 5.00197 18.2026C5.25633 17.98 5.38351 17.732 5.38351 17.4267C5.38351 16.9689 4.93202 16.5237 4.46144 16.5237C4.3597 16.5237 4.16892 16.5746 4.0481 16.6382Z" fill="white"/>
<path d="M25.0333 17.5157C24.9442 17.5284 24.7026 17.5729 24.4927 17.611C23.4562 17.7955 22.178 18.3487 21.3132 18.9846C17.396 21.8907 17.0208 27.544 20.5119 30.9143C21.3895 31.7601 22.3179 32.326 23.4435 32.7012C23.8123 32.822 24.3401 32.9556 24.6199 32.9937C24.8997 33.0382 25.1922 33.0827 25.2749 33.0955L25.4148 33.1209V37.9538V42.7867H25.8282H26.2415V37.9602V33.1336L26.6103 33.0955C26.9792 33.051 27.5833 32.9492 27.7804 32.892C27.8631 32.8665 27.9394 32.9556 28.092 33.2608C28.7724 34.6089 29.8598 35.7917 31.1444 36.5866C32.1237 37.1907 33.51 37.6613 34.5274 37.744L35.0171 37.7821V40.2813V42.7867H35.4622H35.9073L35.9201 40.2876L35.9391 37.7948L36.1935 37.7758C37.0393 37.7185 38.3111 37.3624 39.1123 36.9554C41.0709 35.9698 42.5971 34.2274 43.2775 32.1988C43.8626 30.4501 43.8308 28.3452 43.1949 26.6982C42.1393 23.9638 39.9199 22.0688 37.0965 21.4774C35.9073 21.2294 34.4893 21.2993 33.2937 21.6745L32.9249 21.789L32.7214 21.4265C31.6658 19.5315 29.7199 18.1134 27.5006 17.6301C27.0555 17.5347 25.3767 17.4521 25.0333 17.5157ZM37.2618 22.3931C41.8086 23.5886 44.1169 28.5296 42.1075 32.7712C41.0455 35.0096 38.788 36.6121 36.2762 36.9109L35.9073 36.9491V34.6089L35.901 32.2624L36.893 31.3086L37.885 30.3547L37.5798 30.0495L37.2682 29.7506L36.5878 30.3928L35.9073 31.0288L35.8946 29.4835L35.8755 27.9382H35.4622H35.0489L35.0171 30.7172L34.9853 33.4897L34.0123 32.7648C33.4782 32.3642 33.0203 32.0399 32.9949 32.0399C32.9694 32.0399 32.8423 32.1925 32.7151 32.3769L32.4861 32.7139L33.1284 33.1909C33.4845 33.4516 34.0568 33.8649 34.3939 34.1066L35.0107 34.5517V35.7472L35.0171 36.9427L34.6546 36.9046C32.2 36.6121 30.1523 35.2258 28.9505 33.0446L28.7088 32.6122L29.1985 32.396C30.7565 31.6837 32.1809 30.2911 32.9186 28.7713C33.5418 27.4867 33.7134 26.6855 33.7071 25.2038C33.7007 24.2182 33.6817 24.0592 33.51 23.4233C33.4082 23.0354 33.3001 22.6729 33.2747 22.6157C33.2365 22.5266 33.281 22.4948 33.5036 22.4376C34.2794 22.2278 34.6292 22.1896 35.6212 22.2087C36.4606 22.2278 36.7467 22.2596 37.2618 22.3931ZM26.3369 24.4534L26.2924 26.412L26.7566 25.9669C27.0173 25.7189 27.348 25.4073 27.5006 25.2674L27.7677 25.0194L28.0666 25.3119L28.3654 25.6108L27.4879 26.4502C27.011 26.9144 26.5467 27.3468 26.4577 27.4104L26.3051 27.5312V28.943C26.3051 29.7188 26.286 30.9779 26.2606 31.7346L26.2224 33.1209H25.8154H25.4148V31.9445V30.768L24.1748 29.846C23.4944 29.3436 22.9348 28.9112 22.9348 28.8857C22.9348 28.7776 23.399 28.2308 23.4626 28.2689C23.5007 28.2943 23.9459 28.625 24.4546 29.0002L25.383 29.6933L25.4212 29.1337C25.4466 28.8285 25.4657 27.2069 25.472 25.5345L25.4784 22.5012H25.9299H26.3814L26.3369 24.4534Z" fill="white"/>
<path d="M57.1149 18.1709C56.7079 18.4125 56.5616 18.8704 56.7333 19.3091C57.0831 20.1867 58.3104 20.0277 58.5139 19.0866C58.5711 18.8004 58.3612 18.3425 58.0878 18.1772C57.8207 18.0119 57.3692 18.0119 57.1149 18.1709Z" fill="white"/>
<path d="M8.28946 18.6412C7.94607 19.2263 7.83161 19.1182 9.82837 20.1166C10.8077 20.5999 11.6216 20.9878 11.6344 20.975C11.6534 20.956 11.7552 20.7652 11.8633 20.549L12.0604 20.1484L11.7297 19.983C11.5453 19.8876 10.7504 19.487 9.96827 19.0927C9.1861 18.6921 8.51839 18.3678 8.49295 18.3678C8.46752 18.3678 8.37849 18.4886 8.28946 18.6412Z" fill="white"/>
<path d="M2.79515 20.0275C2.1338 20.2183 1.93031 21.0768 2.42632 21.5728C3.01136 22.1578 3.9843 21.7445 3.9843 20.9178C3.9843 20.2882 3.39927 19.8495 2.79515 20.0275Z" fill="white"/>
<path d="M7.50717 21.4139C7.23373 21.5411 6.96664 21.8336 6.84582 22.1516C6.73772 22.4314 6.21627 24.1165 6.22899 24.1356C6.25442 24.1547 9.98722 25.2993 10.0381 25.2993C10.108 25.2993 10.3624 24.4663 10.3052 24.409C10.2734 24.3836 9.95542 24.2691 9.59295 24.161C9.18597 24.0339 8.94433 23.9321 8.9634 23.8812C8.97612 23.8431 9.37675 23.6841 9.85368 23.5378L10.7185 23.2644L10.8775 22.743C10.9665 22.4568 11.0238 22.2088 11.011 22.1897C10.992 22.177 10.6231 22.2978 10.178 22.4568C9.73921 22.6221 9.35131 22.7557 9.31951 22.7557C9.28772 22.7557 9.26228 22.6476 9.26228 22.514C9.25592 21.6428 8.31477 21.0514 7.50717 21.4139ZM8.21303 22.3487C8.42288 22.4314 8.44832 22.6794 8.30206 23.1945C8.21939 23.4615 8.14944 23.6841 8.14308 23.6968C8.13036 23.7159 7.4245 23.5188 7.36727 23.4806C7.32275 23.4552 7.60891 22.5903 7.7043 22.4504C7.80605 22.3105 8.00318 22.2724 8.21303 22.3487Z" fill="white"/>
<path d="M58.3546 21.6683C58.0049 21.8527 57.8777 22.0753 57.8777 22.5014C57.8777 22.8448 57.8968 22.8956 58.1003 23.1055C58.7107 23.735 59.69 23.3535 59.69 22.4886C59.69 21.7891 58.9587 21.344 58.3546 21.6683Z" fill="white"/>
<path d="M52.5364 22.1706C51.4871 22.4695 50.6159 22.7239 50.6096 22.7302C50.5778 22.7493 51.36 25.5155 51.4236 25.6173C51.4617 25.6808 51.538 25.6808 51.7797 25.6236C52.3075 25.4964 52.2947 25.56 51.9768 24.4472L51.6906 23.4488L51.8496 23.3852C51.9386 23.3534 52.0976 23.3216 52.2057 23.3089L52.4092 23.2962L52.6572 24.1865C52.7971 24.6761 52.9179 25.0894 52.9307 25.1022C52.9497 25.134 53.6111 24.9813 53.7065 24.9241C53.751 24.8923 53.6874 24.5871 53.5221 23.9957C53.3822 23.506 53.2677 23.0736 53.2677 23.0418C53.2677 22.9719 53.8337 22.7938 53.8845 22.8447C53.9163 22.8701 54.2279 23.9321 54.4123 24.6125L54.4759 24.8414L54.8638 24.727C55.08 24.657 55.2645 24.5934 55.2835 24.5807C55.3026 24.5553 54.5014 21.681 54.4632 21.6428C54.4505 21.6301 53.5856 21.8717 52.5364 22.1706Z" fill="white"/>
<path d="M1.72081 23.7032C1.52368 23.7922 1.42194 23.894 1.32019 24.1038C1.16121 24.4345 1.15485 24.5935 1.27568 24.8733C1.60635 25.6554 2.69376 25.63 2.99899 24.8287C3.13254 24.4853 3.05623 24.1356 2.7955 23.8876C2.45847 23.5696 2.14051 23.5124 1.72081 23.7032Z" fill="white"/>
<path d="M59.0031 25.3629C58.7233 25.5346 58.5262 25.9734 58.5834 26.2914C58.6724 26.7556 59.1366 27.118 59.5945 27.0608C59.9443 27.0227 60.1605 26.8637 60.3322 26.5266C60.5547 26.0752 60.3894 25.5601 59.9443 25.3311C59.6835 25.1976 59.2511 25.2103 59.0031 25.3629Z" fill="white"/>
<path d="M6.69344 26.2596C6.13384 26.3931 5.80953 26.8255 5.70778 27.5696C5.60604 28.2754 5.5488 29.3692 5.6124 29.3692C5.64419 29.3692 6.47087 29.4391 7.45018 29.5282C8.42312 29.6172 9.30068 29.6871 9.39606 29.6871C9.5614 29.6871 9.56776 29.6744 9.61227 29.2356C9.63771 28.994 9.64407 28.7778 9.63135 28.7651C9.61863 28.7523 9.32611 28.7205 8.97636 28.6888L8.34045 28.6379L8.35953 28.021C8.39132 27.2452 8.27686 26.8637 7.93347 26.5521C7.62187 26.2723 7.13222 26.1578 6.69344 26.2596ZM7.36115 27.3406C7.48197 27.4614 7.49469 27.5314 7.46925 27.9702C7.46289 28.2436 7.4311 28.4916 7.40566 28.5107C7.38023 28.5361 7.17038 28.5361 6.94145 28.5107L6.52811 28.4662V28.1737C6.53447 27.754 6.62985 27.3851 6.75703 27.2898C6.92873 27.1689 7.20853 27.188 7.36115 27.3406Z" fill="white"/>
<path d="M55.1177 26.4376L54.768 26.4758L54.787 26.9209C54.7934 27.1626 54.8188 27.4296 54.8315 27.4996C54.8697 27.6586 54.8443 27.6649 53.2354 27.7794C52.7458 27.8112 52.2052 27.8557 52.0272 27.8748L51.7092 27.9129L51.7283 28.3581C51.741 28.6252 51.7792 28.8159 51.8237 28.835C51.8682 28.8477 52.5741 28.8032 53.3944 28.7396C54.2147 28.676 54.8951 28.6252 54.9015 28.6315C54.9079 28.6379 54.9333 28.9113 54.9587 29.2356L55.0032 29.827L55.4229 29.7825C55.6519 29.7571 55.8554 29.7253 55.8681 29.7126C55.8808 29.6998 55.8426 28.9495 55.7727 28.0528C55.671 26.6983 55.6328 26.4122 55.5565 26.4058C55.5056 26.4058 55.3085 26.4185 55.1177 26.4376Z" fill="white"/>
<path d="M1.3899 27.3152C1.30723 27.3279 1.14825 27.4424 1.02743 27.5632C0.51234 28.0783 0.747627 28.9304 1.45985 29.1212C2.01945 29.2738 2.58541 28.8223 2.58541 28.2309C2.58541 27.5887 2.04488 27.1753 1.3899 27.3152Z" fill="white"/>
<path d="M59.4357 29.0574C58.5963 29.3945 58.6536 30.5836 59.5184 30.8189C60.0271 30.9588 60.5867 30.609 60.6758 30.0812C60.7902 29.4008 60.0717 28.8031 59.4357 29.0574Z" fill="white"/>
<path d="M1.18 31.1688C0.410553 31.6775 0.773022 32.8667 1.69509 32.8667C1.97489 32.8667 2.34372 32.6568 2.47726 32.4216C2.6426 32.1418 2.63624 31.7284 2.46454 31.4486C2.20382 31.0289 1.59335 30.889 1.18 31.1688Z" fill="white"/>
<path d="M59.086 32.9049C58.7617 33.0639 58.6409 33.2928 58.6409 33.738C58.6409 34.0686 58.6663 34.1577 58.7998 34.2976C59.2895 34.819 60.0399 34.7427 60.3388 34.1386C60.7457 33.3374 59.8873 32.498 59.086 32.9049Z" fill="white"/>
<path d="M1.79047 34.7745C1.72052 34.7999 1.58062 34.9144 1.47251 35.0289C1.30082 35.2069 1.28174 35.2705 1.28174 35.633C1.28174 36.0209 1.29446 36.059 1.51703 36.2752C1.71416 36.4787 1.79683 36.5169 2.08934 36.536C2.35007 36.555 2.47089 36.5296 2.63623 36.4342C3.24034 36.0527 3.24034 35.2069 2.63623 34.8381C2.42002 34.7045 2.01939 34.6791 1.79047 34.7745Z" fill="white"/>
<path d="M58.5135 36.4915C58.4054 36.5233 58.2337 36.6378 58.1319 36.7459C57.9857 36.8985 57.9475 37.0002 57.9284 37.2991C57.8839 37.9159 58.2273 38.2975 58.806 38.2975C59.1557 38.2975 59.3783 38.1639 59.6136 37.8269C60.0651 37.1592 59.3147 36.2499 58.5135 36.4915Z" fill="white"/>
<path d="M2.82045 38.3672C2.38803 38.5135 2.20361 38.7805 2.20361 39.2447C2.20361 39.7916 2.67419 40.2177 3.20835 40.1541C3.5581 40.1096 3.77431 39.9633 3.92693 39.6645C4.08591 39.3465 4.07955 39.0413 3.90785 38.7805C3.62169 38.3672 3.24651 38.2209 2.82045 38.3672Z" fill="white"/>
<path d="M57.2358 40.0778C56.797 40.275 56.5871 40.8918 56.8097 41.3242C57.045 41.7821 57.5919 41.9601 58.0752 41.7312C58.3804 41.5849 58.5458 41.2861 58.5458 40.8854C58.5458 40.5929 58.5203 40.5293 58.3041 40.294C58.0943 40.0715 58.0179 40.0333 57.7445 40.0142C57.5601 39.9952 57.3502 40.0206 57.2358 40.0778Z" fill="white"/>
<path d="M3.90797 42.011C3.67268 42.2336 3.64089 42.2972 3.62181 42.6024C3.60273 42.8695 3.62181 42.9903 3.72356 43.1556C4.09874 43.747 4.91271 43.7597 5.30697 43.1684C5.43416 42.9839 5.45323 42.8886 5.4278 42.596C5.40236 42.2844 5.37692 42.2272 5.12892 42.011C4.88727 41.7948 4.82368 41.7693 4.51209 41.7693C4.20049 41.7693 4.14326 41.7948 3.90797 42.011Z" fill="white"/>
<path d="M55.5313 43.4801C55.2133 43.69 55.0925 43.9507 55.1243 44.3449C55.1434 44.5993 55.1943 44.7392 55.3087 44.86C55.6394 45.2098 56.0464 45.2925 56.4406 45.089C56.7395 44.9427 56.8985 44.7011 56.9366 44.364C56.9748 44.027 56.8603 43.7726 56.5742 43.5246C56.3198 43.3148 55.8174 43.2957 55.5313 43.4801Z" fill="white"/>
<path d="M46.5586 43.9952L46.247 44.3132L47.0991 45.178C47.9194 46.0047 47.9449 46.0429 47.735 46.0111C47.6142 45.9984 46.9338 45.903 46.2215 45.8012L44.937 45.6232L44.6 45.9538L44.2693 46.2845L45.7001 47.7153L47.1309 49.1461L47.4806 48.7964L47.8304 48.4466L46.9719 47.5881C46.5013 47.1176 46.1452 46.7297 46.177 46.7297C46.2152 46.7297 46.8892 46.825 47.6841 46.9395L49.1276 47.1557L49.4456 46.8314L49.7699 46.5071L48.3836 45.089C47.6205 44.3132 46.9655 43.6773 46.9338 43.6773C46.902 43.6773 46.7303 43.8235 46.5586 43.9952Z" fill="white"/>
<path d="M13.7838 44.4402C12.8808 44.7708 12.2131 45.8201 12.3466 46.6849C12.4102 47.1237 12.7345 47.7151 13.0652 48.0013C13.5231 48.4083 13.8029 48.5291 14.3688 48.5609C14.9221 48.5927 14.8966 48.6308 14.7885 48.0267L14.7186 47.6324L14.3815 47.607C13.7774 47.5561 13.3323 47.0919 13.3323 46.5069C13.3323 46.1063 13.5294 45.7692 13.911 45.5085C14.159 45.3432 14.2353 45.3241 14.5723 45.3432C15.2082 45.3813 15.6216 45.8074 15.6216 46.4306V46.704L16.0667 46.8185C16.3147 46.8821 16.5373 46.9202 16.5564 46.8948C16.639 46.8121 16.5945 46.1126 16.4864 45.7883C16.3338 45.3432 15.7933 44.7581 15.329 44.5292C14.8521 44.3003 14.2544 44.2621 13.7838 44.4402Z" fill="white"/>
<path d="M5.84768 45.1335C5.5488 45.3179 5.42798 45.5977 5.45977 46.011C5.48521 46.2781 5.52972 46.3926 5.66962 46.5388C6.05117 46.9394 6.65529 46.9458 7.01775 46.5643C7.38022 46.1763 7.36115 45.6104 6.97324 45.2352C6.71888 44.9872 6.15928 44.9363 5.84768 45.1335Z" fill="white"/>
<path d="M53.6491 46.526C52.9369 46.8376 52.8797 47.7915 53.5346 48.1921C54.3168 48.6691 55.2707 47.7152 54.7937 46.933C54.5648 46.5578 54.0179 46.3671 53.6491 46.526Z" fill="white"/>
<path d="M17.9299 47.6453C17.3703 47.8233 16.9696 48.1794 16.658 48.7835C16.5054 49.0697 16.48 49.1905 16.48 49.6865C16.48 50.1635 16.5054 50.3034 16.6262 50.545C16.8424 50.952 17.2431 51.3526 17.6882 51.5815C18.0316 51.766 18.1206 51.785 18.6421 51.785C19.1572 51.785 19.2462 51.766 19.5514 51.5943C20.0029 51.3463 20.4163 50.882 20.5816 50.4305C20.766 49.9409 20.7406 49.2414 20.5307 48.8281C20.0284 47.8678 18.8901 47.3464 17.9299 47.6453ZM19.1127 48.6691C19.7168 48.9743 19.9012 49.6357 19.5451 50.2398C19.1444 50.9266 18.375 51.0537 17.809 50.5323C17.631 50.3733 17.5038 50.1825 17.4656 50.0299C17.3321 49.5276 17.631 48.8853 18.1143 48.6436C18.4704 48.4719 18.7375 48.4719 19.1127 48.6691Z" fill="white"/>
<path d="M42.0244 47.8044C41.3249 48.0651 40.8416 48.5166 40.6063 49.1398C40.2566 50.0746 40.7335 51.2574 41.6556 51.7407C41.9354 51.8869 42.0562 51.9124 42.5522 51.9124C43.0546 51.9124 43.1691 51.8933 43.4997 51.7279C43.9385 51.5117 44.3582 51.1175 44.5681 50.7232C44.6889 50.4943 44.7143 50.3544 44.7143 49.8456C44.7143 49.1525 44.6062 48.86 44.1674 48.3576C43.6524 47.7726 42.743 47.5373 42.0244 47.8044ZM43.2072 48.8536C43.4934 49.0508 43.7096 49.4005 43.7668 49.763C43.894 50.5833 42.8829 51.2701 42.1452 50.8567C41.7955 50.6596 41.5538 50.3035 41.5157 49.9092C41.4775 49.5086 41.5284 49.3306 41.7383 49.0762C42.1198 48.6247 42.743 48.5293 43.2072 48.8536Z" fill="white"/>
<path d="M8.28968 48.0267C7.86362 48.1793 7.67285 48.4464 7.67285 48.8915C7.67285 49.5656 8.28333 49.9916 8.91288 49.7563C9.25627 49.6228 9.45976 49.3557 9.49791 48.9932C9.57422 48.3192 8.9256 47.7977 8.28968 48.0267Z" fill="white"/>
<path d="M51.188 49.4003C50.1133 49.8836 50.8255 51.5179 51.9193 51.0855C52.2563 50.9456 52.4535 50.6785 52.4853 50.297C52.5234 49.8964 52.3581 49.6038 51.9956 49.4131C51.6522 49.2414 51.5314 49.2414 51.188 49.4003Z" fill="white"/>
<path d="M38.1393 49.7565C37.9104 49.8455 37.7196 49.9218 37.7069 49.9346C37.6815 49.96 38.9914 53.5084 39.0741 53.6483C39.1123 53.7055 39.2204 53.6864 39.5383 53.5592C39.7609 53.4702 39.958 53.3875 39.9644 53.3748C39.9898 53.3494 38.6417 49.712 38.5845 49.642C38.5654 49.623 38.3619 49.6738 38.1393 49.7565Z" fill="white"/>
<path d="M22.9535 50.4051C22.7055 50.7103 22.1014 51.4416 21.6054 52.0394C21.1157 52.6307 20.7087 53.1331 20.7087 53.1586C20.7087 53.1776 20.9122 53.2539 21.1666 53.3366L21.6245 53.4829L21.7834 53.3048C21.8788 53.2031 22.006 53.0441 22.0759 52.9487L22.2031 52.777L22.9471 53.0377L23.6848 53.2921L23.7293 53.75L23.7738 54.2142L24.219 54.3541C24.4606 54.4367 24.6768 54.4876 24.6895 54.4685C24.7213 54.4367 24.6196 51.6769 24.5496 50.6976L24.5115 50.1825L24.0218 50.0172C23.7548 49.9218 23.5067 49.8455 23.475 49.8455C23.4368 49.8455 23.2079 50.0935 22.9535 50.4051ZM23.6975 51.6578C23.6975 52.0266 23.6721 52.3255 23.6466 52.3255C23.5258 52.3255 22.8009 52.0521 22.82 52.0139C22.8708 51.8995 23.6085 50.9901 23.653 50.9901C23.6784 50.9901 23.6975 51.289 23.6975 51.6578Z" fill="white"/>
<path d="M34.858 50.6849C34.0186 50.8629 33.3255 51.0092 33.3191 51.0219C33.2873 51.041 33.4463 51.785 33.4845 51.8359C33.5099 51.8613 33.7643 51.8359 34.0504 51.7786C34.362 51.715 34.5973 51.696 34.6291 51.7278C34.6545 51.7595 34.8135 52.44 34.9788 53.2412C35.1378 54.0488 35.2841 54.7102 35.2968 54.7229C35.3032 54.7356 35.5194 54.6975 35.7737 54.6402C36.1934 54.5448 36.2316 54.5194 36.1998 54.3986C36.1807 54.3286 36.0535 53.6927 35.9136 52.9932C35.7674 52.2937 35.6402 51.6578 35.6211 51.5879C35.5957 51.4734 35.6275 51.448 35.8437 51.4098C36.8039 51.2572 36.7912 51.2699 36.664 50.6721C36.6131 50.4432 36.5686 50.3542 36.4923 50.3605C36.4351 50.3669 35.6974 50.5132 34.858 50.6849Z" fill="white"/>
<path d="M10.7887 50.7483C9.69498 51.3079 10.4708 52.9294 11.5773 52.3953C12.086 52.1473 12.2704 51.4923 11.9461 51.0599C11.6345 50.6402 11.2212 50.5257 10.7887 50.7483Z" fill="white"/>
<path d="M27.0045 50.8818C27.0045 50.92 26.9027 51.8294 26.7883 52.8977C26.6675 53.9597 26.5721 54.8372 26.5784 54.8436C26.6039 54.8626 29.5163 55.1742 29.5354 55.1552C29.5418 55.1488 29.5736 54.9517 29.599 54.7227C29.6626 54.2267 29.7516 54.2776 28.5815 54.1631C28.1364 54.1186 27.7421 54.0678 27.704 54.0423C27.6595 54.0169 27.6913 53.5527 27.7994 52.5861C27.8884 51.8103 27.9584 51.1235 27.9584 51.0535C27.9584 50.9582 27.8948 50.9264 27.6595 50.8946C27.4878 50.8755 27.2779 50.8437 27.1825 50.831C27.0681 50.8119 27.0045 50.831 27.0045 50.8818Z" fill="white"/>
<path d="M31.3665 51.0982L31.1821 51.13L31.2266 52.3446C31.2457 53.0187 31.2839 53.9153 31.3093 54.3414L31.3475 55.1235H31.8244H32.3013L32.2632 54.0234C32.2377 53.4257 32.1996 52.5099 32.1741 51.9885L32.136 51.0537L31.8435 51.0601C31.6845 51.0664 31.4683 51.0855 31.3665 51.0982Z" fill="white"/>
<path d="M48.3009 51.9694C47.8876 52.2492 47.7795 52.8342 48.0593 53.2476C48.4599 53.839 49.3184 53.7881 49.6491 53.1522C50.0942 52.3191 49.0895 51.4352 48.3009 51.9694Z" fill="white"/>
<path d="M13.6565 53.0697C13.2241 53.2795 13.0524 53.7946 13.2559 54.2588C13.5865 55.0028 14.604 54.9965 14.9347 54.2461C15.2908 53.4448 14.4577 52.6754 13.6565 53.0697Z" fill="white"/>
<path d="M45.484 53.9789C45.1152 54.0934 44.8735 54.4431 44.8735 54.8692C44.8735 55.4034 45.2487 55.7849 45.7765 55.7849C46.298 55.7849 46.6859 55.3906 46.6859 54.8692C46.6859 54.246 46.0754 53.7945 45.484 53.9789Z" fill="white"/>
<path d="M16.9571 54.9393C16.3212 55.1936 16.1431 56.0648 16.6391 56.4845C17.1796 56.936 17.9554 56.7389 18.1717 56.0966C18.4006 55.3908 17.6438 54.6658 16.9571 54.9393Z" fill="white"/>
<path d="M42.1835 55.7212C41.7574 55.8738 41.5667 56.1409 41.5667 56.5861C41.5667 57.2728 42.1898 57.6989 42.8258 57.4382C43.9195 57.0058 43.29 55.327 42.1835 55.7212Z" fill="white"/>
<path d="M20.1936 56.5416C19.7803 56.815 19.634 57.3746 19.882 57.7816C20.1364 58.2013 20.6706 58.3539 21.1093 58.1441C21.4146 57.9978 21.5545 57.7562 21.5863 57.3492C21.6117 57.0376 21.5926 56.9677 21.44 56.7896C21.0903 56.3763 20.5879 56.2745 20.1936 56.5416Z" fill="white"/>
<path d="M38.6098 57.0249C38.5398 57.0567 38.3999 57.1711 38.2982 57.2792C38.0502 57.54 37.9993 58.0423 38.1901 58.3539C38.5716 58.958 39.411 58.958 39.7926 58.3539C39.888 58.1886 39.9134 58.0678 39.8943 57.807C39.8752 57.5209 39.8371 57.4319 39.64 57.2411C39.4492 57.0439 39.3665 57.0058 39.074 56.9867C38.8896 56.9804 38.6797 56.9931 38.6098 57.0249Z" fill="white"/>
<path d="M23.9773 57.4827C23.7165 57.5591 23.3986 57.9215 23.3477 58.2013C23.2587 58.6528 23.5639 59.1298 24.0218 59.2697C24.6831 59.4668 25.3381 58.8182 25.1537 58.1441C25.0647 57.8325 24.8103 57.5527 24.5369 57.4764C24.2698 57.4064 24.2444 57.4064 23.9773 57.4827Z" fill="white"/>
<path d="M34.9853 57.8581C34.9153 57.8835 34.7754 57.998 34.6737 58.1061C34.4257 58.3668 34.3748 58.8692 34.5656 59.1808C35.0679 59.9757 36.2889 59.645 36.2889 58.7166C36.2889 58.0743 35.5767 57.6101 34.9853 57.8581Z" fill="white"/>
<path d="M27.5767 58.0932C27.2906 58.2013 27.0044 58.621 27.0044 58.939C27.0044 59.7975 28.0282 60.2044 28.626 59.5749C29.0012 59.1806 28.8803 58.3921 28.4034 58.1441C28.2253 58.0487 27.7675 58.0233 27.5767 58.0932Z" fill="white"/>
<path d="M31.2841 58.2331C30.4511 58.6211 30.6101 59.8356 31.5131 59.9883C32.2889 60.1154 32.8866 59.1807 32.4224 58.5638C32.1235 58.1632 31.7038 58.0424 31.2841 58.2331Z" fill="white"/>
</svg>
