<svg width="24" height="24" viewBox="0 0 24 24" fill="none" xmlns="http://www.w3.org/2000/svg">
<g clip-path="url(#clip0)">
<path d="M23.9991 12.1078C23.9991 12.2418 23.9939 12.3762 23.9865 12.5105C23.9601 13.1685 23.8788 13.8231 23.7434 14.4675C23.6482 14.9339 23.5238 15.3939 23.3711 15.8448C23.3381 15.9409 23.3055 16.037 23.2672 16.1336C23.1074 16.576 22.9186 17.0073 22.7019 17.4247C22.3334 18.1582 21.8887 18.8507 21.375 19.4909C19.995 21.2172 18.1659 22.5297 16.0886 23.2844C15.5779 23.471 15.0547 23.6216 14.523 23.7349C12.8868 24.0842 11.196 24.0903 9.55746 23.7528C8.998 23.6374 8.44782 23.4808 7.91142 23.2844C5.83284 22.5309 4.00372 21.2162 2.62713 19.4861C2.44491 19.2634 2.27531 19.033 2.1157 18.7977C1.80804 18.3551 1.53193 17.8914 1.28942 17.41C1.00096 16.8413 0.758819 16.2502 0.565342 15.6426C0.443575 15.2579 0.340502 14.8654 0.256135 14.4654C0.108389 13.7525 0.0245633 13.0278 0.00564565 12.3001C0.00303634 12.1661 0.000427246 12.0317 0.000427246 11.8978C0.0073051 11.1357 0.0871071 10.3759 0.238743 9.62899C0.336235 9.13126 0.466994 8.64062 0.63014 8.16039C0.663191 8.06428 0.695808 7.96773 0.734078 7.87423C0.898137 7.41808 1.09178 6.97312 1.31378 6.54218C1.68025 5.82347 2.11884 5.14387 2.62278 4.51388C4.00309 2.78727 5.83228 1.47417 7.90968 0.718631C8.44635 0.523014 8.99646 0.36648 9.55572 0.250259C10.3945 0.0775867 11.2492 -0.00565019 12.1054 0.00194076C12.9175 0.00941003 13.7267 0.0976893 14.5212 0.265478C17.2267 0.852471 19.6473 2.35373 21.3755 4.51648C21.5551 4.73958 21.7273 4.97007 21.8869 5.20795C22.1944 5.64974 22.4705 6.11258 22.7132 6.59306C23.0019 7.16129 23.2444 7.7519 23.4381 8.35913C23.8245 9.57063 24.0139 10.8363 23.9991 12.1078Z" fill="white"/>
<path d="M23.9992 12.1072C23.9992 12.2411 23.9939 12.3755 23.9865 12.5099C23.9602 13.1679 23.8789 13.8225 23.7434 14.4669H14.523V23.7365C12.8869 24.0858 11.1961 24.0918 9.55749 23.7543V14.4634H0.255743C0.107997 13.7505 0.0241666 13.0259 0.00524893 12.2981C0.00263962 12.1642 3.05176e-05 12.0298 3.05176e-05 11.8958C0.00690837 11.1337 0.0867103 10.374 0.238347 9.62704H9.55619V0.248311C10.3949 0.0756389 11.2496 -0.00760335 12.1059 -1.23954e-05C12.9179 0.00745688 13.7272 0.0957415 14.5217 0.263531V9.62835H23.7661C23.9286 10.4444 24.0067 11.2751 23.9992 12.1072Z" fill="#CF142B"/>
<path d="M7.9101 16.8516V23.2844C5.83153 22.5309 4.00242 21.2162 2.62582 19.4861L7.9101 16.8516Z" fill="#00247D"/>
<path d="M7.4874 16.1299L2.1144 18.7962C1.80674 18.3536 1.53063 17.8898 1.28812 17.4084L3.86829 16.1299H7.4874Z" fill="#CF142B"/>
<path d="M21.3759 19.4874C19.9961 21.2151 18.1666 22.5289 16.0886 23.2844V16.8516L21.3759 19.4874Z" fill="#00247D"/>
<path d="M7.91012 0.717285V7.15011L2.62323 4.51383C4.00337 2.78675 5.83257 1.47319 7.91012 0.717285Z" fill="#00247D"/>
<path d="M21.3759 4.51514L16.0886 7.15011V0.717285C18.1674 1.47169 19.9972 2.78604 21.3759 4.51514Z" fill="#00247D"/>
<path d="M22.7127 6.59165L20.1299 7.87282H16.5143L21.8873 5.20654C22.1945 5.64836 22.4703 6.1112 22.7127 6.59165Z" fill="#CF142B"/>
<path d="M23.2672 16.1299C23.1075 16.5723 22.9186 17.0036 22.7019 17.4211L20.0926 16.1299H23.2672Z" fill="#CF142B"/>
<path d="M4.02617 7.87258H0.734528C0.898586 7.41643 1.09223 6.97146 1.31423 6.54053L4.02617 7.87258Z" fill="#CF142B"/>
</g>
<defs>
<clipPath id="clip0">
<rect width="23.9996" height="24" fill="white"/>
</clipPath>
</defs>
</svg>
