<svg width="77" height="60" viewBox="0 0 77 60" fill="none" xmlns="http://www.w3.org/2000/svg">
<g clip-path="url(#clip0_3377_10888)">
<path d="M59.8645 18.5453C59.2535 18.5453 58.6484 18.5802 58.0548 18.6442C59.4892 22.1473 60.2777 25.982 60.2777 30C60.2777 34.3207 59.3641 38.4289 57.7202 42.1414C60.6966 44.0501 62.4133 47.6055 61.8081 51.3093C69.9693 50.3463 76.3033 43.4042 76.3033 34.984C76.3033 25.9064 68.9422 18.5453 59.8645 18.5453Z" fill="#1A1A1A"/>
<path d="M30.2778 0C13.7081 0 0.277832 13.4303 0.277832 30C0.277832 46.5697 13.7081 60 30.2778 60C35.9456 60 41.2496 58.4259 45.771 55.6939C44.1213 53.7154 43.3125 51.0532 43.778 48.3125C44.0747 46.5551 44.8574 44.9985 45.963 43.7591C44.357 41.2191 43.4259 38.2106 43.4259 34.984C43.4259 26.5173 49.8269 19.5461 58.055 18.6442C53.5772 7.70439 42.8266 0 30.2778 0Z" fill="#1A1A1A"/>
<path d="M58.0524 18.6441C49.8243 19.5461 43.4233 26.5173 43.4233 34.984C43.4233 38.2106 44.3544 41.2191 45.9604 43.7591C47.6596 41.8533 50.124 40.6954 52.7745 40.6954C53.2808 40.6954 53.7958 40.739 54.3107 40.8263C55.5618 41.0387 56.7111 41.4955 57.7178 42.1385C59.3617 38.4259 60.2752 34.3177 60.2752 29.9971C60.2752 25.979 59.4839 22.1443 58.0524 18.6412" fill="#2D2D2D"/>
<path d="M52.7917 49.8284C50.7695 52.1211 48.4041 54.1054 45.771 55.694C47.1181 57.3087 49.0267 58.4696 51.2612 58.8508C51.7762 58.9381 52.2912 58.9817 52.7975 58.9817C57.1763 58.9817 61.043 55.8278 61.7995 51.3675C61.8024 51.35 61.8053 51.3326 61.8082 51.3122C61.1711 51.3879 60.5222 51.4257 59.8647 51.4257C57.3334 51.4257 54.9331 50.8525 52.7917 49.8313" fill="#1A1A1A"/>
<path d="M57.7173 42.1414C56.4691 44.9578 54.799 47.5472 52.7886 49.8283C54.93 50.8495 57.3303 51.4227 59.8616 51.4227C60.5192 51.4227 61.168 51.3849 61.8052 51.3092C62.4103 47.6025 60.6937 44.05 57.7173 42.1414Z" fill="#2D2D2D"/>
<path d="M45.9603 43.759C44.8547 44.9985 44.0749 46.5522 43.7752 48.3124C43.3126 51.0532 44.1186 53.7154 45.7682 55.6939C48.3984 54.1053 50.7668 52.121 52.7889 49.8283C49.9812 48.487 47.6129 46.3718 45.9603 43.759Z" fill="#2D2D2D"/>
<path d="M52.777 40.6982C50.1264 40.6982 47.662 41.8562 45.9629 43.762C47.6155 46.3747 49.9838 48.4899 52.7915 49.8312C54.802 47.5501 56.4721 44.9607 57.7202 42.1443C56.7135 41.4984 55.5672 41.0416 54.3132 40.8321C53.7982 40.7448 53.2832 40.7012 52.777 40.7012" fill="#1A1A1A"/>
<path d="M7.83073 26.0169H9.13128L11.1272 17.4164H9.65499L9.96631 16.0111H14.511L14.1822 17.4164H12.7071L10.6966 26.0344H14.252L14.6506 24.3527H16.1607L15.4507 27.4222H7.50195L7.83073 26.0169Z" fill="white"/>
<path d="M16.7107 26.0343C16.7107 25.8103 16.7631 25.4786 16.8329 25.2196L17.8745 21.2307H16.4692L16.798 19.9476H19.7279L18.3401 25.2371C18.2528 25.531 18.2179 25.8277 18.2179 25.9994C18.2179 26.3282 18.3924 26.5202 18.6688 26.5202C19.0151 26.5202 19.3293 26.2612 19.693 25.3069L20.368 25.5484C19.917 27.041 19.1896 27.5414 18.2702 27.5414C17.2635 27.5414 16.7078 26.9333 16.7078 26.0314L16.7107 26.0343ZM18.1684 17.6753C18.1684 17.1196 18.6194 16.6686 19.1751 16.6686C19.7308 16.6686 20.1818 17.1196 20.1818 17.6753C20.1818 18.231 19.7133 18.682 19.1751 18.682C18.6368 18.682 18.1684 18.231 18.1684 17.6753Z" fill="white"/>
<path d="M21.5491 21.2307H20.2485L20.5773 19.9476H22.8671L23.7341 25.8947C25.0696 24.4545 26.0414 22.9822 26.3352 21.8359C25.9541 21.6962 25.6079 21.3675 25.6079 20.8467C25.6079 20.2735 26.0588 19.8051 26.6495 19.8051C27.307 19.8051 27.7929 20.3084 27.7929 21.1405C27.7929 22.7175 26.1636 25.2167 23.7341 27.6258H22.7449L21.5491 21.2278V21.2307Z" fill="white"/>
<path d="M28.6775 26.0343C28.6775 25.8103 28.7299 25.4786 28.7997 25.2196L29.8413 21.2307H28.436L28.7648 19.9476H31.6947L30.3069 25.2371C30.2196 25.531 30.1847 25.8277 30.1847 25.9994C30.1847 26.3282 30.3592 26.5202 30.6356 26.5202C30.9819 26.5202 31.2932 26.2612 31.6598 25.3069L32.3377 25.5484C31.8867 27.041 31.1593 27.5414 30.2399 27.5414C29.2332 27.5414 28.6804 26.9333 28.6804 26.0314L28.6775 26.0343ZM30.1352 17.6753C30.1352 17.1196 30.5862 16.6686 31.1419 16.6686C31.6976 16.6686 32.1486 17.1196 32.1486 17.6753C32.1486 18.231 31.6801 18.682 31.1419 18.682C30.6036 18.682 30.1352 18.231 30.1352 17.6753Z" fill="white"/>
<path d="M37.4872 26.0517C37.4872 25.8102 37.5396 25.4785 37.6094 25.2021L38.2495 22.9472C38.3368 22.6534 38.3717 22.4264 38.3717 22.185C38.3717 21.5245 37.9207 21.0939 37.2457 21.0939C36.3263 21.0939 35.4593 21.8736 35.0781 23.3662L34.0714 27.425H32.5439L34.1064 21.2335H32.7185L33.0473 19.9504H35.7182L35.3196 21.702C35.9103 20.6604 36.882 19.8282 37.9033 19.8282C39.0467 19.8282 39.9312 20.608 39.9312 21.9435C39.9312 22.3072 39.8614 22.7232 39.7392 23.1567L39.0962 25.3592C39.0438 25.5862 38.9914 25.8277 38.9914 25.9673C38.9914 26.3136 39.166 26.523 39.4599 26.523C39.7537 26.523 40.0854 26.2641 40.4316 25.3098L41.1096 25.5513C40.711 26.9042 40.001 27.5443 39.0816 27.5443C38.0575 27.5443 37.4872 26.9187 37.4872 26.0517Z" fill="white"/>
<path d="M41.0253 30.0233C40.6965 29.6945 40.5918 29.4181 40.5918 29.0515C40.5918 28.4434 41.0079 28.0273 41.5461 28.0273C42.0844 28.0273 42.4655 28.4609 42.4655 28.9642C42.4655 29.1213 42.4306 29.293 42.3608 29.4152C42.5877 29.5548 43.0387 29.6916 43.609 29.6916C44.3189 29.6916 44.8222 29.4996 45.2557 29.066C45.6544 28.6849 45.8988 28.0768 46.0879 27.2621L46.4166 25.8568C45.7736 26.7588 44.8717 27.332 43.8505 27.332C42.1688 27.332 41.1271 26.1362 41.1271 24.3323C41.1271 21.9057 42.8088 19.8051 45.0812 19.8051C46.3643 19.8051 47.1266 20.6721 47.3884 21.5042L47.8569 19.9098H49.2622L47.4757 27.6084C47.2517 28.6151 46.9374 29.3599 46.3846 29.9331C45.7242 30.5761 44.8571 30.8874 43.6439 30.8874C42.6023 30.8874 41.4763 30.4713 41.0253 30.0204V30.0233ZM47.0771 22.9299C47.0771 21.8213 46.3497 21.1434 45.2732 21.1434C43.8155 21.1434 42.707 22.5313 42.707 24.2304C42.707 25.3389 43.4344 26.0343 44.476 26.0343C45.9686 26.0343 47.0771 24.5447 47.0771 22.9299Z" fill="white"/>
<path d="M17.406 30.451H16.1753L16.5041 29.0457H20.6996L20.3883 30.451H18.9481L19.2943 37.6316L23.5247 30.2967H24.2696L25.5352 37.6665L29.0383 30.4539H27.6504L27.9617 29.0486H32.1747L31.8459 30.4539H30.7549L25.5701 40.5819H24.7205L23.3502 33.3168L18.9626 40.5819L18.1305 40.5993L17.4031 30.4539L17.406 30.451Z" fill="white"/>
<path d="M29.0933 37.6142C29.0933 35.0654 30.8622 32.8455 33.0298 32.8455C34.1558 32.8455 35.0054 33.6601 35.2673 34.6144L35.7531 32.9502H37.1759L35.8579 38.2746C35.7706 38.5859 35.7182 38.8652 35.7182 39.0369C35.7182 39.3657 35.8753 39.5577 36.1692 39.5577C36.4456 39.5577 36.7947 39.2988 37.141 38.3444L37.8189 38.5888C37.3679 40.0785 36.5882 40.5819 35.7561 40.5819C34.8716 40.5819 34.3158 39.9738 34.3158 39.0747V38.9874C33.6728 39.8719 32.7738 40.5993 31.6449 40.5993C30.1523 40.5993 29.0962 39.4384 29.0962 37.6171L29.0933 37.6142ZM34.921 36.0197C34.921 34.9112 34.3653 34.1809 33.2219 34.1809C31.7642 34.1809 30.6731 35.7579 30.6731 37.4425C30.6731 38.5336 31.2114 39.2988 32.2501 39.2988C33.7747 39.2988 34.921 37.652 34.921 36.0197Z" fill="white"/>
<path d="M37.9906 43.0607C37.6619 42.732 37.5571 42.4556 37.5571 42.089C37.5571 41.4809 37.9732 41.0648 38.5114 41.0648C39.0497 41.0648 39.4309 41.4983 39.4309 42.0017C39.4309 42.1588 39.3959 42.3305 39.3261 42.4527C39.5531 42.5923 40.004 42.7291 40.5743 42.7291C41.2842 42.7291 41.7876 42.537 42.2211 42.1035C42.6197 41.7224 42.8641 41.1143 43.0532 40.2996L43.382 38.8943C42.739 39.7963 41.8399 40.3694 40.8158 40.3694C39.1341 40.3694 38.0925 39.1736 38.0925 37.3697C38.0925 34.9432 39.7742 32.8425 42.0465 32.8425C43.3296 32.8425 44.0919 33.7096 44.3538 34.5417L44.8222 32.9444H46.2275L44.441 40.6429C44.217 41.6496 43.9028 42.3945 43.35 42.9676C42.6895 43.6077 41.8225 43.922 40.6092 43.922C39.5705 43.922 38.4416 43.5059 37.9906 43.0549V43.0607ZM44.0424 35.9673C44.0424 34.8559 43.3151 34.1809 42.2385 34.1809C40.7809 34.1809 39.6723 35.5687 39.6723 37.2679C39.6723 38.3764 40.3997 39.0718 41.4413 39.0718C42.9339 39.0718 44.0424 37.5792 44.0424 35.9673Z" fill="white"/>
<path d="M47.7026 37.1981V37.4571C47.7026 38.586 48.6045 39.3308 49.9575 39.3308C50.7547 39.3308 51.485 39.1562 52.4218 38.6558L52.128 40.0785C51.3482 40.4597 50.7052 40.5993 49.649 40.5993C47.8626 40.5993 46.2158 39.4704 46.2158 37.4251C46.2158 34.8938 48.0895 32.8484 50.3095 32.8484C52.1309 32.8484 53.3267 33.89 53.3267 35.6386C53.3267 36.107 53.2394 36.6278 53.0474 37.201H47.7055L47.7026 37.1981ZM47.9121 36.1041H51.7963C51.8661 35.8976 51.901 35.6706 51.901 35.4611C51.901 34.6814 51.3802 34.1082 50.3037 34.1082C49.2272 34.1082 48.3107 34.9229 47.9121 36.1041Z" fill="white"/>
<path d="M26.1433 50.5644H26.8445L27.9356 45.8394H27.1471L27.2489 45.4175H31.2437L30.9469 46.6773H30.4814L30.6763 45.8394H28.4156L27.9327 47.9313H29.7773L29.6842 48.3532H27.8396L27.3246 50.5615H29.5853L29.7802 49.7236H30.2457L29.9577 50.9863H26.0386L26.1404 50.5644H26.1433Z" fill="white"/>
<path d="M31.6888 47.8208H31.0109L31.1127 47.4309H32.2038L31.9739 48.2863C32.3202 47.7277 32.7624 47.364 33.2425 47.364C33.7924 47.364 34.1473 47.6928 34.1648 48.2543C34.511 47.7132 34.9766 47.364 35.4421 47.364C36.0007 47.364 36.3819 47.7626 36.3819 48.2863C36.3819 48.4638 36.3324 48.6588 36.28 48.845L35.9163 50.0902C35.8814 50.2095 35.8581 50.3695 35.8581 50.4365C35.8581 50.6052 35.9687 50.7158 36.12 50.7158C36.3062 50.7158 36.4488 50.547 36.6117 50.1571L36.8736 50.2415C36.7048 50.742 36.4517 51.0387 36.0618 51.0387C35.6719 51.0387 35.4188 50.7943 35.4188 50.4365C35.4188 50.3434 35.4537 50.1659 35.4857 50.0466L35.8494 48.7839C35.8989 48.5976 35.9338 48.4551 35.9338 48.3009C35.9338 47.9779 35.7214 47.7423 35.3752 47.7423C34.866 47.7423 34.2317 48.2922 33.9699 49.2988L33.5305 50.9835H33.0912L33.6586 48.781C33.708 48.5947 33.7429 48.4522 33.7429 48.298C33.7429 47.975 33.5218 47.7393 33.1756 47.7393C32.6751 47.7393 32.0001 48.298 31.7528 49.2901L31.3309 50.9835H30.8916L31.6888 47.8179V47.8208Z" fill="white"/>
<path d="M36.3441 52.2578H36.894L37.9618 47.8208H37.2839L37.377 47.4309H38.468L38.308 48.1176C38.596 47.7102 39.0179 47.364 39.5795 47.364C40.3505 47.364 40.9498 47.9488 40.9498 48.8624C40.9498 50.1077 40.0275 51.0562 39.0528 51.0562C38.4593 51.0562 37.9763 50.7274 37.825 50.2008L37.342 52.2578H38.1218L38.0287 52.6477H36.251L36.3441 52.2578ZM40.4756 48.9148C40.4756 48.2136 40.1119 47.7626 39.5009 47.7626C38.6542 47.7626 37.985 48.7606 37.985 49.5927C37.985 50.2095 38.3837 50.6605 39.0441 50.6605C39.8821 50.6605 40.4756 49.7964 40.4756 48.9177V48.9148Z" fill="white"/>
<path d="M41.4736 50.4364C41.4736 50.3433 41.5085 50.2066 41.5318 50.0815L42.6753 45.1789H42.0061L42.0992 44.7891H43.2077L41.9712 50.0815C41.945 50.2095 41.913 50.3695 41.913 50.4364C41.913 50.6052 42.0235 50.7157 42.1748 50.7157C42.361 50.7157 42.5036 50.547 42.6665 50.1571L42.9284 50.2415C42.7596 50.7419 42.5036 51.0387 42.1166 51.0387C41.7297 51.0387 41.4736 50.7943 41.4736 50.4364Z" fill="white"/>
<path d="M43.2949 49.5316C43.2949 48.4056 44.1678 47.364 45.3112 47.364C46.251 47.364 46.8009 48.0594 46.8009 48.8886C46.8009 50.0146 45.928 51.0562 44.7846 51.0562C43.8448 51.0562 43.2949 50.3608 43.2949 49.5316ZM46.3499 48.8799C46.3499 48.202 45.8931 47.7626 45.2821 47.7626C44.418 47.7626 43.7401 48.5918 43.7401 49.5403C43.7401 50.2183 44.1969 50.6576 44.8079 50.6576C45.672 50.6576 46.3499 49.8284 46.3499 48.8799Z" fill="white"/>
<path d="M46.0967 52.2577C46.0967 52.0628 46.2392 51.8766 46.4516 51.8766C46.664 51.8766 46.7891 52.0279 46.8066 52.2664H46.8502C47.0539 52.2664 47.5107 51.9435 48.2992 50.9804L47.6649 47.8236H47.0045L47.0976 47.4337H48.0635L48.6309 50.5586C49.3088 49.677 49.9867 48.7227 50.1031 48.1553C49.9343 48.1058 49.7568 47.9604 49.7568 47.7305C49.7568 47.5443 49.9169 47.3668 50.138 47.3668C50.3591 47.3668 50.5541 47.5356 50.5541 47.8673C50.5541 48.4841 50.0362 49.3162 48.7327 50.9746C47.6649 52.3392 47.1063 52.6854 46.6088 52.6854C46.3556 52.6854 46.0996 52.5079 46.0996 52.2635L46.0967 52.2577Z" fill="white"/>
<path d="M51.1683 49.3279C51.1596 49.4036 51.1596 49.4792 51.1596 49.5578C51.1596 50.2939 51.7618 50.6663 52.3612 50.6663C52.7772 50.6663 53.0711 50.5819 53.5308 50.3375L53.429 50.7943C53.0566 50.9805 52.7511 51.0562 52.2855 51.0562C51.4651 51.0562 50.7202 50.5237 50.7202 49.5665C50.7202 48.3649 51.66 47.364 52.7103 47.364C53.5134 47.364 54.0051 47.8732 54.0051 48.6267C54.0051 48.8479 53.9556 49.0748 53.8625 49.3279H51.1712H51.1683ZM51.2527 48.9555H53.5221C53.5657 48.8275 53.589 48.6849 53.589 48.5482C53.589 48.1496 53.3184 47.7597 52.6754 47.7597C52.0324 47.7597 51.4738 48.2689 51.2527 48.9526V48.9555Z" fill="white"/>
<path d="M55.1976 47.8208H54.5197L54.6215 47.4309H55.7126L55.4769 48.3969C55.9512 47.7452 56.3498 47.364 56.6785 47.364C56.9579 47.364 57.1091 47.524 57.1091 47.7364C57.1091 47.9663 56.9229 48.1525 56.7105 48.1525C56.5156 48.1525 56.3818 48.0332 56.3381 47.8645C56.0501 48.0332 55.4333 48.5918 55.2296 49.4298L54.8397 50.9864H54.4004L55.1976 47.8208Z" fill="white"/>
<path d="M16.344 9.22606H15.7505L15.8523 8.80127H17.5631L17.4613 9.22606H16.7659L16.8852 13.5932L19.1954 9.51992H19.399L19.8645 13.602L22.166 9.22606H21.4881L21.5899 8.80127H23.2919L23.1901 9.22606H22.6315L19.8471 14.4661H19.5765L19.0848 10.5121L16.7979 14.4661H16.5273L16.3411 9.22606H16.344Z" fill="white"/>
<path d="M22.556 12.7145C22.5472 12.7902 22.5472 12.8658 22.5472 12.9444C22.5472 13.6805 23.1495 14.0529 23.7489 14.0529C24.1649 14.0529 24.4588 13.9685 24.9185 13.7241L24.8167 14.1809C24.4442 14.3671 24.1388 14.4428 23.6732 14.4428C22.8527 14.4428 22.1079 13.9103 22.1079 12.9531C22.1079 11.7515 23.0477 10.7506 24.098 10.7506C24.901 10.7506 25.3928 11.2598 25.3928 12.0133C25.3928 12.2345 25.3433 12.4614 25.2502 12.7174H22.5589L22.556 12.7145ZM22.6404 12.3421H24.9098C24.9534 12.2141 24.9767 12.0715 24.9767 11.9348C24.9767 11.5362 24.7061 11.1463 24.0631 11.1463C23.4201 11.1463 22.8615 11.6555 22.6404 12.3392V12.3421Z" fill="white"/>
<path d="M27.2197 12.9677C27.2197 11.7573 28.1013 10.7506 29.1255 10.7506C29.7685 10.7506 30.1932 11.1056 30.2951 11.6729L30.5075 10.7768H30.9468L30.2864 13.4856C30.2514 13.6223 30.2282 13.7561 30.2282 13.8231C30.2282 13.9918 30.3387 14.1024 30.49 14.1024C30.6762 14.1024 30.8188 13.9336 30.9817 13.5437L31.2436 13.6281C31.0748 14.1286 30.8217 14.4253 30.4318 14.4253C30.042 14.4253 29.8063 14.1897 29.8063 13.858V13.7154C29.4921 14.1315 29.0527 14.4428 28.5377 14.4428C27.7667 14.4428 27.2255 13.8842 27.2255 12.9706L27.2197 12.9677ZM30.1234 12.2141C30.1234 11.5798 29.7859 11.1463 29.14 11.1463C28.2846 11.1463 27.6911 12.0366 27.6911 12.9589C27.6911 13.6194 28.014 14.0413 28.6221 14.0413C29.5444 14.0413 30.1205 13.0084 30.1205 12.2112L30.1234 12.2141Z" fill="white"/>
<path d="M32.3758 11.2074H31.6979L31.7997 10.8175H32.8908L32.6551 11.7835C33.1294 11.1318 33.528 10.7506 33.8568 10.7506C34.1361 10.7506 34.2874 10.9106 34.2874 11.123C34.2874 11.3529 34.1012 11.5391 33.8888 11.5391C33.6938 11.5391 33.56 11.4198 33.5163 11.251C33.2283 11.4198 32.6115 11.9784 32.4078 12.8164L32.0179 14.373H31.5786L32.3758 11.2074Z" fill="white"/>
<path d="M34.5662 12.7145C34.5575 12.7902 34.5575 12.8658 34.5575 12.9444C34.5575 13.6805 35.1598 14.0529 35.7591 14.0529C36.1752 14.0529 36.4691 13.9685 36.9288 13.7241L36.8269 14.1809C36.4545 14.3671 36.149 14.4428 35.6835 14.4428C34.863 14.4428 34.1182 13.9103 34.1182 12.9531C34.1182 11.7515 35.0579 10.7506 36.1083 10.7506C36.9113 10.7506 37.403 11.2598 37.403 12.0133C37.403 12.2345 37.3535 12.4614 37.2604 12.7174H34.5691L34.5662 12.7145ZM34.6506 12.3421H36.92C36.9637 12.2141 36.9869 12.0715 36.9869 11.9348C36.9869 11.5362 36.7164 11.1463 36.0734 11.1463C35.4304 11.1463 34.8717 11.6555 34.6506 12.3392V12.3421Z" fill="white"/>
<path d="M39.2334 12.9677C39.2334 11.7573 40.115 10.7506 41.1391 10.7506C41.7821 10.7506 42.2069 11.1056 42.3088 11.6729L42.5212 10.7768H42.9605L42.3 13.4856C42.2651 13.6223 42.2418 13.7561 42.2418 13.8231C42.2418 13.9918 42.3524 14.1024 42.5037 14.1024C42.6899 14.1024 42.8354 13.9336 42.9954 13.5437L43.2573 13.6281C43.0885 14.1286 42.8354 14.4253 42.4455 14.4253C42.0556 14.4253 41.82 14.1897 41.82 13.858V13.7154C41.5057 14.1315 41.0664 14.4428 40.5485 14.4428C39.7775 14.4428 39.2363 13.8842 39.2363 12.9706L39.2334 12.9677ZM42.1371 12.2141C42.1371 11.5798 41.7996 11.1463 41.1566 11.1463C40.3012 11.1463 39.7077 12.0366 39.7077 12.9589C39.7077 13.6194 40.0306 14.0413 40.6387 14.0413C41.561 14.0413 42.1371 13.0084 42.1371 12.2112V12.2141Z" fill="white"/>
</g>
<defs>
<clipPath id="clip0_3377_10888">
<rect width="76.0256" height="60" fill="white" transform="translate(0.277832)"/>
</clipPath>
</defs>
</svg>
