<svg width="98" height="34" viewBox="0 0 98 34" fill="none" xmlns="http://www.w3.org/2000/svg">
<g clip-path="url(#clip0_1261:3338)">
<g clip-path="url(#clip1_1261:3338)">
<path d="M0.704102 0.691895H33.3202V33.308H0.704102V0.691895Z" fill="#E9AB87"/>
<path d="M9.12901 5.94739V12.0211H10.9154C12.8516 12.0211 12.9438 11.6984 13.0936 10.1886H13.6584V14.6258H13.0936C12.9438 13.1045 12.8516 12.8164 10.9154 12.8164H9.12901V18.0833C9.12901 19.1552 9.42866 19.4087 11.411 19.4087V20.0657H4.42676V19.4087C5.8674 19.4087 6.38603 19.3396 6.38603 18.164V7.12295C6.38603 5.94739 5.8674 5.87824 4.42676 5.87824V5.22131H13.7045C14.9492 5.22131 15.3987 5.17521 15.7905 5.09453V9.67001H15.1797C14.857 6.48907 14.2231 5.94739 11.3879 5.94739H9.12901ZM28.4682 5.20978C29.7129 5.20978 30.1623 5.16368 30.5542 5.08301V9.65848H29.9434C29.6207 6.47755 28.9868 5.93587 26.1516 5.93587H25.3679V18.0603C25.3679 19.2128 25.8059 19.3857 27.6499 19.3857V20.0426H20.3314V19.3857C22.1639 19.3857 22.6364 19.2128 22.6364 18.0603V5.94739H21.8527C19.0176 5.94739 18.3722 6.48907 18.061 9.67001H17.4156V5.09453C17.8074 5.16368 18.2454 5.22131 19.5016 5.22131H28.4682V5.20978Z" fill="#211F20"/>
<path d="M39.4639 19.7159C39.4639 20.2545 39.6099 20.3824 40.605 20.3824V20.711H37.1816V20.3824C37.8572 20.3824 38.0854 20.3185 38.0854 19.7342V14.266C38.0854 13.6817 37.8481 13.6178 37.1816 13.6178V13.2892H41.8739C42.4947 13.2892 42.7229 13.2618 42.9146 13.2253L42.9511 15.3249H42.6681C42.5129 13.7913 42.1295 13.6543 40.7054 13.6543H39.4547V16.6943H40.4681C41.4357 16.6943 41.4996 16.5391 41.5727 15.7722H41.8465V17.9906H41.5727C41.4996 17.2329 41.4357 17.0868 40.4681 17.0868H39.4547V19.7159H39.4639ZM43.6358 20.711V20.3824C44.3113 20.3824 44.5396 20.3185 44.5396 19.7342V14.266C44.5396 13.6817 44.3022 13.6178 43.6358 13.6178V13.2892H46.8309V13.6178C46.1554 13.6178 45.9271 13.6817 45.9271 14.266V19.7342C45.9271 20.3185 46.1645 20.3824 46.8309 20.3824V20.711H43.6358ZM54.061 20.8388L48.9853 14.5398V19.6977C48.9853 20.3002 49.4053 20.3824 50.0991 20.3824V20.711H47.406V20.3824C48.109 20.3824 48.5015 20.3002 48.5015 19.6977V13.9739C48.1729 13.6452 47.9355 13.6178 47.406 13.6178V13.2892H49.7978L53.6959 18.301V14.3025C53.6959 13.7 53.2759 13.6178 52.5821 13.6178V13.2892H55.2752V13.6178C54.5722 13.6178 54.1797 13.7 54.1797 14.3025V20.8388H54.061ZM57.7035 20.711H55.0196V20.3824C55.7316 20.3824 56.0511 20.2819 56.2702 19.6794L58.6985 13.2162H59.3741L61.9849 19.7251C62.2223 20.3002 62.3318 20.3732 62.8522 20.3732V20.7019H59.7392V20.3824C60.6977 20.3824 60.7799 20.3093 60.5517 19.7342L59.7757 17.7624H57.4478L56.7632 19.6703C56.5441 20.2545 56.8819 20.3824 57.7035 20.3824V20.711ZM57.5939 17.3516H59.6114L58.5616 14.695L57.5939 17.3516ZM69.8358 20.8388L64.7601 14.5398V19.6977C64.7601 20.3002 65.18 20.3824 65.8738 20.3824V20.711H63.2356V20.3824C63.8837 20.3824 64.2671 20.3002 64.2671 19.6977V13.983C63.902 13.6361 63.619 13.6178 63.0165 13.6178V13.2892H65.5635L69.4706 18.301V14.3025C69.4706 13.7 69.0507 13.6178 68.3569 13.6178V13.2892H71.0499V13.6178C70.347 13.6178 69.9545 13.7 69.9545 14.3025V20.8388H69.8358ZM77.3671 13.2709H77.5497L77.6593 15.4893L77.3763 15.4984C77.1937 14.2203 76.5182 13.563 75.2766 13.563C73.9073 13.563 72.8483 14.7407 72.8483 16.5573C72.8483 18.8761 74.309 20.1815 75.8426 20.1815C76.509 20.1815 77.1024 19.9989 77.6775 19.369L77.8875 19.5881C77.4128 20.2728 76.4816 20.8388 75.2219 20.8388C73.3504 20.8388 71.4425 19.4329 71.4425 17.0594C71.4425 14.7772 73.1678 13.1614 75.2675 13.1614C76.2626 13.1614 76.792 13.5904 77.0568 13.5904C77.2028 13.5904 77.2941 13.4809 77.3671 13.2709ZM78.4991 20.711V20.3824C79.1747 20.3824 79.4029 20.3185 79.4029 19.7342V14.266C79.4029 13.6817 79.1656 13.6178 78.4991 13.6178V13.2892H81.6851V13.6178C81.0096 13.6178 80.7814 13.6817 80.7814 14.266V19.7342C80.7814 20.3185 81.0187 20.3824 81.6851 20.3824V20.711H78.4991ZM84.7068 20.711H82.2055V20.3824C82.7532 20.3824 83.0545 20.2819 83.2736 19.6794L85.7019 13.2162H86.3774L88.9883 19.7251C89.2256 20.3002 89.3352 20.3732 89.8555 20.3732V20.7019H86.7426V20.3824C87.7011 20.3824 87.7832 20.3093 87.555 19.7342L86.7791 17.7624H84.4512L83.7665 19.6703C83.5474 20.2545 83.8852 20.3824 84.7068 20.3824V20.711ZM84.5973 17.3516H86.6239L85.5741 14.695L84.5973 17.3516ZM90.3667 20.711V20.3824C91.0423 20.3824 91.2705 20.3185 91.2705 19.7342V14.266C91.2705 13.6817 91.0331 13.6178 90.3667 13.6178V13.2892H93.5436V13.6178C92.8681 13.6178 92.649 13.6817 92.649 14.266V19.7798C92.649 20.2728 92.8954 20.3276 93.2971 20.3276H93.6805C95.1138 20.3276 95.5793 20.1176 95.9719 18.4744L96.2458 18.5109L96.0084 20.7019H90.3667V20.711Z" fill="black"/>
<path d="M43.8771 23.0961L43.9136 25.3145H43.6307C43.4755 23.7169 43.092 23.5252 41.6679 23.5252H41.2115V29.5959C41.2115 30.171 41.4306 30.2623 42.3526 30.2623V30.591H38.6828V30.2532C39.6048 30.2532 39.833 30.171 39.833 29.5868V23.5161H39.3766C37.9525 23.5161 37.5782 23.7078 37.4139 25.3053H37.1309L37.1674 23.087C37.3591 23.1235 37.5873 23.1509 38.2081 23.1509H42.8182C43.4572 23.16 43.6763 23.1326 43.8771 23.0961ZM44.5983 30.591V30.2532C45.2739 30.2532 45.5021 30.1893 45.5021 29.605V24.1368C45.5021 23.5526 45.2647 23.4887 44.5983 23.4887V23.16H47.7843V23.4887C47.1088 23.4887 46.8805 23.5526 46.8805 24.1368V29.605C46.8805 30.1893 47.1179 30.2532 47.7843 30.2532V30.5818H44.5983V30.591ZM57.3697 23.16V23.4887C56.6941 23.4887 56.402 23.5252 56.4659 24.1094L57.041 29.6233C57.1049 30.1893 57.324 30.2441 57.9813 30.2441V30.5727H54.8045V30.2532C55.4709 30.2532 55.6991 30.1893 55.6534 29.6324L55.0509 23.8356L52.7139 30.7096H52.6135L50.3495 23.8356L49.7835 29.6233C49.7196 30.2076 50.1304 30.2623 50.7969 30.2623V30.591H48.3229V30.2532C48.9985 30.2532 49.2267 30.1437 49.2815 29.6142L49.8474 24.1094C49.9114 23.5252 49.6101 23.4887 48.9437 23.4887V23.16H51.5454L53.1156 28.2357L54.8045 23.16H57.3697ZM63.3035 27.8614H63.0296C62.9566 27.1037 62.8927 26.9577 61.925 26.9577H60.793V29.6507C60.793 30.1436 61.0395 30.1984 61.4412 30.1984H62.0528C63.4861 30.1984 63.9516 29.9885 64.3442 28.3453L64.618 28.3818L64.3624 30.5727H58.5108V30.2532C59.1863 30.2532 59.4146 30.1893 59.4146 29.605V24.1368C59.4146 23.5526 59.1772 23.4887 58.5108 23.4887V23.16H64.1433L64.1707 25.0132H63.8877C63.7143 23.6986 63.3856 23.5434 61.9159 23.5434H60.8113V26.5742H61.9433C62.9109 26.5742 62.9748 26.4191 63.0479 25.6522H63.3217V27.8614H63.3035ZM69.2099 29.0573C69.2099 28.3818 68.7808 28.044 68.0414 27.6332L66.8638 27.0216C65.9783 26.5469 65.4579 26.0265 65.4579 25.0954C65.4579 23.9269 66.453 23.0322 67.7493 23.0322C68.6439 23.0322 69.1003 23.4613 69.356 23.4613C69.5294 23.4613 69.6024 23.3517 69.6755 23.1418H69.8854L69.995 25.2232L69.7211 25.2323C69.5751 24.2281 68.8539 23.443 67.8314 23.443C67.0737 23.443 66.5534 23.8995 66.5534 24.5476C66.5534 25.2597 67.092 25.5427 67.6854 25.8713L68.7078 26.4191C69.6663 26.9303 70.3419 27.4598 70.3419 28.4548C70.3419 29.7694 69.2099 30.7096 67.7949 30.7096C66.7999 30.7096 66.316 30.2349 66.0422 30.2349C65.8687 30.2349 65.7866 30.381 65.7135 30.6184H65.5036L65.3575 28.4L65.6314 28.3635C65.8413 29.7328 66.7999 30.3171 67.7493 30.3171C68.5435 30.308 69.2099 29.9519 69.2099 29.0573Z" fill="black"/>
</g>
</g>
<defs>
<clipPath id="clip0_1261:3338">
<rect width="97" height="34" fill="white" transform="translate(0.539062)"/>
</clipPath>
<clipPath id="clip1_1261:3338">
<rect width="96.5161" height="34" fill="white" transform="translate(0.704102)"/>
</clipPath>
</defs>
</svg>
