<svg width="120" height="22" viewBox="0 0 120 22" fill="none" xmlns="http://www.w3.org/2000/svg">
<g clip-path="url(#clip0_2939_10882)">
<path d="M0.503906 0H9.2392C10.9031 0 12.151 0.415967 13.0753 1.10924C14.0921 1.94118 14.6468 3.14286 14.6468 4.62185C14.6468 6.33193 13.9535 7.39496 12.5669 8.04202V8.13445C14.4157 8.7353 15.4787 10.3992 15.4787 12.3866C15.4787 14.2815 14.7392 15.7605 13.5375 16.6849C12.5207 17.4244 11.2266 17.7479 9.47029 17.7479H0.503906V0ZM8.36105 6.93277C9.28542 6.93277 9.9787 6.42437 9.9787 5.36135C9.9787 4.34454 9.28542 3.83614 8.31483 3.83614H5.31063V6.88656H8.36105V6.93277ZM8.77701 13.8193C9.84004 13.8193 10.6258 13.1723 10.6258 12.0168C10.6258 10.7689 9.79382 10.2143 8.77701 10.2143H5.35685V13.8655H8.77701V13.8193Z" fill="black"/>
<path d="M16.2646 0H20.8403V17.7941H16.2646V0Z" fill="black"/>
<path d="M21.7646 11.4622C21.7646 7.44117 24.3529 4.7605 28.3739 4.7605C32.3949 4.7605 34.9369 7.48739 34.9369 11.4622C34.9369 15.4832 32.3949 18.1639 28.3739 18.1639C24.3529 18.1639 21.7646 15.4832 21.7646 11.4622ZM30.3613 11.4622C30.3613 9.24369 29.668 7.85714 28.2815 7.85714C26.8949 7.85714 26.2478 9.24369 26.2478 11.4622C26.2478 13.6807 26.8949 15.1134 28.2815 15.1134C29.668 15.0672 30.3613 13.6807 30.3613 11.4622Z" fill="black"/>
<path d="M35.4453 11.4622C35.4453 7.44117 38.0335 4.7605 42.0545 4.7605C46.0756 4.7605 48.5714 7.44117 48.5714 11.4622C48.5714 15.4832 46.0293 18.1639 42.0083 18.1639C38.0335 18.1639 35.4453 15.4832 35.4453 11.4622ZM44.0419 11.4622C44.0419 9.24369 43.3487 7.85714 41.9621 7.85714C40.5756 7.85714 39.9285 9.24369 39.9285 11.4622C39.9285 13.6807 40.5756 15.1134 41.9621 15.1134C43.3487 15.0672 44.0419 13.6807 44.0419 11.4622Z" fill="black"/>
<path d="M49.4951 5.0841H53.7472V6.97906H53.8397C54.6716 5.50007 55.827 4.71436 57.6758 4.71436C59.2934 4.71436 60.4951 5.50007 61.096 6.88663H61.1884C62.2052 5.22276 63.5455 4.71436 65.117 4.71436C68.075 4.71436 69.3228 6.88662 69.3228 9.79839V17.748H64.8859V10.5841C64.8859 9.28999 64.4699 8.45805 63.3607 8.45805C62.2514 8.45805 61.6968 9.47486 61.6968 10.8614V17.748H57.2598V10.5841C57.2598 9.28999 56.8439 8.45805 55.7346 8.45805C54.6254 8.45805 54.0707 9.47486 54.0707 10.8614V17.748H49.4951V5.0841Z" fill="black"/>
<path d="M74.9155 16.084H74.8693V17.7479H70.6172V0H75.0541V6.37815H75.1466C75.9785 5.26891 77.134 4.66807 78.7516 4.66807C81.9407 4.66807 83.7895 7.53361 83.7895 11.3698C83.7895 15.6681 81.8021 18.1639 78.4743 18.1639C77.0878 18.1639 75.655 17.5168 74.9155 16.084ZM79.2138 11.3235C79.2138 9.28992 78.4743 7.94958 77.134 7.94958C75.7474 7.94958 74.9155 9.28992 74.9155 11.3235C74.9155 13.3571 75.7936 14.6975 77.134 14.6975C78.4743 14.6975 79.2138 13.4034 79.2138 11.3235Z" fill="black"/>
<path d="M84.2979 11.416C84.2979 7.44125 86.9323 4.71436 90.7222 4.71436C92.6172 4.71436 94.0499 5.3152 95.1592 6.37822C96.6382 7.81099 97.2852 10.0295 97.239 12.6177H88.7348C88.9197 14.1891 89.6592 15.0211 90.9995 15.0211C91.7852 15.0211 92.4785 14.6513 92.7558 13.8194H97.0541C96.3146 16.7312 94.0499 18.1639 90.8609 18.1639C86.9323 18.1177 84.2979 15.437 84.2979 11.416ZM88.7348 10.0757H92.8021C92.7096 8.55049 91.8777 7.76478 90.8147 7.76478C89.5668 7.71856 88.8735 8.59671 88.7348 10.0757Z" fill="black"/>
<path d="M102.277 7.25622H102.37C103.294 5.49992 104.496 4.80664 106.021 4.80664C106.391 4.80664 106.622 4.85286 106.761 4.9453V8.82765H106.668C104.034 8.36546 102.509 9.61336 102.509 12.4789V17.794H98.0254V5.08395H102.277V7.25622Z" fill="black"/>
<path d="M107.222 17.794H111.521C111.706 18.3486 112.26 18.857 113.323 18.857C114.756 18.857 115.264 17.9789 115.264 16.6386V15.7142H115.172C114.479 16.5461 113.508 17.147 112.121 17.147C109.395 17.147 106.991 15.1133 106.991 11.1386C106.991 7.4873 108.932 4.66797 111.89 4.66797C113.6 4.66797 114.617 5.36125 115.311 6.42427H115.403V5.03772H119.655V16.0377C119.655 18.0713 118.962 19.6428 117.899 20.5671C116.79 21.5377 115.218 21.9537 113.416 21.9537C109.995 21.9999 107.638 20.6133 107.222 17.794ZM115.449 10.9537C115.449 9.38225 114.71 8.08814 113.416 8.08814C112.168 8.08814 111.382 9.19738 111.382 10.9537C111.382 12.6638 112.168 13.8654 113.416 13.8654C114.663 13.8654 115.449 12.6175 115.449 10.9537Z" fill="black"/>
</g>
<defs>
<clipPath id="clip0_2939_10882">
<rect width="119.151" height="22" fill="white" transform="translate(0.503906)"/>
</clipPath>
</defs>
</svg>
