<svg width="78" height="34" viewBox="0 0 78 34" fill="none" xmlns="http://www.w3.org/2000/svg">
<g clip-path="url(#clip0_1261:3391)">
<path d="M28.1885 11.4356V19.8711H30.2436H32.2987V16.6068C32.2987 13.0892 32.3082 12.965 32.5568 12.4727C32.7145 12.1621 33.0586 11.861 33.3645 11.7701C34.1578 11.536 34.8747 11.8849 35.128 12.6352L35.238 12.965L35.2523 16.4156L35.2666 19.8711H37.3218H39.3769L39.3577 15.7226C39.3434 11.7224 39.3386 11.5646 39.243 11.1488C38.8559 9.48085 37.9383 8.43896 36.5045 8.0375C36.256 7.96581 36.0218 7.94669 35.3575 7.94669C34.6119 7.94669 34.4828 7.96103 34.1626 8.05662C33.5843 8.23823 33.0968 8.52021 32.6763 8.91689L32.2987 9.27056V6.13533V3.0001H30.2436H28.1885V11.4356Z" fill="#39007D"/>
<path d="M70.1731 8.19508C68.9926 11.0483 68.008 13.4284 67.9889 13.4762C67.9555 13.5575 68.0463 13.5623 70.4025 13.5623H72.8495L75.0002 8.36714C76.1855 5.51388 77.1652 3.13856 77.1843 3.08599C77.2178 3.00474 77.1318 2.99996 74.7708 2.99996H72.3238L70.1731 8.19508Z" fill="#39007D"/>
<path d="M18.5803 8.01883C16.4009 8.48242 14.7473 10.2699 14.2215 12.7169C14.0829 13.3717 14.0734 14.6095 14.2024 15.2834C14.7043 17.8738 16.4583 19.7043 18.8192 20.0914C19.4167 20.1918 20.32 20.1583 20.8457 20.0149C21.553 19.8237 22.2173 19.4462 22.6092 19.016C22.7048 18.9061 22.7956 18.8201 22.81 18.8201C22.8243 18.8201 22.8339 19.0543 22.8339 19.3458V19.8715H24.8173H26.8007V14.0169V8.16221H24.8173H22.8339V8.68793C22.8339 8.97469 22.8195 9.21366 22.8004 9.21366C22.7861 9.21366 22.6379 9.0894 22.4802 8.93646C21.9975 8.47764 21.3475 8.14787 20.6258 7.99971C20.1144 7.89457 19.1108 7.90412 18.5803 8.01883ZM21.4096 11.7993C21.706 11.914 21.878 12.0287 22.1552 12.2915C22.7526 12.8555 23.0059 13.6297 22.8625 14.4518C22.5806 16.0672 20.8457 16.9084 19.3545 16.1484C18.8001 15.8665 18.3843 15.3694 18.1979 14.7672C18.0832 14.404 18.0689 13.7588 18.1693 13.3956C18.4178 12.454 19.235 11.7563 20.2052 11.6559C20.6019 11.6177 21.0942 11.675 21.4096 11.7993Z" fill="#39007D"/>
<path d="M45.5838 7.95743C44.0927 8.19162 42.9504 8.74602 41.9994 9.69232C41.1582 10.5335 40.6038 11.5849 40.3409 12.8467C40.2167 13.4584 40.2262 14.6724 40.3648 15.3176C40.8953 17.7885 42.6493 19.4995 45.2015 20.0491C45.8371 20.1829 47.2136 20.1686 47.8731 20.0252C50.4205 19.4565 52.1936 17.6356 52.6429 15.1216C52.7528 14.5003 52.7433 13.4393 52.619 12.818C52.1124 10.285 50.1959 8.43058 47.6437 8.00044C47.2279 7.92875 45.9232 7.90008 45.5838 7.95743ZM47.2136 11.7952C47.6055 11.9147 47.8253 12.0533 48.1503 12.3735C48.6426 12.861 48.8959 13.6353 48.7955 14.3522C48.6235 15.547 47.6724 16.3834 46.4919 16.3834C44.996 16.3834 43.9206 15.0547 44.1978 13.5588C44.3508 12.7415 45.0342 11.9864 45.818 11.7665C46.1717 11.671 46.8599 11.6853 47.2136 11.7952Z" fill="#39007D"/>
<path d="M58.5128 7.99966C57.2607 8.21951 56.0132 8.85994 55.1673 9.71544C54.3261 10.5709 53.7526 11.6941 53.5328 12.9128C53.4276 13.515 53.4276 14.5951 53.5423 15.1878C54.0059 17.6395 55.7313 19.4222 58.2165 20.0053C58.6944 20.1152 58.8522 20.1296 59.6599 20.1296C60.6492 20.1344 60.9837 20.0866 61.8106 19.8189C63.5311 19.2741 64.9601 17.8833 65.5814 16.1532C65.8156 15.4936 65.9112 14.901 65.916 14.0646C65.916 12.9654 65.7344 12.1433 65.2995 11.2592C64.4392 9.52426 62.8142 8.33421 60.8356 7.99966C60.2764 7.90407 59.0529 7.90407 58.5128 7.99966ZM60.415 11.7944C61.4234 12.1051 62.0878 13.104 62.0065 14.1841C61.9109 15.4602 60.9407 16.3826 59.6838 16.3826C59.0433 16.3826 58.4889 16.1532 58.0349 15.6944C56.8066 14.4661 57.3132 12.3154 58.9573 11.7897C59.3444 11.6702 60.0088 11.6702 60.415 11.7944Z" fill="#39007D"/>
<path d="M0.768145 8.21911C0.782483 8.25257 1.89606 10.8716 3.23905 14.0403C4.58682 17.209 5.69562 19.8424 5.70996 19.895C5.71952 19.9523 5.36107 20.8652 4.84968 22.0696L3.97029 24.1486L6.14488 24.1629C7.33971 24.1677 8.32903 24.1629 8.33859 24.1534C8.37204 24.1247 14.9484 8.25257 14.9484 8.20478C14.9484 8.18088 14.0594 8.16176 12.7977 8.16176C10.7521 8.16176 10.647 8.16654 10.604 8.25257C10.5753 8.30036 9.97311 9.82019 9.25621 11.6315C8.5441 13.4429 7.94668 14.9388 7.92756 14.958C7.90845 14.9771 7.33971 13.5719 6.66104 11.8275C5.9776 10.0878 5.37541 8.54889 5.31328 8.41029L5.20335 8.16176H2.97141C1.20784 8.16176 0.749028 8.1761 0.768145 8.21911Z" fill="#39007D"/>
<path d="M68.5354 14.7099C68.0431 14.839 67.6416 15.0684 67.2832 15.4268C66.7431 15.9621 66.4707 16.6217 66.4707 17.3864C66.4707 18.1319 66.7336 18.7819 67.245 19.2885C68.11 20.1584 69.496 20.3065 70.6048 19.6613C71.1258 19.3554 71.6037 18.7007 71.8044 18.0316C71.9191 17.6444 71.9191 16.9371 71.8044 16.55C71.3838 15.1401 69.9596 14.3372 68.5354 14.7099Z" fill="#39007D"/>
<path d="M34.6685 21.0187C33.8465 21.3484 33.5645 22.3664 34.0998 23.0642C34.267 23.2888 34.6016 23.4896 34.9075 23.5517C35.113 23.5947 35.2181 23.5899 35.4571 23.5326C36.3269 23.308 36.738 22.4333 36.3413 21.6543C36.045 21.0617 35.2803 20.7701 34.6685 21.0187Z" fill="#7E1FFF"/>
<path d="M31.4623 21.0135C31.0608 21.0804 30.8075 21.1617 30.4778 21.3385C29.6462 21.7687 29.1682 22.5907 29.1013 23.6947L29.0727 24.1966L28.633 24.2109L28.1885 24.2252V25.1763V26.1274L28.633 26.1417L29.0727 26.1561L29.087 28.4836L29.0965 30.8159H30.2914H31.4862V28.4741V26.1322H32.2987H33.1112V25.1763V24.2205H32.2939H31.4766L31.4958 23.9146C31.5292 23.3793 31.8255 23.083 32.3799 23.0352C32.6046 23.0161 32.9009 23.0639 33.1303 23.1499C33.202 23.1786 33.2068 23.0925 33.1972 22.1845L33.1829 21.1856L32.92 21.0996C32.6237 20.9992 31.8303 20.9562 31.4623 21.0135Z" fill="#7E1FFF"/>
<path d="M40.9898 24.0962C40.6361 24.1966 40.2872 24.4116 40.0339 24.6888L39.7998 24.9469V24.5837V24.2205H38.581H37.3623V27.5182V30.8159H38.581H39.7998V28.9137C39.7998 27.7572 39.8189 26.9494 39.8476 26.8395C39.9097 26.6245 40.0961 26.395 40.292 26.2899C40.5788 26.1417 41.0328 26.2182 41.2431 26.4524C41.463 26.6961 41.4725 26.7822 41.4725 28.8564V30.8159H42.696H43.9148L43.8956 28.4406C43.8813 26.4237 43.867 26.0127 43.8 25.7594C43.5611 24.8657 42.9637 24.2539 42.1512 24.0819C41.8262 24.0149 41.2718 24.0197 40.9898 24.0962Z" fill="#7E1FFF"/>
<path d="M46.9326 24.1247C46.4021 24.2633 46.0388 24.4784 45.6039 24.9133C45.169 25.3482 44.8966 25.8166 44.715 26.4475C44.5573 26.9923 44.5573 28.0438 44.715 28.5886C45.0352 29.6974 45.7951 30.5386 46.751 30.8444C47.7259 31.1503 48.677 30.983 49.3366 30.3761L49.5994 30.1371V30.4764V30.8158H50.7943H51.9891V27.518V24.2203H50.7943H49.5994V24.5501V24.8846L49.37 24.66C48.7965 24.1008 47.8311 23.8905 46.9326 24.1247ZM48.9447 26.3232C49.7476 26.7294 49.9149 27.7952 49.2792 28.45C49.0116 28.7272 48.7392 28.8324 48.2851 28.8324C47.984 28.8324 47.8598 28.8085 47.7068 28.7272C47.4057 28.5695 47.2432 28.4118 47.0998 28.1441C46.7079 27.4272 47.0473 26.5287 47.8167 26.2467C48.0987 26.1416 48.6627 26.1798 48.9447 26.3232Z" fill="#7E1FFF"/>
<path d="M56.721 24.0627C56.3196 24.1392 55.7699 24.4738 55.5692 24.7653C55.5071 24.8561 55.4402 24.9182 55.4211 24.9087C55.4019 24.8943 55.3828 24.7366 55.3828 24.5502V24.2205H54.188H52.9932V27.5182V30.8159H54.1832H55.378L55.3924 28.8899L55.4067 26.9638L55.5501 26.6818C55.7222 26.352 55.9324 26.2182 56.2861 26.2182C56.6685 26.2182 56.917 26.4046 57.046 26.7965C57.0843 26.9064 57.1034 27.5564 57.1034 28.8851V30.8159H58.2982H59.493V28.4597C59.493 26.266 59.4883 26.0748 59.3975 25.7307C59.1776 24.8561 58.6519 24.316 57.8346 24.101C57.5765 24.0341 56.9887 24.0149 56.721 24.0627Z" fill="#7E1FFF"/>
<path d="M63.0379 24.0772C61.8813 24.2874 60.9015 25.0569 60.4618 26.1084C60.2659 26.5767 60.1942 27.0499 60.2229 27.7047C60.2611 28.6892 60.5431 29.3774 61.1692 29.9987C61.6901 30.5197 62.3401 30.8351 63.1861 30.9641C63.7787 31.0597 64.5482 30.9594 65.1073 30.7204L65.3224 30.6296V29.5495C65.3224 28.9521 65.3081 28.4741 65.289 28.4837C64.5099 28.8804 64.1037 28.9329 63.4824 28.7274C63.1765 28.6271 62.7846 28.2447 62.7033 27.9675C62.6173 27.6712 62.6317 27.1933 62.7368 26.9686C62.8611 26.701 63.1 26.4716 63.4107 26.3282C63.6353 26.2231 63.7357 26.2039 64.1276 26.2039C64.5864 26.2039 64.6103 26.2087 65.2651 26.5003C65.3081 26.5194 65.3224 26.2948 65.3224 25.4679V24.4117L65.1981 24.3352C64.8493 24.1058 63.6735 23.9672 63.0379 24.0772Z" fill="#7E1FFF"/>
<path d="M68.5237 24.0961C67.2954 24.3542 66.2679 25.291 65.9238 26.4619C65.5462 27.7427 65.8999 29.2673 66.7601 30.0798C67.1664 30.467 67.7829 30.7824 68.4042 30.9162C68.8678 31.0214 69.948 30.9927 70.4115 30.8684C70.9229 30.7298 71.4009 30.4956 71.745 30.2184C72.0461 29.9699 72.4714 29.4346 72.4093 29.3821C72.3902 29.3629 71.9361 29.1813 71.4056 28.9758L70.4402 28.603L70.2156 28.8038C69.709 29.2482 68.9347 29.2482 68.452 28.8038C68.2513 28.6174 68.0601 28.2302 68.1223 28.1347C68.1366 28.1108 69.1689 28.0916 70.4211 28.0916H72.6961L72.6674 27.4321C72.6387 26.6817 72.567 26.3615 72.2994 25.8215C71.8836 24.9755 71.1858 24.402 70.2682 24.1487C69.8763 24.0436 68.9204 24.0149 68.5237 24.0961ZM69.6755 25.8979C70.0053 25.9983 70.2777 26.2851 70.359 26.6196L70.3877 26.7534H69.2645H68.1414V26.6435C68.1414 26.5814 68.2035 26.4332 68.28 26.3137C68.5333 25.917 69.1307 25.7354 69.6755 25.8979Z" fill="#7E1FFF"/>
<path d="M33.9697 27.5182V30.8159H35.1646H36.3594V27.5182V24.2205H35.1646H33.9697V27.5182Z" fill="#7E1FFF"/>
</g>
<defs>
<clipPath id="clip0_1261:3391">
<rect width="77" height="34" fill="white" transform="translate(0.671875)"/>
</clipPath>
</defs>
</svg>
