<svg width="97" height="164" viewBox="0 0 97 164" fill="none" xmlns="http://www.w3.org/2000/svg">
<path d="M28.23 47H48.21C53.07 47 59.48 47 62.79 49.01C66.42 51.17 69.27 55.1 69.27 60.51C69.27 66.37 66.19 70.77 61.09 72.85V73.01C67.88 74.4 71.58 79.49 71.58 86.28C71.58 94.38 65.79 102.1 54.84 102.1H28.23V47ZM35.56 70.68H50.23C58.56 70.68 61.96 67.67 61.96 61.88C61.96 54.24 56.56 53.16 50.23 53.16H35.56V70.68ZM35.56 95.91H53.93C60.25 95.91 64.27 92.05 64.27 86.04C64.27 78.86 58.48 76.86 52.31 76.86H35.56V95.91Z" fill="white"/>
<path d="M90.3299 74.56C90.3299 97.7 71.5699 116.46 48.4199 116.46C25.2799 116.46 6.51992 97.7 6.51992 74.56C6.51992 51.42 25.2799 32.66 48.4199 32.66C71.5699 32.67 90.3299 51.43 90.3299 74.56ZM48.4299 26.28C21.7799 26.28 0.169922 47.89 0.169922 74.54C0.169922 101.19 21.7799 122.8 48.4299 122.8C75.0899 122.8 96.6999 101.19 96.6999 74.54C96.6999 47.89 75.0899 26.28 48.4299 26.28Z" fill="white"/>
<path d="M96.5898 132.99H0.259766V139.32H96.5898V132.99Z" fill="white"/>
<path d="M93.58 126.02C93.7 126.02 93.81 126.01 93.92 126.01C94.02 126 94.12 125.98 94.2 125.95C94.29 125.91 94.35 125.85 94.4 125.78C94.45 125.7 94.47 125.6 94.47 125.47C94.47 125.36 94.45 125.26 94.41 125.2C94.37 125.13 94.31 125.08 94.24 125.05C94.17 125.01 94.1 124.99 94 124.97C93.91 124.96 93.83 124.96 93.73 124.96H93.04V126.03H93.58V126.02ZM93.81 124.52C94.21 124.52 94.5 124.6 94.7 124.76C94.89 124.92 94.99 125.16 94.99 125.49C94.99 125.8 94.9 126.01 94.74 126.16C94.57 126.3 94.36 126.38 94.1 126.41L95.06 127.89H94.5L93.58 126.44H93.03V127.89H92.5V124.53H93.81V124.52ZM91.45 127.17C91.56 127.47 91.73 127.74 91.95 127.96C92.16 128.18 92.41 128.35 92.7 128.48C92.98 128.6 93.3 128.66 93.63 128.66C93.97 128.66 94.28 128.6 94.56 128.48C94.85 128.35 95.1 128.18 95.31 127.96C95.52 127.74 95.69 127.48 95.8 127.17C95.92 126.87 95.99 126.55 95.99 126.2C95.99 125.85 95.93 125.53 95.8 125.23C95.68 124.93 95.51 124.67 95.31 124.45C95.09 124.23 94.84 124.06 94.56 123.94C94.28 123.82 93.96 123.75 93.63 123.75C93.3 123.75 92.98 123.82 92.7 123.94C92.41 124.07 92.15 124.24 91.95 124.45C91.73 124.67 91.57 124.93 91.45 125.23C91.33 125.53 91.27 125.84 91.27 126.2C91.26 126.54 91.32 126.87 91.45 127.17ZM90.97 125.06C91.12 124.71 91.33 124.42 91.59 124.16C91.85 123.9 92.16 123.71 92.51 123.56C92.86 123.41 93.24 123.34 93.62 123.34C94.02 123.34 94.39 123.41 94.75 123.56C95.09 123.71 95.4 123.9 95.65 124.16C95.91 124.42 96.13 124.72 96.27 125.06C96.43 125.41 96.5 125.79 96.5 126.2C96.5 126.61 96.43 126.99 96.27 127.34C96.12 127.7 95.91 128 95.65 128.26C95.39 128.53 95.09 128.72 94.75 128.87C94.39 129.01 94.02 129.08 93.62 129.08C93.23 129.08 92.86 129.01 92.51 128.87C92.16 128.72 91.85 128.53 91.59 128.26C91.33 128 91.12 127.7 90.97 127.34C90.81 126.99 90.75 126.61 90.75 126.2C90.74 125.79 90.81 125.41 90.97 125.06Z" fill="white"/>
<path d="M11.9398 5.06C11.7098 4.69 11.4298 4.37 11.0898 4.1C10.7498 3.82 10.3598 3.61 9.92977 3.45C9.49977 3.3 9.04977 3.22 8.57977 3.22C7.71977 3.22 6.98977 3.39 6.37977 3.72C5.77977 4.05 5.28977 4.5 4.91977 5.06C4.54977 5.62 4.26977 6.26 4.09977 6.98C3.92977 7.7 3.83977 8.44 3.83977 9.2C3.83977 9.93 3.91977 10.64 4.09977 11.33C4.26977 12.02 4.53977 12.64 4.91977 13.2C5.28977 13.75 5.77977 14.2 6.37977 14.53C6.97977 14.86 7.70977 15.03 8.57977 15.03C9.74977 15.03 10.6698 14.67 11.3198 13.96C11.9798 13.24 12.3798 12.3 12.5298 11.13H16.2398C16.1398 12.22 15.8898 13.2 15.4798 14.08C15.0698 14.96 14.5398 15.71 13.8698 16.32C13.1998 16.94 12.4198 17.41 11.5298 17.74C10.6398 18.06 9.64977 18.23 8.57977 18.23C7.24977 18.23 6.04977 18 4.97977 17.53C3.90977 17.07 3.01977 16.43 2.27977 15.61C1.54977 14.8 0.989766 13.84 0.599766 12.74C0.209766 11.64 0.00976562 10.46 0.00976562 9.19C0.00976562 7.89 0.199766 6.68 0.599766 5.57C0.989766 4.46 1.54977 3.48 2.27977 2.66C3.00977 1.83 3.90977 1.18 4.97977 0.709999C6.03977 0.239999 7.23977 0 8.57977 0C9.53977 0 10.4498 0.14 11.2998 0.41C12.1498 0.69 12.9198 1.09 13.5898 1.62C14.2598 2.15 14.8198 2.8 15.2598 3.58C15.6998 4.36 15.9798 5.26 16.0898 6.26H12.3798C12.3098 5.82 12.1698 5.42 11.9398 5.06Z" fill="white"/>
<path d="M21.2297 14.8C21.7497 15.3 22.4997 15.56 23.4697 15.56C24.1697 15.56 24.7697 15.39 25.2797 15.04C25.7797 14.69 26.0897 14.32 26.2097 13.93H29.2597C28.7697 15.44 28.0197 16.53 27.0097 17.18C25.9997 17.83 24.7797 18.16 23.3497 18.16C22.3597 18.16 21.4597 18 20.6697 17.68C19.8697 17.36 19.1997 16.91 18.6397 16.33C18.0897 15.75 17.6597 15.05 17.3597 14.23C17.0597 13.42 16.9097 12.52 16.9097 11.55C16.9097 10.61 17.0597 9.73002 17.3697 8.92002C17.6797 8.11002 18.1197 7.40002 18.6897 6.81002C19.2597 6.22002 19.9397 5.75002 20.7297 5.41002C21.5197 5.07002 22.3897 4.90002 23.3497 4.90002C24.4197 4.90002 25.3597 5.11003 26.1597 5.52003C26.9597 5.94003 27.6097 6.49003 28.1197 7.19003C28.6297 7.89003 28.9997 8.69002 29.2297 9.58002C29.4597 10.47 29.5397 11.41 29.4697 12.39H20.3697C20.4197 13.48 20.6997 14.3 21.2297 14.8ZM25.1397 8.17002C24.7197 7.72002 24.0897 7.49002 23.2497 7.49002C22.6997 7.49002 22.2397 7.58003 21.8697 7.77003C21.4997 7.96003 21.2097 8.19002 20.9897 8.46002C20.7697 8.74002 20.6197 9.03003 20.5297 9.34002C20.4397 9.65002 20.3897 9.92002 20.3697 10.17H26.0097C25.8497 9.29002 25.5597 8.62002 25.1397 8.17002Z" fill="white"/>
<path d="M34.3298 5.20999V7.54999H34.3798C34.5398 7.15999 34.7598 6.79999 35.0398 6.45999C35.3198 6.12999 35.6298 5.83999 35.9898 5.60999C36.3498 5.37999 36.7298 5.18999 37.1398 5.05999C37.5498 4.92999 37.9698 4.87 38.4098 4.87C38.6398 4.87 38.8898 4.90999 39.1698 4.98999V8.20999C39.0098 8.17999 38.8098 8.14999 38.5798 8.12999C38.3498 8.10999 38.1298 8.08999 37.9198 8.08999C37.2898 8.08999 36.7498 8.19999 36.3098 8.40999C35.8698 8.61999 35.5198 8.91 35.2498 9.27999C34.9798 9.64999 34.7898 10.07 34.6798 10.56C34.5698 11.05 34.5098 11.58 34.5098 12.15V17.84H31.0498V5.20999H34.3298Z" fill="white"/>
<path d="M48.4296 5.20994V7.52994H45.8896V13.7799C45.8896 14.3699 45.9896 14.7599 46.1796 14.9499C46.3696 15.1399 46.7696 15.2399 47.3496 15.2399C47.5496 15.2399 47.7296 15.2299 47.9096 15.2199C48.0896 15.1999 48.2596 15.1799 48.4196 15.1499V17.8299C48.1296 17.8799 47.7996 17.9099 47.4396 17.9299C47.0796 17.9499 46.7296 17.9599 46.3896 17.9599C45.8496 17.9599 45.3396 17.9199 44.8696 17.8499C44.3896 17.7799 43.9696 17.6399 43.5996 17.4199C43.2296 17.2099 42.9496 16.9099 42.7296 16.5199C42.5196 16.1299 42.4096 15.6199 42.4096 14.9799V7.53994H40.3096V5.21994H42.4096V1.43994H45.8696V5.21994H48.4296V5.20994Z" fill="white"/>
<path d="M50.4497 3.26003V0.400024H53.9097V3.26003H50.4497ZM53.9097 5.21002V17.82H50.4497V5.21002H53.9097Z" fill="white"/>
<path d="M55.2896 7.53003V5.21002H57.3596V4.23002C57.3596 3.11002 57.7095 2.19002 58.4095 1.47002C59.1095 0.750024 60.1696 0.400024 61.5796 0.400024C61.8896 0.400024 62.1996 0.410025 62.5096 0.440025C62.8196 0.460025 63.1195 0.490025 63.4095 0.500025V3.09002C62.9995 3.04002 62.5795 3.02003 62.1395 3.02003C61.6695 3.02003 61.3295 3.13003 61.1295 3.35003C60.9295 3.57003 60.8296 3.94002 60.8296 4.46002V5.22002H63.2196V7.54002H60.8296V17.84H57.3596V7.54002H55.2896V7.53003Z" fill="white"/>
<path d="M65.5596 3.26003V0.400024H69.0196V3.26003H65.5596ZM69.0296 5.21002V17.82H65.5596V5.21002H69.0296Z" fill="white"/>
<path d="M74.4897 14.8C75.0097 15.3 75.7597 15.56 76.7297 15.56C77.4297 15.56 78.0297 15.39 78.5397 15.04C79.0397 14.69 79.3497 14.32 79.4697 13.93H82.5197C82.0297 15.44 81.2797 16.53 80.2797 17.18C79.2697 17.83 78.0497 18.16 76.6197 18.16C75.6297 18.16 74.7297 18 73.9397 17.68C73.1397 17.36 72.4697 16.91 71.9097 16.33C71.3597 15.75 70.9297 15.05 70.6297 14.23C70.3297 13.42 70.1797 12.52 70.1797 11.55C70.1797 10.61 70.3397 9.73001 70.6397 8.92001C70.9497 8.08001 71.3897 7.38 71.9597 6.79C72.5297 6.2 73.2097 5.73001 73.9997 5.39001C74.7897 5.05001 75.6597 4.88 76.6197 4.88C77.6897 4.88 78.6297 5.09001 79.4297 5.50001C80.2297 5.92001 80.8797 6.47001 81.3897 7.17001C81.8997 7.87001 82.2697 8.67001 82.4997 9.56001C82.7297 10.45 82.8097 11.39 82.7497 12.37H73.6497C73.6897 13.48 73.9697 14.3 74.4897 14.8ZM78.4097 8.17001C77.9997 7.72001 77.3597 7.49001 76.5197 7.49001C75.9697 7.49001 75.5097 7.58001 75.1397 7.77001C74.7697 7.96001 74.4797 8.19 74.2597 8.46C74.0397 8.74 73.8897 9.03001 73.7997 9.34001C73.7097 9.65001 73.6597 9.92001 73.6397 10.17H79.2697C79.1097 9.29001 78.8197 8.62001 78.4097 8.17001Z" fill="white"/>
<path d="M93.2595 16.22C92.8495 16.9 92.3195 17.4 91.6595 17.7C90.9995 18 90.2595 18.15 89.4295 18.15C88.4895 18.15 87.6595 17.97 86.9395 17.6C86.2195 17.23 85.6295 16.74 85.1695 16.11C84.7095 15.48 84.3595 14.76 84.1195 13.95C83.8795 13.14 83.7695 12.29 83.7695 11.41C83.7695 10.56 83.8895 9.75003 84.1195 8.96003C84.3495 8.17003 84.7095 7.48004 85.1695 6.87004C85.6295 6.27004 86.2195 5.78003 86.9095 5.42003C87.6095 5.05003 88.4195 4.87004 89.3495 4.87004C90.0995 4.87004 90.8095 5.03003 91.4795 5.35003C92.1595 5.67003 92.6895 6.13003 93.0795 6.75003H93.1295V0.410034H96.5895V17.83H93.2995V16.22H93.2595ZM93.1095 9.98003C93.0095 9.50003 92.8495 9.08003 92.6095 8.71003C92.3695 8.34003 92.0695 8.05003 91.6895 7.82003C91.3195 7.59003 90.8395 7.48003 90.2795 7.48003C89.7195 7.48003 89.2295 7.59003 88.8395 7.82003C88.4495 8.05003 88.1395 8.35003 87.8995 8.72003C87.6695 9.09003 87.4995 9.52003 87.3895 10C87.2795 10.48 87.2295 10.98 87.2295 11.5C87.2295 11.99 87.2895 12.48 87.3995 12.96C87.5095 13.45 87.6995 13.88 87.9495 14.27C88.1995 14.65 88.5195 14.96 88.8995 15.2C89.2795 15.44 89.7395 15.55 90.2795 15.55C90.8495 15.55 91.3195 15.44 91.7095 15.21C92.0895 14.98 92.3995 14.68 92.6295 14.29C92.8595 13.91 93.0195 13.47 93.1195 12.99C93.2195 12.5 93.2695 12 93.2695 11.48C93.2595 10.96 93.2095 10.46 93.1095 9.98003Z" fill="white"/>
<path d="M8.71 151.75C8.54 150.53 7.37 149.6 6.03 149.6C3.61 149.6 2.7 151.66 2.7 153.81C2.7 155.85 3.61 157.91 6.03 157.91C7.68 157.91 8.61 156.78 8.81 155.16H11.43C11.15 158.22 9.04 160.18 6.03 160.18C2.23 160.18 0 157.34 0 153.81C0 150.17 2.23 147.33 6.03 147.33C8.73 147.33 10.99 148.91 11.32 151.75H8.71Z" fill="white"/>
<path d="M17.0602 150.77C19.8602 150.77 21.6602 152.62 21.6602 155.46C21.6602 158.28 19.8602 160.13 17.0602 160.13C14.2802 160.13 12.4702 158.27 12.4702 155.46C12.4702 152.63 14.2802 150.77 17.0602 150.77ZM17.0602 158.3C18.7302 158.3 19.2202 156.87 19.2202 155.47C19.2202 154.04 18.7202 152.62 17.0602 152.62C15.4102 152.62 14.9102 154.05 14.9102 155.47C14.9102 156.87 15.4102 158.3 17.0602 158.3Z" fill="white"/>
<path d="M23.1699 151H25.4899V152.65H25.5299C25.9699 151.53 27.1799 150.76 28.3699 150.76C28.5399 150.76 28.7499 150.79 28.8999 150.84V153.11C28.6699 153.06 28.3099 153.03 28.0199 153.03C26.2299 153.03 25.6099 154.32 25.6099 155.88V159.88H23.1699V151Z" fill="white"/>
<path d="M29.8498 151.01H32.1698V152.14H32.1998C32.7798 151.2 33.7398 150.77 34.8398 150.77C37.6298 150.77 38.8798 153.02 38.8798 155.54C38.8798 157.91 37.5798 160.13 34.9798 160.13C33.9198 160.13 32.8998 159.67 32.3198 158.79H32.2798V163.02H29.8398V151.01H29.8498ZM36.4398 155.48C36.4398 154.07 35.8698 152.61 34.3098 152.61C32.7098 152.61 32.1998 154.04 32.1998 155.48C32.1998 156.92 32.7498 158.3 34.3298 158.3C35.9298 158.3 36.4398 156.92 36.4398 155.48Z" fill="white"/>
<path d="M44.2299 150.77C47.0299 150.77 48.8399 152.62 48.8399 155.46C48.8399 158.28 47.0299 160.13 44.2299 160.13C41.4499 160.13 39.6499 158.27 39.6499 155.46C39.6499 152.63 41.4499 150.77 44.2299 150.77ZM44.2299 158.3C45.8999 158.3 46.3999 156.87 46.3999 155.47C46.3999 154.04 45.8999 152.62 44.2299 152.62C42.5799 152.62 42.0799 154.05 42.0799 155.47C42.0899 156.87 42.5899 158.3 44.2299 158.3Z" fill="white"/>
<path d="M50.3498 151H52.6698V152.65H52.7098C53.1498 151.53 54.3598 150.76 55.5398 150.76C55.7098 150.76 55.9198 150.79 56.0698 150.84V153.11C55.8498 153.06 55.4899 153.03 55.1898 153.03C53.3998 153.03 52.7798 154.32 52.7798 155.88V159.88H50.3398V151H50.3498Z" fill="white"/>
<path d="M56.79 153.74C56.93 151.45 58.97 150.77 60.97 150.77C62.74 150.77 64.87 151.16 64.87 153.29V157.91C64.87 158.72 64.95 159.52 65.18 159.89H62.7C62.62 159.61 62.54 159.32 62.53 159.03C61.76 159.84 60.63 160.13 59.54 160.13C57.86 160.13 56.52 159.29 56.52 157.47C56.52 155.46 58.03 154.98 59.54 154.77C61.04 154.55 62.43 154.6 62.43 153.6C62.43 152.55 61.7 152.4 60.85 152.4C59.92 152.4 59.32 152.78 59.23 153.74H56.79ZM62.42 155.55C62 155.91 61.15 155.93 60.39 156.07C59.63 156.22 58.95 156.48 58.95 157.38C58.95 158.29 59.65 158.51 60.45 158.51C62.35 158.51 62.43 157 62.43 156.47V155.55H62.42Z" fill="white"/>
<path d="M69.7901 151.01H71.5801V152.64H69.7901V157.04C69.7901 157.87 70.0001 158.07 70.8201 158.07C71.0801 158.07 71.3201 158.05 71.5801 158V159.91C71.1701 159.98 70.6301 160 70.1501 160C68.6601 160 67.3501 159.65 67.3501 157.89V152.65H65.8701V151.02H67.3501V148.36H69.7901V151.01Z" fill="white"/>
<path d="M75.8599 149.64H73.4199V147.63H75.8599V149.64ZM73.4199 151.01H75.8599V159.89H73.4199V151.01Z" fill="white"/>
<path d="M82.08 150.77C84.88 150.77 86.69 152.62 86.69 155.46C86.69 158.28 84.88 160.13 82.08 160.13C79.3 160.13 77.5 158.27 77.5 155.46C77.5 152.63 79.3 150.77 82.08 150.77ZM82.08 158.3C83.75 158.3 84.25 156.87 84.25 155.47C84.25 154.04 83.75 152.62 82.08 152.62C80.43 152.62 79.93 154.05 79.93 155.47C79.93 156.87 80.43 158.3 82.08 158.3Z" fill="white"/>
<path d="M88.2598 151.01H90.5798V152.25H90.6298C91.2498 151.25 92.3098 150.77 93.3498 150.77C95.9398 150.77 96.5998 152.23 96.5998 154.43V159.89H94.1598V154.87C94.1598 153.41 93.7298 152.69 92.5998 152.69C91.2698 152.69 90.7098 153.43 90.7098 155.24V159.9H88.2698V151.01H88.2598Z" fill="white"/>
</svg>
