<svg width="123" height="28" viewBox="0 0 123 28" fill="none" xmlns="http://www.w3.org/2000/svg">
<g clip-path="url(#clip0_2939_10862)">
<path d="M0.829102 0.5L11.0836 27.5H12.9719L2.71745 0.5H0.829102Z" fill="#DF005A"/>
<path d="M22.7104 14.0029C23.3217 14.2067 23.8817 14.415 24.3905 14.6277C24.8668 14.8218 25.315 15.0787 25.7234 15.3914C26.0948 15.678 26.3983 16.043 26.6122 16.4604C26.8356 16.9238 26.9451 17.4339 26.9318 17.9482V17.9757C26.9635 18.597 26.8538 19.2174 26.6109 19.7901C26.368 20.3628 25.9982 20.8729 25.5294 21.2818C24.5942 22.0775 23.2842 22.4755 21.5995 22.4759C20.539 22.4748 19.4866 22.2901 18.489 21.9298C17.4618 21.5608 16.4972 21.0366 15.6287 20.3754L15.6006 20.3473L15.6287 20.3192L17.517 17.3382L17.5451 17.3657C18.0748 17.9404 18.7177 18.3992 19.4335 18.713C20.1435 19.0197 20.9094 19.1756 21.6828 19.1709C22.7749 19.1709 23.3211 18.8199 23.3215 18.1179C23.3206 17.9543 23.2695 17.7949 23.1751 17.6613C23.0807 17.5276 22.9475 17.4262 22.7936 17.3707C22.3887 17.1841 21.9711 17.0265 21.5439 16.899C21.4591 16.8652 21.3705 16.842 21.28 16.8302C21.1893 16.8195 21.1007 16.7961 21.0166 16.7607C20.4611 16.6138 19.9057 16.4523 19.3503 16.2764C18.8174 16.112 18.3119 15.8693 17.8504 15.5562C17.4057 15.2502 17.0318 14.8524 16.7539 14.3897C16.4461 13.836 16.2972 13.2081 16.3235 12.5752V12.5201C16.3159 11.91 16.439 11.3054 16.6844 10.7469C16.9219 10.2157 17.2726 9.74293 17.7121 9.36162C18.1841 8.95802 18.7316 8.65217 19.3227 8.4618C19.9949 8.2424 20.6985 8.13462 21.4056 8.14276C22.3183 8.14642 23.2257 8.28209 24.0995 8.54556C24.9964 8.8097 25.8483 9.2076 26.6265 9.72585V9.78095L24.9327 12.8634L24.9051 12.8358C24.4525 12.3929 23.9136 12.0478 23.322 11.8219C22.6854 11.5709 22.0067 11.4437 21.3224 11.4472C21.1739 11.4484 21.0257 11.4578 20.8783 11.4753C20.718 11.4916 20.5623 11.5386 20.4198 11.6136C20.2846 11.6849 20.1662 11.7843 20.0727 11.9051C19.9709 12.0565 19.9221 12.2372 19.9338 12.4192C19.936 12.5069 19.9568 12.5931 19.9948 12.6721C20.0328 12.7512 20.0871 12.8212 20.1542 12.8777C20.3256 13.0323 20.517 13.1629 20.7234 13.2662C20.9761 13.3964 21.2359 13.5124 21.5015 13.6138C21.788 13.7241 22.0703 13.8258 22.3484 13.9191C22.4094 13.92 22.47 13.9293 22.5286 13.9467C22.5936 13.9654 22.6536 13.9841 22.7093 14.0018" fill="#DF005A"/>
<path d="M28.3193 8.36532H32.0112V22.251H28.3193V8.36532ZM28.3193 2.81104H32.0112V6.06206H28.3193V2.81104Z" fill="#DF005A"/>
<path d="M39.5386 10.7534H43.6211V13.8347H41.233L39.5386 10.7534ZM43.6211 2.81043V6.06145H40.5938C40.3767 6.05149 40.1607 6.09726 39.9662 6.19438C39.7718 6.2915 39.6054 6.43676 39.483 6.61632C39.2001 7.07366 39.0645 7.60684 39.0945 8.14375V22.2499H35.4027V13.8347H33.4014V10.7534H35.401V7.97624C35.3976 7.28926 35.5345 6.60881 35.8033 5.97659C36.3279 4.72975 37.3198 3.73784 38.5666 3.21322C39.208 2.94266 39.8978 2.80561 40.5938 2.81043H43.6211Z" fill="#DF005A"/>
<path d="M54.6745 9.81218V12.8946H52.6197L50.8978 9.81218H54.6745ZM50.4256 17.5022C50.4221 17.7047 50.4611 17.9057 50.54 18.0922C50.619 18.2787 50.7362 18.4466 50.884 18.585C51.0277 18.7287 51.1988 18.8422 51.3872 18.9186C51.5755 18.9949 51.7773 19.0327 51.9805 19.0297H54.6745V22.2509H51.9805C51.2808 22.2551 50.5874 22.1181 49.9418 21.8481C49.3177 21.591 48.7504 21.2135 48.2722 20.7373C47.7974 20.2613 47.4159 19.7006 47.1475 19.0842C46.8677 18.4453 46.7257 17.7545 46.731 17.057V12.8913H44.7324V9.81218H46.7321V4.78247H50.4239L50.4256 17.5022Z" fill="#DF005A"/>
<path d="M62.3113 8.1426C63.2666 8.13744 64.2124 8.33149 65.0885 8.71236C66.8046 9.44712 68.172 10.8143 68.907 12.5304C69.2894 13.4158 69.4832 14.3712 69.4763 15.3356C69.4781 15.8584 69.4226 16.3799 69.3109 16.8906L69.2828 16.9457H62.2298L60.4494 14.1135H65.726C65.4861 13.365 65.0381 12.7003 64.4344 12.197C63.8396 11.6997 63.0854 11.4337 62.3102 11.4476C61.8215 11.4451 61.338 11.5491 60.8936 11.7523C60.4603 11.9473 60.069 12.2244 59.7414 12.5684C59.41 12.9208 59.1506 13.3344 58.9777 13.7862C58.7896 14.2761 58.6962 14.7971 58.7022 15.3218C58.7068 15.7713 58.7915 16.2163 58.9523 16.636C59.1175 17.0863 59.362 17.5034 59.6742 17.8676C59.9955 18.2417 60.381 18.5556 60.8126 18.7944C61.2716 19.0471 61.7885 19.1759 62.3124 19.168C62.7799 19.1734 63.2451 19.1031 63.69 18.9597C64.1675 18.7743 64.5786 18.4501 64.8703 18.029L64.8978 18.0015L64.9529 18.029L68.1742 19.4479L68.1191 19.503C67.4635 20.4278 66.5911 21.1778 65.5783 21.6872C64.569 22.2058 63.45 22.4749 62.3152 22.4719C61.3477 22.4781 60.3889 22.289 59.4962 21.9159C58.6399 21.5616 57.8614 21.0427 57.205 20.3885C56.5514 19.7339 56.0279 18.9613 55.6622 18.1117C55.2814 17.2356 55.0875 16.2897 55.093 15.3345C55.0858 14.3701 55.2796 13.4147 55.6622 12.5293C56.3972 10.8085 57.771 9.43982 59.4945 8.71126C60.3849 8.32925 61.3447 8.13528 62.3135 8.1415" fill="#DF005A"/>
<path d="M85.8058 2.81055V22.2505H82.0842L82.1123 15.2801C82.1143 14.7721 82.0052 14.2698 81.7927 13.8084C81.5892 13.3593 81.307 12.9503 80.9596 12.6005C80.61 12.2533 80.1947 11.9792 79.7379 11.7944C79.2575 11.5987 78.7431 11.4996 78.2243 11.5029C77.7099 11.4986 77.1998 11.5978 76.7244 11.7944C76.2706 11.9831 75.8597 12.2618 75.5166 12.6138C75.172 12.9684 74.8944 13.3824 74.6972 13.8359C74.4958 14.3102 74.392 14.8202 74.392 15.3355C74.392 15.8508 74.4958 16.3608 74.6972 16.8351C75.0887 17.7453 75.8142 18.4708 76.7244 18.8623C77.1973 19.0686 77.7084 19.1728 78.2243 19.1681C78.4844 19.1684 78.7443 19.15 79.0018 19.113C79.2528 19.0792 79.4966 19.0048 79.7236 18.8926H79.7787L81.1397 21.3921L81.1116 21.4196C80.1533 22.1405 78.9777 22.5129 77.7791 22.4754C76.8363 22.4811 75.9018 22.2999 75.0295 21.9423C74.1572 21.5847 73.3645 21.0577 72.697 20.392C72.0434 19.7374 71.5199 18.9648 71.1541 18.1151C70.7786 17.2374 70.585 16.2927 70.585 15.338C70.585 14.3833 70.7786 13.4386 71.1541 12.5609C71.52 11.7111 72.0435 10.9384 72.697 10.2835C73.3644 9.61765 74.1572 9.09074 75.0295 8.73322C75.9018 8.37571 76.8363 8.19469 77.7791 8.20063C78.6207 8.15772 79.4595 8.32878 80.2172 8.69783C80.9749 9.06688 81.6267 9.62188 82.1117 10.311V2.81055H85.8058Z" fill="#DF005A"/>
<path d="M99.7969 0.5L89.543 27.5H91.4313L101.686 0.5H99.7969Z" fill="#DF005A"/>
<path d="M107.286 2.9134C107.211 2.90469 107.135 2.9153 107.066 2.94423C106.996 2.97316 106.934 3.01945 106.888 3.07871C106.803 3.23548 106.765 3.41298 106.777 3.5906V3.60383C106.767 3.78095 106.805 3.95756 106.888 4.11462C106.933 4.17739 106.995 4.22681 107.066 4.2578C107.138 4.28879 107.216 4.30023 107.293 4.29095C107.364 4.29551 107.434 4.28147 107.498 4.25024C107.561 4.21901 107.616 4.17168 107.655 4.11297C107.744 3.95635 107.786 3.77711 107.775 3.59722C107.775 3.14134 107.612 2.9134 107.286 2.9134ZM106.778 1.9436V2.56681C106.778 2.6434 106.778 2.71448 106.773 2.7806C106.768 2.84673 106.765 2.89907 106.761 2.93709H106.778C106.833 2.85786 106.906 2.79227 106.99 2.74534C107.136 2.67422 107.3 2.65105 107.459 2.67917C107.619 2.70729 107.765 2.78524 107.878 2.90183C108.028 3.10256 108.1 3.35067 108.082 3.60052C108.1 3.85131 108.027 4.10026 107.876 4.30142C107.764 4.41858 107.618 4.49709 107.459 4.52553C107.3 4.55397 107.135 4.53086 106.99 4.45956C106.907 4.41379 106.834 4.35065 106.778 4.27442H106.754L106.694 4.50364H106.481V1.9436H106.778Z" fill="black"/>
<path d="M109.591 3.62088L109.325 3.6308C109.162 3.62471 109.001 3.6628 108.859 3.741C108.817 3.77097 108.783 3.81103 108.76 3.85752C108.737 3.90401 108.726 3.95545 108.729 4.00715C108.725 4.04861 108.732 4.09025 108.748 4.12859C108.764 4.16693 108.789 4.20087 108.821 4.22756C108.89 4.27719 108.974 4.30223 109.059 4.29864C109.196 4.30316 109.331 4.25819 109.438 4.1719C109.491 4.12342 109.532 4.0635 109.559 3.99668C109.585 3.92986 109.596 3.85789 109.591 3.78619V3.62088ZM109.237 2.66762C109.412 2.65333 109.587 2.70502 109.726 2.81254C109.783 2.87392 109.827 2.94673 109.854 3.0262C109.881 3.10568 109.892 3.19003 109.884 3.27374V4.50362H109.669L109.614 4.24739H109.6C109.533 4.33698 109.448 4.41197 109.351 4.4678C109.239 4.5198 109.117 4.54401 108.994 4.53833C108.847 4.54382 108.703 4.49782 108.586 4.40829C108.53 4.35783 108.486 4.29492 108.458 4.22454C108.429 4.15416 108.418 4.07823 108.425 4.00274C108.421 3.921 108.439 3.83977 108.476 3.76689C108.513 3.69402 108.569 3.63196 108.637 3.58672C108.835 3.47359 109.062 3.41824 109.29 3.42692L109.597 3.41645V3.31011C109.603 3.25403 109.597 3.19728 109.581 3.14341C109.564 3.08955 109.536 3.03974 109.499 2.99713C109.421 2.93488 109.323 2.90367 109.224 2.90951C109.132 2.90918 109.041 2.92351 108.955 2.95194C108.873 2.97854 108.793 3.01057 108.716 3.04782L108.624 2.82741C108.713 2.78054 108.807 2.74359 108.904 2.71721C109.014 2.68653 109.127 2.67114 109.241 2.67147" fill="black"/>
<path d="M111.167 4.53736C111.019 4.54041 110.872 4.50692 110.74 4.43983C110.613 4.37182 110.511 4.26558 110.448 4.13622C110.371 3.97219 110.335 3.79212 110.342 3.6111C110.334 3.42413 110.372 3.23814 110.452 3.0689C110.517 2.93726 110.623 2.82979 110.753 2.76198C110.888 2.6953 111.037 2.66186 111.188 2.66445C111.277 2.66451 111.365 2.67411 111.452 2.6931C111.525 2.70778 111.595 2.73089 111.663 2.76198L111.572 3.00828C111.51 2.98639 111.447 2.96799 111.383 2.95318C111.317 2.93586 111.249 2.92679 111.181 2.92618C110.826 2.92618 110.649 3.15412 110.649 3.61C110.638 3.78633 110.683 3.96168 110.779 4.11032C110.824 4.1686 110.883 4.2149 110.95 4.24516C111.017 4.27542 111.091 4.28872 111.164 4.2839C111.252 4.28482 111.339 4.27464 111.423 4.25359C111.495 4.23494 111.565 4.21005 111.632 4.1792V4.43983C111.569 4.47232 111.502 4.49658 111.432 4.51202C111.345 4.53038 111.257 4.53888 111.168 4.53736" fill="black"/>
<path d="M112.352 1.9436V3.28093C112.352 3.31675 112.352 3.36413 112.347 3.42254C112.342 3.48095 112.341 3.53275 112.339 3.57352H112.352C112.366 3.55589 112.386 3.52999 112.413 3.49638L112.495 3.39334C112.523 3.35862 112.548 3.33052 112.567 3.30738L113.144 2.69795H113.49L112.76 3.46938L113.541 4.50364H113.182L112.555 3.66113L112.35 3.83966V4.50364H112.057V1.9436H112.352Z" fill="black"/>
<path d="M114.552 2.90677C114.489 2.90367 114.427 2.9143 114.369 2.93791C114.311 2.96152 114.259 2.99754 114.217 3.04342C114.128 3.15049 114.077 3.28358 114.07 3.42252H114.99C114.993 3.28993 114.954 3.15974 114.88 3.05003C114.841 3.00075 114.79 2.96188 114.732 2.93688C114.675 2.91189 114.612 2.90154 114.549 2.90677H114.552ZM114.552 2.66432C114.692 2.6607 114.829 2.6958 114.95 2.7657C115.062 2.8329 115.152 2.93184 115.208 3.05003C115.27 3.18444 115.3 3.33126 115.297 3.47928V3.65781H114.064C114.056 3.82746 114.111 3.99395 114.22 4.12452C114.275 4.17937 114.34 4.22198 114.413 4.24953C114.485 4.27708 114.562 4.28894 114.639 4.28432C114.742 4.28571 114.844 4.27499 114.944 4.25236C115.039 4.2297 115.131 4.19872 115.22 4.15979V4.41932C115.131 4.4583 115.039 4.48821 114.944 4.50858C114.839 4.52895 114.731 4.53856 114.624 4.53724C114.466 4.5408 114.31 4.50481 114.169 4.43254C114.039 4.36257 113.933 4.25458 113.865 4.12287C113.787 3.96501 113.749 3.7903 113.754 3.61428C113.75 3.43946 113.784 3.26575 113.854 3.10568C113.914 2.97189 114.011 2.85832 114.134 2.77893C114.259 2.70114 114.405 2.66135 114.553 2.66432" fill="black"/>
<path d="M116.446 4.2915C116.52 4.29949 116.596 4.28945 116.666 4.26222C116.736 4.23499 116.798 4.19137 116.848 4.13501C116.935 3.99328 116.976 3.82774 116.964 3.66168V3.60658C116.975 3.42748 116.937 3.24879 116.854 3.08973C116.808 3.02563 116.745 2.9751 116.673 2.9434C116.601 2.91171 116.521 2.90001 116.443 2.90954C116.371 2.90581 116.3 2.92152 116.237 2.95499C116.174 2.98847 116.121 3.03847 116.084 3.09964C115.997 3.25523 115.956 3.43198 115.964 3.60989C115.954 3.78531 115.996 3.95983 116.084 4.11187C116.124 4.17065 116.178 4.21805 116.242 4.24936C116.305 4.28068 116.376 4.29483 116.447 4.2904L116.446 4.2915ZM116.399 4.53615C116.298 4.54029 116.196 4.52142 116.103 4.48097C116.01 4.44052 115.927 4.37952 115.86 4.30252C115.711 4.10113 115.64 3.85304 115.658 3.60328C115.64 3.35224 115.712 3.10298 115.862 2.90073C115.973 2.78328 116.118 2.70438 116.276 2.67562C116.435 2.64686 116.599 2.66975 116.744 2.74093C116.828 2.78876 116.902 2.85282 116.961 2.92938H116.981C116.976 2.90017 116.972 2.8572 116.967 2.79989C116.963 2.74258 116.961 2.69685 116.961 2.66324V1.9436H117.257V4.50364H117.018L116.974 4.26119H116.961C116.903 4.34077 116.83 4.40725 116.745 4.45626C116.639 4.51443 116.519 4.54244 116.398 4.53726" fill="black"/>
<path d="M119.51 2.9134C119.435 2.90469 119.359 2.9153 119.289 2.94423C119.219 2.97316 119.158 3.01945 119.111 3.07871C119.027 3.23548 118.989 3.41298 119.001 3.5906V3.60383C118.991 3.78095 119.029 3.95756 119.111 4.11462C119.157 4.17739 119.219 4.22681 119.29 4.2578C119.361 4.28879 119.44 4.30023 119.517 4.29095C119.587 4.29551 119.658 4.28147 119.721 4.25024C119.785 4.21901 119.839 4.17168 119.879 4.11297C119.968 3.95642 120.01 3.77716 119.999 3.59722C119.999 3.14134 119.836 2.9134 119.51 2.9134ZM119.002 1.9436V2.56681C119.002 2.6434 119.002 2.71448 118.997 2.7806C118.992 2.84673 118.989 2.89907 118.985 2.93709H119.002C119.057 2.85786 119.129 2.79227 119.214 2.74534C119.359 2.67422 119.523 2.65106 119.683 2.67917C119.842 2.70729 119.989 2.78524 120.101 2.90183C120.251 3.10256 120.324 3.35067 120.305 3.60052C120.324 3.85131 120.251 4.10026 120.1 4.30142C120.033 4.37848 119.95 4.43965 119.857 4.48046C119.764 4.52128 119.663 4.54068 119.561 4.53726C119.44 4.5422 119.321 4.51541 119.214 4.45956C119.13 4.41379 119.058 4.35065 119.002 4.27442H118.978L118.917 4.50364H118.705V1.9436H119.002Z" fill="black"/>
<path d="M120.427 2.69812H120.744L121.134 3.72578C121.168 3.81761 121.198 3.90394 121.225 3.98476C121.251 4.06079 121.271 4.13848 121.286 4.21729H121.299C121.313 4.16218 121.334 4.0878 121.363 3.99688C121.393 3.90596 121.422 3.81449 121.454 3.72137L121.821 2.69702H122.141L121.363 4.75178C121.31 4.90313 121.226 5.04192 121.117 5.15953C121.063 5.21155 120.998 5.25184 120.927 5.27791C120.857 5.30397 120.781 5.31525 120.706 5.31106C120.659 5.31146 120.612 5.3087 120.565 5.3028C120.524 5.29674 120.49 5.29067 120.46 5.28406V5.04933C120.485 5.05374 120.515 5.05814 120.55 5.0631C120.586 5.06716 120.623 5.06918 120.66 5.06916C120.751 5.07335 120.84 5.04216 120.909 4.9821C120.976 4.91694 121.028 4.83747 121.06 4.74957L121.155 4.51043L120.427 2.69812Z" fill="black"/>
<path d="M122.398 6.2251H106.151V22.4741H122.398V6.2251Z" fill="black"/>
<path d="M110.349 8.84471V11.8698H111.239C112.203 11.8698 112.252 11.7111 112.325 10.9551H112.606V13.1631H112.325C112.252 12.4065 112.203 12.2599 111.239 12.2599H110.349V14.8817C110.349 15.4184 110.495 15.5429 111.483 15.5429V15.8735H108.007V15.5429C108.726 15.5429 108.983 15.5065 108.983 14.9214V9.42989C108.983 8.84471 108.726 8.80779 108.007 8.80779V8.47718H112.63C112.977 8.49068 113.324 8.47019 113.667 8.41602V10.6972H113.362C113.204 9.1114 112.886 8.84306 111.471 8.84306L110.349 8.84471Z" fill="white"/>
<path d="M119.981 8.47889C120.328 8.49239 120.675 8.4719 121.018 8.41772V10.6989H120.713C120.554 9.11311 120.237 8.84477 118.822 8.84477H118.432V14.8817C118.432 15.4554 118.652 15.543 119.566 15.543V15.8736H115.919V15.543C116.833 15.543 117.065 15.4576 117.065 14.8817V8.84477H116.675C115.26 8.84477 114.943 9.11311 114.784 10.6989H114.479V8.41772C114.822 8.47193 115.17 8.49241 115.517 8.47889H119.981Z" fill="white"/>
</g>
<defs>
<clipPath id="clip0_2939_10862">
<rect width="121.569" height="27" fill="white" transform="translate(0.829102 0.5)"/>
</clipPath>
</defs>
</svg>
