<svg width="105" height="34" viewBox="0 0 105 34" fill="none" xmlns="http://www.w3.org/2000/svg">
<g clip-path="url(#clip0_1789_5870)">
<g clip-path="url(#clip1_1789_5870)">
<path d="M102.204 4H42.3279C41.4144 4 40.667 4.74742 40.667 5.66092V27.253C40.667 28.1665 41.4144 28.9139 42.3279 28.9139H102.204C103.118 28.9139 103.865 28.1665 103.865 27.253V5.66092C103.865 4.74742 103.118 4 102.204 4Z" fill="url(#paint0_linear_1789_5870)"/>
<path opacity="0.35" d="M41.8504 16.3531C41.8504 16.3531 41.9127 16.3531 42.0165 16.3531C46.937 16.187 102.619 14.2355 102.619 14.2355C103.242 14.2147 103.865 13.7579 103.865 12.969V5.66092C103.865 4.74742 103.118 4 102.204 4H42.3279C41.4144 4 40.667 4.74742 40.667 5.66092V17.6611C40.667 17.5158 40.6877 16.4777 41.8504 16.3531Z" fill="url(#paint1_linear_1789_5870)"/>
<path fill-rule="evenodd" clip-rule="evenodd" d="M16.6045 21.2529C16.6045 22.3948 16.1477 23.0592 13.9054 23.0592C13.6148 23.0592 13.3449 23.0384 13.0957 22.9969V7.79944C13.0957 6.63679 13.4902 5.43262 15.7532 5.43262C16.0439 5.43262 16.3346 5.45338 16.6045 5.51566V21.2529ZM25.7603 27.1284C26.051 27.2738 26.6531 27.4606 27.4212 27.4814C28.7292 27.5022 29.4351 27.0039 29.9541 25.8412L36.93 10.3116C36.6393 10.1662 35.9957 9.97942 35.4767 9.97942C34.5839 9.95861 33.3798 10.1455 32.6116 11.9725L30.3486 17.2874L25.9264 10.0832C25.6357 10.0002 24.9298 9.87559 24.4315 9.87559C22.8537 9.87559 21.9817 10.4569 21.0889 11.4327L16.7706 16.1248L20.2377 21.5644C20.8813 22.5609 21.7118 23.0592 23.0821 23.0592C23.9748 23.0592 24.7222 22.8516 25.0752 22.6855L20.9021 16.4362L23.8502 13.3012L28.7084 20.8999L25.7603 27.1284ZM7.73928 22.9553C10.5836 22.644 11.9746 21.0868 11.9746 18.9484C11.9746 17.1006 10.8327 15.6058 8.21678 15.1698L5.64234 14.6923C4.81189 14.5469 4.29284 14.3601 4.29284 13.8826C4.29284 13.4258 4.83265 13.0729 6.14062 13.0729C6.89004 13.0729 7.57812 13.1138 8.16579 13.1487C8.60382 13.1747 8.98608 13.1974 9.29637 13.1974C10.2514 13.1974 11.2272 12.803 11.2272 10.9344C11.2272 10.6853 11.1857 10.4362 11.1442 10.2078C9.73236 10.0209 7.15794 9.77178 5.06102 10.0002C2.27897 10.2908 0.867188 11.9725 0.867188 13.9656C0.867188 15.6058 2.07136 17.1629 4.31361 17.5781L7.01259 18.0972C8.00916 18.3048 8.50742 18.5124 8.50742 19.0522C8.50742 19.4467 8.11294 19.8827 6.84649 19.8827C6.23975 19.8827 5.52554 19.8374 4.84259 19.7941C4.21693 19.7545 3.6175 19.7166 3.15096 19.7166C2.19593 19.7166 1.19937 20.1318 1.19937 22.0004C1.19937 22.2287 1.2409 22.5194 1.28242 22.7477C2.6942 22.9138 5.68387 23.1837 7.73928 22.9553Z" fill="#1C1C1C"/>
<path opacity="0.25" fill-rule="evenodd" clip-rule="evenodd" d="M15.7532 5.43262C13.4902 5.43262 13.1165 6.63679 13.1165 7.79944V18.2218C13.1165 17.8065 13.4487 17.3705 13.9677 17.3498C14.1464 17.3398 14.4819 17.3299 14.8174 17.3199C15.1833 17.3091 15.5492 17.2983 15.7117 17.2874C16.0646 17.2667 16.5837 17.0383 16.6045 16.3947V5.51566C16.3346 5.47414 16.0439 5.43262 15.7532 5.43262ZM25.9264 10.0832L30.2448 17.1006C30.0787 16.8722 29.8711 16.7684 29.6842 16.7684C29.6192 16.7684 28.8803 16.7968 28.1743 16.8238L28.1729 16.8238L28.1722 16.8239H28.171C27.5264 16.8486 26.9102 16.8722 26.8607 16.8722C26.7361 16.8722 26.1963 16.8722 25.8433 16.3947L23.8502 13.2805L20.9021 16.4155L21.6703 17.5781C21.4627 17.3082 21.1304 17.0798 20.5907 17.1006C20.5122 17.1006 20.0081 17.1191 19.4757 17.1387C18.8806 17.1605 18.2504 17.1837 18.1408 17.1837C17.5595 17.2044 17.2688 16.8722 17.1235 16.6646L16.7706 16.1248L21.0889 11.4327C21.9817 10.4569 22.8537 9.87559 24.4315 9.87559C24.9298 9.87559 25.6357 10.0002 25.9264 10.0832ZM34.3713 16.0092L34.3763 16.0002L36.93 10.3116C36.6393 10.1455 35.9957 9.97942 35.4975 9.97942C34.6047 9.95861 33.4006 10.1455 32.6324 11.9725L30.4413 17.1401C30.4347 17.1545 30.4317 17.1629 30.4317 17.1629L30.4413 17.1401C30.4799 17.0556 30.6377 16.7654 30.9922 16.7477C30.9922 16.7477 33.1514 16.6646 33.3175 16.6646C34.0096 16.6443 34.2825 16.1649 34.3713 16.0092ZM5.62158 14.6508L8.19602 15.1283C10.8327 15.6058 11.9746 17.1006 11.9954 18.9484C11.9954 19.0781 11.9954 19.1913 11.9806 19.3027C12.0129 18.3429 11.3749 17.4342 10.2722 17.4743C10.0682 17.4828 9.56829 17.4983 9.02765 17.515C8.24789 17.5391 7.38335 17.5659 7.19945 17.5781C6.20291 17.6197 4.89493 17.5366 4.31361 17.4328C3.60771 17.3082 2.92258 17.1213 2.23745 16.6854C1.32394 15.9795 0.867188 14.9829 0.867188 13.9656C0.867188 11.9725 2.27897 10.2908 5.04026 9.95861C7.15794 9.73026 9.71161 10.0002 11.1234 10.1662C11.1857 10.4154 11.2064 10.6438 11.2064 10.8929C11.2064 12.7615 10.2307 13.1559 9.27562 13.1559C8.96387 13.1559 8.57573 13.133 8.13242 13.1068C7.54248 13.072 6.85486 13.0313 6.11986 13.0313C4.81189 13.0313 4.27208 13.4051 4.27208 13.8411C4.27208 14.3186 4.79112 14.5054 5.62158 14.6508ZM11.9806 19.3027C11.9788 19.3162 11.9768 19.3295 11.9746 19.3429V19.3636V19.4051C11.9775 19.371 11.9795 19.3368 11.9806 19.3027Z" fill="url(#paint2_linear_1789_5870)"/>
<path d="M56.3009 15.5018V21.8341C56.3009 22.2909 56.031 22.6022 55.2213 22.6022C54.8892 22.6022 54.4947 22.5607 54.2871 22.4985V15.7717C54.2871 13.4257 53.1452 12.3045 51.4012 12.3045C50.0517 12.3045 48.5984 13.2388 47.9963 14.3392V21.8549C47.9963 22.3116 47.7264 22.6231 46.9167 22.6231C46.5845 22.6231 46.19 22.5815 45.9824 22.5192V10.7267C46.1693 10.6852 46.5638 10.6228 46.9167 10.6228C47.7264 10.6228 47.9963 10.9135 47.9963 11.391V12.3876C48.8475 11.3288 50.1555 10.4983 51.8787 10.4983C54.2871 10.4983 56.3009 12.0139 56.3009 15.5018Z" fill="white"/>
<path fill-rule="evenodd" clip-rule="evenodd" d="M60.744 17.3288H69.8375C69.8997 16.9136 69.9207 16.4983 69.8794 16.1454C69.8794 13.3011 68.0939 10.4983 64.4811 10.4983C61.2841 10.4983 58.668 13.0312 58.668 16.5607C58.668 20.2354 61.1387 22.7061 64.8131 22.7061C66.516 22.7061 68.1143 22.187 69.173 21.7303C69.2771 20.6507 68.9032 20.1939 68.3428 20.1939C68.173 20.1939 68.0038 20.2493 67.6649 20.36C67.5887 20.3849 67.5038 20.4126 67.4085 20.4431C66.6817 20.6922 65.8928 20.879 64.8963 20.879C62.5713 20.879 61.0137 19.6126 60.744 17.3288ZM67.9689 15.7717H60.744C61.0556 13.4464 62.6957 12.2007 64.5224 12.2007C66.5986 12.2007 67.8858 13.7578 67.9689 15.7717Z" fill="white"/>
<path d="M88.356 10.9135L85.242 21.7302C85.0554 22.4154 84.5362 22.5815 83.7885 22.5815C83.3734 22.5815 82.9583 22.4984 82.6054 22.4154L79.6362 12.9066L76.8542 21.7302C76.6257 22.4154 76.0862 22.5815 75.4426 22.5815C75.0275 22.5815 74.5705 22.4984 74.2176 22.4154L70.8955 10.9135C71.1862 10.7682 71.7263 10.6229 72.1624 10.6229C72.7228 10.6229 73.0135 10.7889 73.1589 11.3287L75.5048 20.36H75.5257L78.4321 10.9135C78.7641 10.7266 79.2211 10.6229 79.6781 10.6229C80.4461 10.6229 80.8612 10.7889 81.0688 11.4948L83.7682 20.3393H83.7885L86.0722 11.308C86.2176 10.7682 86.5083 10.6021 87.0688 10.6021C87.567 10.6229 88.0653 10.7682 88.356 10.9135Z" fill="white"/>
<path d="M89.6848 21.8964C89.5394 20.879 89.8511 20.3393 90.4528 20.3393C91.0133 20.3393 92.3836 20.9414 94.2935 20.9414C96.3075 20.9414 97.0551 20.2354 97.0551 19.3012C97.0551 18.6368 96.7644 18.0555 94.9581 17.5572L92.8819 16.9967C90.5772 16.3946 89.6848 15.2319 89.6848 13.8202C89.6848 12.0554 91.0755 10.4983 94.2313 10.4983C95.6435 10.4983 97.4081 10.8097 98.4877 11.2249C98.6743 12.2215 98.3633 12.7613 97.761 12.7613C97.2214 12.7613 95.9964 12.2422 94.2732 12.2422C92.4046 12.2422 91.7191 12.8858 91.7191 13.7163C91.7191 14.2976 91.9894 14.8374 93.6499 15.315L95.7679 15.8963C98.1348 16.5607 99.0894 17.661 99.0894 19.2181C99.0894 21.0451 97.6778 22.6853 94.2522 22.6853C92.7156 22.7061 90.8267 22.3324 89.6848 21.8964Z" fill="white"/>
</g>
</g>
<defs>
<linearGradient id="paint0_linear_1789_5870" x1="40.6588" y1="4" x2="40.6588" y2="28.9139" gradientUnits="userSpaceOnUse">
<stop offset="0.4" stop-color="#E90E10"/>
<stop offset="1" stop-color="#BC0000"/>
</linearGradient>
<linearGradient id="paint1_linear_1789_5870" x1="101.098" y1="15.643" x2="101.078" y2="3.23504" gradientUnits="userSpaceOnUse">
<stop stop-color="white"/>
<stop offset="1" stop-color="white" stop-opacity="0.25"/>
</linearGradient>
<linearGradient id="paint2_linear_1789_5870" x1="29.8398" y1="17.0581" x2="29.796" y2="8.71249" gradientUnits="userSpaceOnUse">
<stop stop-color="white"/>
<stop offset="1" stop-color="white" stop-opacity="0.25"/>
</linearGradient>
<clipPath id="clip0_1789_5870">
<rect width="103.49" height="34" fill="white" transform="translate(0.867188)"/>
</clipPath>
<clipPath id="clip1_1789_5870">
<rect width="103.488" height="25" fill="white" transform="translate(0.867188 4)"/>
</clipPath>
</defs>
</svg>
