<svg width="85" height="34" viewBox="0 0 85 34" fill="none" xmlns="http://www.w3.org/2000/svg">
<g clip-path="url(#clip0_1261:3335)">
<g clip-path="url(#clip1_1261:3335)">
<path d="M45.6267 20.5117C45.6267 23.1197 42.3811 22.965 42.3811 22.965H39.1357V18.2523H42.3811C45.7212 18.2299 45.6267 20.5117 45.6267 20.5117ZM39.1357 11.0651H41.6088C44.1768 11.2008 44.0799 13.1128 44.0799 13.1128C44.0799 15.4888 41.2402 15.5276 41.2402 15.5276H39.1357V11.0651ZM45.0264 16.4543C45.0264 16.4543 47.2478 15.5077 47.228 12.9969C47.228 12.9969 47.5659 8.88202 42.114 8.38013H36.0645V25.6306H42.9987C42.9987 25.6306 48.7926 25.6478 48.7926 20.7633C48.7925 20.7633 48.9295 17.4392 45.0264 16.4543ZM29.3704 5H54.8401V29.0011H29.3704V5ZM16.2561 20.5117C16.2561 23.1197 13.0105 22.965 13.0105 22.965H9.7648V18.2523H13.0105C16.3508 18.2299 16.2561 20.5117 16.2561 20.5117ZM9.7648 11.0651H12.2384C14.8066 11.2008 14.7094 13.1128 14.7094 13.1128C14.7094 15.4888 11.8699 15.5276 11.8699 15.5276H9.7648V11.0651ZM15.656 16.4543C15.656 16.4543 17.8778 15.5077 17.8579 12.9969C17.8579 12.9969 18.1955 8.88202 12.7436 8.38013H6.69381V25.6306H13.6285C13.6285 25.6306 19.4222 25.6478 19.4222 20.7633C19.4222 20.7633 19.5587 17.4392 15.656 16.4543ZM0 5H25.4697V29.0011H0V5ZM79.0148 9.61684V12.8039C79.0148 12.8039 75.9039 10.8921 72.4663 10.8536C72.4663 10.8536 66.0527 10.7277 65.7636 17.0014C65.7636 17.0014 65.532 22.7709 72.389 23.0997C72.389 23.0997 75.266 23.4462 79.1691 20.9573V24.2579C79.1691 24.2579 73.9335 27.3686 67.8683 24.9727C67.8683 24.9727 62.7698 23.1109 62.5756 17.0014C62.5756 17.0014 62.3635 10.7177 69.1634 8.63183C69.1634 8.63183 70.9792 7.93667 74.2424 8.24564C74.2424 8.24556 76.1928 8.43848 79.0148 9.61684ZM58.7408 29.0011H84.2105V5H58.7408V29.0011Z" fill="black"/>
</g>
</g>
<defs>
<clipPath id="clip0_1261:3335">
<rect width="84.21" height="34" fill="white"/>
</clipPath>
<clipPath id="clip1_1261:3335">
<rect width="84.2105" height="24" fill="white" transform="translate(0 5)"/>
</clipPath>
</defs>
</svg>
