<svg width="105" height="30" viewBox="0 0 105 30" fill="none" xmlns="http://www.w3.org/2000/svg">
<path d="M0 4.50002C0 2.01473 2.01473 0 4.50002 0H42.0002C44.4855 0 46.5002 2.01473 46.5002 4.50002V25.5001C46.5002 27.9854 44.4855 30.0002 42.0002 30.0002H4.50002C2.01473 30.0002 0 27.9854 0 25.5001V4.50002Z" fill="white"/>
<path d="M1.5 4.50001C1.5 2.84315 2.84315 1.5 4.50002 1.5H42.0002C43.6571 1.5 45.0002 2.84315 45.0002 4.50002V25.5001C45.0002 27.157 43.6571 28.5001 42.0002 28.5001H4.50001C2.84315 28.5001 1.5 27.157 1.5 25.5001V4.50001Z" fill="#1A1A1A"/>
<path d="M27.0201 22.4625C26.7608 22.3893 26.4979 22.0885 26.4427 21.8013C26.4066 21.6143 26.4506 21.4846 26.7255 20.9662C27.8365 18.8714 28.3193 16.9436 28.3193 14.6037C28.3193 12.3424 27.8918 10.5829 26.8298 8.4741C26.6018 8.02141 26.4153 7.60106 26.4153 7.54029C26.4153 7.3159 26.6079 6.99056 26.8165 6.86295C27.1026 6.68797 27.5819 6.72069 27.8113 6.93067C27.8995 7.01141 28.1286 7.37806 28.3205 7.74522C29.0803 9.19957 29.601 10.7952 29.858 12.456C30.0171 13.4838 30.0487 15.4318 29.9217 16.3727C29.6872 18.1084 29.2172 19.6571 28.4646 21.1744C28.0098 22.0915 27.7242 22.4688 27.4852 22.4688C27.4374 22.4688 27.3593 22.4804 27.3119 22.4947C27.2642 22.5087 27.133 22.4943 27.0201 22.4625ZM23.9278 20.8856C23.53 20.7728 23.2432 20.2971 23.3581 19.9407C23.386 19.8544 23.5733 19.4569 23.7742 19.0574C24.6252 17.3659 24.9791 15.5526 24.8057 13.7722C24.6631 12.3094 24.3942 11.3869 23.7167 10.037C23.2621 9.13135 23.241 8.99098 23.5052 8.62635C23.7566 8.27966 24.3838 8.22343 24.7133 8.51807C24.9417 8.72224 25.652 10.1681 25.9261 10.987C26.8335 13.6968 26.695 16.6058 25.5322 19.2679C24.9366 20.6315 24.5185 21.0531 23.9278 20.8856ZM20.7389 19.2864C20.4932 19.1784 20.2816 18.9251 20.2241 18.6697C20.1889 18.5142 20.2493 18.3421 20.541 17.7665C21.612 15.6521 21.6236 13.6156 20.5762 11.5503C20.1164 10.6433 20.1062 10.4628 20.4952 10.1051C20.6872 9.92858 20.7687 9.89738 21.0383 9.89738C21.4906 9.89738 21.7251 10.1189 22.1292 10.928C22.7507 12.1725 23.0052 13.2521 23.0031 14.6353C23.0009 16.0571 22.763 17.0331 22.099 18.3454C21.7187 19.0968 21.5308 19.2952 21.1501 19.3461C21.0339 19.3616 20.849 19.3347 20.7389 19.2864ZM17.7632 17.7968C17.5686 17.7182 17.3463 17.46 17.2802 17.2355C17.2064 16.9846 17.2668 16.7854 17.5591 16.317C17.935 15.7144 18.0225 15.3911 18.0225 14.6036C18.0225 13.8162 17.935 13.4928 17.5591 12.8902C17.4317 12.6859 17.3037 12.4412 17.2747 12.3463C17.1536 11.9492 17.4931 11.4625 17.9491 11.3791C18.3356 11.3084 18.6011 11.4766 18.9565 12.0173C19.9856 13.583 19.9854 15.6745 18.956 17.2269C18.5929 17.7746 18.188 17.9682 17.7632 17.7968Z" fill="white"/>
<path d="M100.768 0H62.2997C62.1395 0 61.979 0 61.819 0.000934275C61.6838 0.00189686 61.549 0.00339736 61.4141 0.00707784C61.1199 0.0150333 60.8233 0.0323882 60.5328 0.0845943C60.2377 0.137706 59.963 0.224339 59.6951 0.360743C59.4318 0.494684 59.1906 0.669875 58.9817 0.878926C58.7726 1.08798 58.5974 1.32871 58.4635 1.59237C58.3271 1.86028 58.2404 2.13499 58.1876 2.43033C58.1352 2.72089 58.1177 3.01751 58.1098 3.31135C58.1061 3.44623 58.1046 3.5811 58.1037 3.71595C58.1028 3.87622 58.1031 4.03638 58.1031 4.19693V25.8035C58.1031 25.9641 58.1028 26.124 58.1037 26.2845C58.1046 26.4194 58.1061 26.5543 58.1098 26.6891C58.1177 26.9827 58.1352 27.2793 58.1876 27.5698C58.2404 27.8653 58.3271 28.1399 58.4635 28.4078C58.5974 28.6715 58.7726 28.9125 58.9817 29.1213C59.1906 29.3306 59.4318 29.5058 59.6951 29.6394C59.963 29.7762 60.2377 29.8628 60.5328 29.9159C60.8233 29.9678 61.1199 29.9855 61.4141 29.9934C61.549 29.9965 61.6838 29.9983 61.819 29.9989C61.979 30.0002 62.1395 30.0002 62.2997 30.0002H100.768C100.928 30.0002 101.088 30.0002 101.248 29.9989C101.383 29.9983 101.518 29.9965 101.653 29.9934C101.947 29.9855 102.243 29.9678 102.535 29.9159C102.829 29.8628 103.104 29.7762 103.372 29.6394C103.636 29.5058 103.876 29.3306 104.085 29.1213C104.294 28.9125 104.469 28.6715 104.604 28.4078C104.74 28.1399 104.827 27.8653 104.879 27.5698C104.932 27.2793 104.949 26.9827 104.957 26.6891C104.961 26.5543 104.962 26.4194 104.963 26.2845C104.964 26.124 104.964 25.9641 104.964 25.8035V4.19693C104.964 4.03638 104.964 3.87622 104.963 3.71595C104.962 3.5811 104.961 3.44623 104.957 3.31135C104.949 3.01751 104.932 2.72089 104.879 2.43033C104.827 2.13499 104.74 1.86028 104.604 1.59237C104.469 1.32871 104.294 1.08798 104.085 0.878926C103.876 0.669875 103.636 0.494684 103.372 0.360743C103.104 0.224339 102.829 0.137706 102.535 0.0845943C102.243 0.0323882 101.947 0.0150333 101.653 0.00707784C101.518 0.00339736 101.383 0.00189686 101.248 0.000934275C101.088 0 100.928 0 100.768 0Z" fill="white"/>
<path d="M100.768 1L101.241 1.00091C101.369 1.00181 101.497 1.0032 101.626 1.00671C101.85 1.01277 102.113 1.02491 102.357 1.06874C102.57 1.10702 102.748 1.16523 102.919 1.25231C103.088 1.33812 103.243 1.45058 103.378 1.58548C103.513 1.72129 103.626 1.87626 103.713 2.04701C103.8 2.21674 103.857 2.39414 103.895 2.60823C103.939 2.85006 103.951 3.11307 103.957 3.33869C103.961 3.46603 103.963 3.59338 103.963 3.72375C103.964 3.88142 103.964 4.039 103.964 4.19697V25.8036C103.964 25.9616 103.964 26.1189 103.963 26.2799C103.963 26.4072 103.961 26.5345 103.957 26.6621C103.951 26.8874 103.939 27.1503 103.895 27.395C103.857 27.6061 103.8 27.7835 103.712 27.9541C103.626 28.1244 103.513 28.2792 103.378 28.4142C103.242 28.5501 103.088 28.6622 102.917 28.7488C102.748 28.8355 102.57 28.8936 102.359 28.9315C102.11 28.9759 101.836 28.9882 101.631 28.9938C101.501 28.9967 101.372 28.9984 101.24 28.999C101.083 29.0003 100.925 29.0002 100.768 29.0002H62.2997C62.2976 29.0002 62.2956 29.0002 62.2934 29.0002C62.1379 29.0002 61.982 29.0002 61.8237 28.999C61.6945 28.9984 61.5657 28.9967 61.4411 28.9939C61.2306 28.9882 60.9571 28.976 60.7097 28.9318C60.4975 28.8936 60.3195 28.8355 60.1475 28.7477C59.9782 28.6618 59.8241 28.5498 59.6882 28.4137C59.5533 28.279 59.4413 28.1247 59.3546 27.9541C59.2679 27.7837 59.2098 27.6058 59.1717 27.3921C59.1275 27.1479 59.1154 26.8861 59.1094 26.6623C59.1059 26.5342 59.1045 26.4061 59.1037 26.2788L59.103 25.9028L59.1031 25.8036V4.19697L59.103 4.09772L59.1036 3.72256C59.1045 3.59445 59.1059 3.46637 59.1094 3.33838C59.1154 3.11441 59.1275 2.85247 59.172 2.60622C59.2098 2.39448 59.2679 2.21651 59.3551 2.04526C59.441 1.87598 59.5533 1.72146 59.6889 1.5859C59.824 1.4508 59.9786 1.33849 60.1489 1.25186C60.3191 1.1652 60.4974 1.10702 60.7096 1.06882C60.9542 1.02489 61.2166 1.01277 61.4414 1.00668C61.5696 1.0032 61.6977 1.00181 61.8249 1.00093L62.2997 1H100.768" fill="#1A1A1A"/>
<path d="M70.8955 10.0899C71.2967 9.58804 71.569 8.91419 71.4972 8.22559C70.9099 8.25479 70.1931 8.61309 69.7781 9.11534C69.4055 9.54545 69.0758 10.2475 69.1617 10.9073C69.8211 10.9644 70.4798 10.5777 70.8955 10.0899Z" fill="white"/>
<path d="M71.4899 11.036C70.5323 10.979 69.7182 11.5795 69.2609 11.5795C68.8034 11.5795 68.1032 11.0648 67.3459 11.0787C66.3601 11.0931 65.4455 11.6505 64.9453 12.5369C63.9164 14.3102 64.6737 16.9407 65.6743 18.3849C66.1601 19.0994 66.7457 19.8862 67.5173 19.8579C68.2463 19.8293 68.532 19.3859 69.4181 19.3859C70.3036 19.3859 70.561 19.8579 71.3327 19.8436C72.1329 19.8293 72.6333 19.1288 73.1191 18.4135C73.6765 17.599 73.9047 16.8125 73.919 16.7694C73.9047 16.7551 72.3759 16.1686 72.3617 14.41C72.3473 12.9375 73.562 12.2371 73.6192 12.1937C72.9332 11.1792 71.8614 11.0648 71.4899 11.036Z" fill="white"/>
<path d="M79.8264 9.04297C81.9076 9.04297 83.3568 10.4775 83.3568 12.5661C83.3568 14.6622 81.8777 16.1042 79.7742 16.1042H77.47V19.7686H75.8052V9.04297H79.8264V9.04297ZM77.47 14.7068H79.3802C80.8297 14.7068 81.6547 13.9264 81.6547 12.5736C81.6547 11.2209 80.8297 10.4479 79.3877 10.4479H77.47V14.7068V14.7068Z" fill="white"/>
<path d="M83.791 17.5459C83.791 16.1781 84.8391 15.3382 86.6974 15.2342L88.8379 15.1078V14.5058C88.8379 13.6362 88.2507 13.1159 87.2697 13.1159C86.3404 13.1159 85.7606 13.5617 85.6196 14.2605H84.1033C84.1925 12.8482 85.3965 11.8076 87.3291 11.8076C89.2244 11.8076 90.4359 12.8111 90.4359 14.3794V19.7682H88.8973V18.4823H88.8603C88.407 19.352 87.4183 19.902 86.3926 19.902C84.8614 19.902 83.791 18.9506 83.791 17.5459ZM88.8379 16.8398V16.2228L86.9128 16.3417C85.9539 16.4086 85.4114 16.8323 85.4114 17.5013C85.4114 18.185 85.9763 18.631 86.8385 18.631C87.9608 18.631 88.8379 17.858 88.8379 16.8398Z" fill="white"/>
<path d="M91.8888 22.6452V21.3444C92.0075 21.3741 92.275 21.3741 92.4089 21.3741C93.1522 21.3741 93.5536 21.0619 93.7987 20.2592C93.7987 20.2443 93.9401 19.7835 93.9401 19.7761L91.1157 11.9492H92.8548L94.8322 18.3118H94.8617L96.839 11.9492H98.5337L95.6049 20.1774C94.9362 22.0729 94.1632 22.6823 92.5428 22.6823C92.4089 22.6823 92.0075 22.6674 91.8888 22.6452Z" fill="white"/>
</svg>
