<svg width="24" height="24" viewBox="0 0 24 24" fill="none" xmlns="http://www.w3.org/2000/svg">
<path d="M10.5768 22.6862L3.15054 18.3627C2.77846 18.1535 2.49369 17.869 2.29621 17.5092C2.09874 17.1488 2 16.7595 2 16.3411V7.69405C2 7.27567 2.09874 6.88658 2.29621 6.52678C2.49369 6.16641 2.77846 5.88164 3.15054 5.67245L10.6111 1.31378C10.9831 1.10459 11.3784 1 11.7967 1C12.2151 1 12.6103 1.10459 12.9824 1.31378L20.4429 5.67245C20.815 5.88164 21.0998 6.16641 21.2973 6.52678C21.4948 6.88658 21.5935 7.27567 21.5935 7.69405V16.3411C21.5935 16.7595 21.4889 17.1488 21.2797 17.5092C21.0705 17.869 20.7802 18.1535 20.4086 18.3627L12.9121 22.6862C12.5406 22.8954 12.1515 23 11.7449 23C11.3376 23 10.9483 22.8954 10.5768 22.6862ZM10.6462 20.0362V12.6803L4.37053 9.08892V16.3059L10.6462 20.0362ZM11.7967 10.6227L18.0724 6.99703L11.7967 3.37137L5.52107 6.99703L11.7967 10.6227Z" fill="#1A1A1A"/>
</svg>
