<svg width="66" height="91" viewBox="0 0 66 91" fill="none" xmlns="http://www.w3.org/2000/svg">
<path d="M57.2794 36.4944C56.7696 36.2845 56.3198 36.1045 55.84 35.9246C56.0799 35.5348 56.2598 35.145 56.5297 34.7851C57.7892 32.9559 58.239 30.9168 58.269 28.7877C58.329 25.3392 58.119 12.2048 57.9991 9.1161C57.9091 6.7771 59.2585 4.91789 61.4776 3.29859C62.5571 2.51892 64.5363 0.899615 65.6758 0.149936C65.7788 0.106371 65.879 0.0562914 65.9757 0C65.9757 0.149936 65.9457 0.20991 65.9457 0.299872C65.5259 2.12909 64.5663 4.34814 64.5663 8.75626C64.3864 10.3756 64.5663 24.4395 64.5363 25.9989C64.5363 28.6377 62.887 30.8568 60.9078 32.9559C59.7983 34.1254 58.5988 35.2349 57.4293 36.3744C57.3993 36.4044 57.3394 36.4344 57.2794 36.4944Z" fill="#FFD0D8"/>
<path d="M10.5653 46.7095C7.62652 45.8998 4.8377 45.1202 1.92894 44.3105C2.32357 41.6858 3.24134 39.167 4.62779 36.9037C8.61608 30.3665 14.6735 27.0079 22.3202 26.4082C27.2081 26.0183 32.0361 26.3182 36.6841 28.0575C44.0009 30.8163 47.8093 36.154 48.6189 43.6508C48.8288 45.6 48.8888 74.7475 48.8888 87.3421V88.9014H40.4924V82.3642C40.1926 82.5741 40.0426 82.6041 39.9527 82.6941C36.0843 87.552 30.8366 89.921 24.6892 90.5507C19.9812 91.0305 15.3632 90.7606 10.9251 89.1413C3.96807 86.5924 -0.230138 80.2651 0.00975896 72.9782C0.129708 68.78 1.20926 64.9717 4.29794 61.883C6.5879 59.6414 9.37107 57.9674 12.4244 56.9951C17.1324 55.4358 21.9304 54.2063 26.6684 52.7669C29.1873 51.9872 31.7062 51.1776 34.1352 50.158C36.924 48.9885 38.8431 46.9194 38.9331 43.8007C39.0531 40.6221 37.5237 38.0432 34.6749 36.5438C32.8259 35.6039 30.8265 34.9949 28.7675 34.7446C23.8795 34.1749 19.1116 34.6247 15.1833 38.0732C12.8143 40.1723 11.5848 42.9011 10.7452 45.8698C10.6852 46.1397 10.6252 46.3796 10.5653 46.7095ZM39.3829 54.1763C37.6736 56.3653 35.4246 57.4149 33.1156 58.2246C29.0074 59.6639 24.8092 60.8934 20.6409 62.2428C17.7922 63.1724 15.0034 64.192 12.5444 65.9912C7.83642 69.4398 8.04634 79.2156 15.0633 81.3746C16.866 81.9264 18.7287 82.2587 20.611 82.3642C24.7492 82.5741 28.8574 82.1543 32.5458 80.1452C36.744 77.8661 39.3829 74.4476 39.4429 69.5597C39.5028 64.6718 39.4729 59.8139 39.4429 54.956C39.4922 54.6953 39.4715 54.4263 39.3829 54.1763Z" fill="white"/>
</svg>
