<svg width="136" height="40" viewBox="0 0 136 40" fill="none" xmlns="http://www.w3.org/2000/svg">
<g clip-path="url(#clip0_6258_11921)">
<path d="M130.75 0H5.75C2.98858 0 0.75 2.23858 0.75 5V35C0.75 37.7614 2.98858 40 5.75 40H130.75C133.511 40 135.75 37.7614 135.75 35V5C135.75 2.23858 133.511 0 130.75 0Z" fill="#1A1A1A"/>
<path opacity="0.4" d="M48.17 10.24C48.187 10.6068 48.1293 10.9732 48.0004 11.317C47.8714 11.6608 47.674 11.9748 47.42 12.24C47.1364 12.5346 46.7939 12.7661 46.4149 12.9195C46.0358 13.0728 45.6287 13.1446 45.22 13.13C44.6 13.1251 43.9952 12.9374 43.4814 12.5904C42.9676 12.2433 42.5677 11.7523 42.3317 11.1789C42.0957 10.6055 42.0342 9.97527 42.1549 9.36709C42.2756 8.75891 42.573 8.19986 43.01 7.76C43.2972 7.46679 43.6415 7.23562 44.0217 7.08082C44.4018 6.92601 44.8097 6.85086 45.22 6.86C45.6428 6.85859 46.0614 6.94367 46.45 7.11C46.812 7.256 47.134 7.486 47.39 7.78L46.86 8.31C46.6604 8.0726 46.4084 7.88486 46.1237 7.76164C45.8391 7.63842 45.5297 7.58308 45.22 7.6C44.9077 7.59847 44.5982 7.66003 44.3102 7.78099C44.0222 7.90195 43.7616 8.07982 43.5441 8.30394C43.3265 8.52806 43.1564 8.7938 43.044 9.08525C42.9316 9.37669 42.8792 9.68783 42.89 10C42.8835 10.4661 43.0151 10.9238 43.2683 11.3152C43.5216 11.7066 43.8851 12.0142 44.3129 12.1993C44.7408 12.3843 45.2139 12.4385 45.6726 12.355C46.1312 12.2715 46.5548 12.054 46.89 11.73C47.1977 11.3965 47.3752 10.9635 47.39 10.51H45.22V9.79H48.13C48.157 9.939 48.17 10.09 48.17 10.24ZM52.75 7.74H50.05V9.64H52.51V10.36H50.05V12.26H52.75V13H49.25V7H52.75V7.74ZM56.03 13H55.26V7.74H53.58V7H57.75V7.74H56.03V13ZM60.69 13V7H61.46V13H60.69ZM64.88 13H64.11V7.74H62.43V7H66.55V7.74H64.88V13ZM74.36 12.22C73.7754 12.8013 72.9845 13.1277 72.16 13.1277C71.3356 13.1277 70.5446 12.8013 69.96 12.22C69.3918 11.6185 69.0752 10.8224 69.0752 9.995C69.0752 9.16756 69.3918 8.37148 69.96 7.77C70.2482 7.47975 70.5909 7.24938 70.9685 7.09217C71.3461 6.93497 71.751 6.85403 72.16 6.85403C72.569 6.85403 72.974 6.93497 73.3515 7.09217C73.7291 7.24938 74.0719 7.47975 74.36 7.77C74.9305 8.37033 75.2486 9.16685 75.2486 9.995C75.2486 10.8232 74.9305 11.6197 74.36 12.22ZM70.53 11.72C70.9629 12.1511 71.549 12.3932 72.16 12.3932C72.771 12.3932 73.3571 12.1511 73.79 11.72C74.2173 11.249 74.4539 10.6359 74.4539 10C74.4539 9.36411 74.2173 8.75098 73.79 8.28C73.3571 7.84888 72.771 7.60683 72.16 7.60683C71.549 7.60683 70.9629 7.84888 70.53 8.28C70.1028 8.75098 69.8661 9.36411 69.8661 10C69.8661 10.6359 70.1028 11.249 70.53 11.72ZM76.33 13V7H77.27L80.19 11.67V7H80.96V13H80.16L77.11 8.11V13H76.33Z" fill="white" stroke="white" stroke-width="0.2"/>
<path d="M68.89 21.75C68.0503 21.7539 67.2306 22.0066 66.5343 22.476C65.838 22.9453 65.2964 23.6105 64.9778 24.3874C64.6592 25.1643 64.5779 26.0182 64.7441 26.8413C64.9104 27.6644 65.3167 28.4198 65.9119 29.0122C66.507 29.6046 67.2643 30.0074 68.0882 30.1697C68.9121 30.3321 69.7656 30.2468 70.541 29.9245C71.3164 29.6023 71.979 29.0575 72.4451 28.3591C72.9112 27.6606 73.16 26.8397 73.16 26C73.1682 25.4379 73.0631 24.88 72.8512 24.3593C72.6392 23.8387 72.3247 23.366 71.9263 22.9695C71.5278 22.573 71.0537 22.2606 70.5321 22.0511C70.0105 21.8416 69.452 21.7392 68.89 21.75ZM68.89 28.58C68.3736 28.6161 67.8582 28.496 67.411 28.2354C66.9637 27.9747 66.6052 27.5855 66.382 27.1184C66.1589 26.6513 66.0814 26.1279 66.1597 25.6161C66.238 25.1044 66.4684 24.6281 66.821 24.249C67.1736 23.87 67.632 23.6058 68.1368 23.4908C68.6415 23.3758 69.1692 23.4152 69.6512 23.6041C70.1332 23.7929 70.5473 24.1224 70.8395 24.5497C71.1318 24.977 71.2887 25.4823 71.29 26C71.3061 26.328 71.2564 26.6559 71.1437 26.9644C71.0311 27.2729 70.8578 27.5557 70.6341 27.7962C70.4105 28.0366 70.1409 28.2299 69.8414 28.3645C69.5418 28.4991 69.2183 28.5724 68.89 28.58ZM59.58 21.75C58.7399 21.752 57.9192 22.0029 57.2216 22.4711C56.524 22.9393 55.9808 23.6037 55.6607 24.3805C55.3405 25.1573 55.2578 26.0115 55.4229 26.8352C55.588 27.659 55.9936 28.4153 56.5883 29.0087C57.1831 29.6021 57.9404 30.0059 58.7645 30.1691C59.5887 30.3322 60.4427 30.2475 61.2187 29.9255C61.9947 29.6036 62.6579 29.0588 63.1244 28.3601C63.591 27.6614 63.84 26.8401 63.84 26C63.8482 25.4379 63.7431 24.88 63.5312 24.3593C63.3192 23.8387 63.0047 23.366 62.6063 22.9695C62.2078 22.573 61.7337 22.2606 61.2121 22.0511C60.6905 21.8416 60.132 21.7392 59.57 21.75H59.58ZM59.58 28.58C59.0633 28.6181 58.5471 28.4999 58.0986 28.2406C57.6501 27.9812 57.2901 27.5929 57.0654 27.1261C56.8406 26.6593 56.7617 26.1356 56.8387 25.6233C56.9158 25.111 57.1452 24.6338 57.4973 24.2537C57.8494 23.8736 58.3077 23.6084 58.8127 23.4924C59.3176 23.3765 59.8458 23.4153 60.3284 23.6037C60.811 23.7921 61.2257 24.1215 61.5185 24.5489C61.8113 24.9763 61.9686 25.4819 61.97 26C61.9861 26.328 61.9364 26.6559 61.8237 26.9644C61.7111 27.2729 61.5378 27.5557 61.3141 27.7962C61.0905 28.0366 60.8209 28.2299 60.5214 28.3645C60.2218 28.4991 59.8983 28.5724 59.57 28.58H59.58ZM48.49 23.06V24.86H52.81C52.7423 25.7078 52.3899 26.5078 51.81 27.13C51.3778 27.5702 50.8582 27.9151 50.2847 28.1425C49.7112 28.3698 49.0964 28.4746 48.48 28.45C47.207 28.45 45.9861 27.9443 45.0859 27.0441C44.1857 26.1439 43.68 24.923 43.68 23.65C43.68 22.377 44.1857 21.1561 45.0859 20.2559C45.9861 19.3557 47.207 18.85 48.48 18.85C49.6978 18.8301 50.8738 19.294 51.75 20.14L53.02 18.87C52.4285 18.271 51.7228 17.7969 50.9446 17.4757C50.1665 17.1544 49.3318 16.9927 48.49 17C47.601 16.9654 46.7142 17.1106 45.8826 17.427C45.0511 17.7433 44.292 18.2243 43.6508 18.841C43.0096 19.4577 42.4994 20.1976 42.151 21.0162C41.8026 21.8348 41.623 22.7153 41.623 23.605C41.623 24.4947 41.8026 25.3752 42.151 26.1938C42.4994 27.0124 43.0096 27.7522 43.6508 28.369C44.292 28.9857 45.0511 29.4667 45.8826 29.783C46.7142 30.0994 47.601 30.2446 48.49 30.21C49.346 30.2487 50.2003 30.1036 50.9954 29.7845C51.7906 29.4654 52.5082 28.9796 53.1 28.36C54.1477 27.2089 54.7071 25.6958 54.66 24.14C54.6632 23.761 54.6297 23.3825 54.56 23.01L48.49 23.06ZM93.8 24.46C93.5392 23.6927 93.0515 23.0228 92.4015 22.5388C91.7515 22.0549 90.9698 21.7798 90.16 21.75C89.613 21.7489 89.0716 21.8601 88.5692 22.0765C88.0669 22.293 87.6143 22.6102 87.2394 23.0085C86.8645 23.4069 86.5753 23.8778 86.3896 24.3924C86.204 24.9069 86.1258 25.4541 86.16 26C86.1479 26.5589 86.2485 27.1145 86.4559 27.6337C86.6633 28.1528 86.9732 28.6249 87.3671 29.0216C87.761 29.4183 88.2308 29.7315 88.7485 29.9426C89.2661 30.1536 89.821 30.2582 90.38 30.25C91.0795 30.2538 91.769 30.084 92.3868 29.7559C93.0046 29.4278 93.5314 28.9516 93.92 28.37L92.47 27.37C92.2536 27.7308 91.9472 28.0292 91.5809 28.236C91.2145 28.4429 90.8007 28.5511 90.38 28.55C89.9468 28.5665 89.5187 28.4523 89.1513 28.2222C88.784 27.9922 88.4943 27.6569 88.32 27.26L94.01 24.91L93.8 24.46ZM88 25.88C87.9797 25.5707 88.0214 25.2604 88.1225 24.9674C88.2237 24.6744 88.3822 24.4045 88.589 24.1736C88.7957 23.9426 89.0465 23.7553 89.3265 23.6224C89.6066 23.4896 89.9104 23.414 90.22 23.4C90.5426 23.3787 90.8643 23.4527 91.1452 23.6127C91.4261 23.7727 91.6538 24.0117 91.8 24.3L88 25.88ZM83.38 30H85.25V17.5H83.38V30ZM80.32 22.7H80.25C79.9682 22.3849 79.6229 22.1329 79.2369 21.9606C78.8509 21.7882 78.4328 21.6994 78.01 21.7C76.9172 21.753 75.8867 22.2244 75.132 23.0166C74.3773 23.8087 73.9563 24.8609 73.9563 25.955C73.9563 27.0491 74.3773 28.1013 75.132 28.8934C75.8867 29.6856 76.9172 30.157 78.01 30.21C78.4338 30.2171 78.8539 30.1313 79.241 29.9585C79.628 29.7857 79.9724 29.5302 80.25 29.21H80.31V29.82C80.31 31.45 79.44 32.32 78.04 32.32C77.5737 32.3091 77.1212 32.1597 76.7401 31.8908C76.3591 31.6219 76.0666 31.2456 75.9 30.81L74.27 31.49C74.5768 32.2364 75.0996 32.874 75.7713 33.3212C76.4431 33.7685 77.2331 34.0048 78.04 34C80.23 34 82.04 32.71 82.04 29.57V22H80.32V22.7ZM78.18 28.58C77.535 28.5231 76.9346 28.2267 76.4973 27.7492C76.06 27.2716 75.8174 26.6475 75.8174 26C75.8174 25.3524 76.06 24.7284 76.4973 24.2508C76.9346 23.7733 77.535 23.4768 78.18 23.42C78.4998 23.4364 78.8131 23.5167 79.1015 23.656C79.3898 23.7954 79.6473 23.9911 79.8589 24.2315C80.0704 24.4719 80.2317 24.7523 80.3332 25.056C80.4347 25.3597 80.4744 25.6807 80.45 26C80.4773 26.3207 80.4392 26.6436 80.3382 26.9491C80.2371 27.2547 80.0751 27.5366 79.862 27.7778C79.6488 28.019 79.389 28.2144 79.0982 28.3523C78.8074 28.4902 78.4916 28.5676 78.17 28.58H78.18ZM102.56 17.5H98.09V30H99.96V25.26H102.57C103.103 25.2983 103.638 25.2264 104.142 25.0487C104.646 24.8711 105.108 24.5915 105.499 24.2275C105.89 23.8635 106.202 23.4227 106.415 22.9328C106.629 22.4429 106.739 21.9143 106.739 21.38C106.739 20.8457 106.629 20.3171 106.415 19.8272C106.202 19.3373 105.89 18.8965 105.499 18.5325C105.108 18.1685 104.646 17.8889 104.142 17.7113C103.638 17.5336 103.103 17.4617 102.57 17.5H102.56ZM102.56 23.5H99.95V19.24H102.6C103.169 19.24 103.714 19.466 104.117 19.8683C104.519 20.2705 104.745 20.8161 104.745 21.385C104.745 21.9539 104.519 22.4995 104.117 22.9017C103.714 23.304 103.169 23.53 102.6 23.53L102.56 23.5ZM114.09 21.7C113.409 21.6593 112.731 21.8184 112.14 22.1577C111.548 22.497 111.069 23.0018 110.76 23.61L112.42 24.3C112.584 23.9983 112.832 23.7508 113.133 23.5874C113.435 23.4241 113.778 23.352 114.12 23.38C114.357 23.3523 114.598 23.3721 114.828 23.4383C115.057 23.5045 115.271 23.6158 115.458 23.7657C115.644 23.9156 115.798 24.101 115.912 24.3112C116.026 24.5214 116.096 24.7522 116.12 24.99V25.12C115.519 24.802 114.85 24.6371 114.17 24.64C112.38 24.64 110.57 25.64 110.57 27.45C110.588 27.8359 110.683 28.2144 110.849 28.563C111.015 28.9117 111.25 29.2234 111.539 29.4798C111.828 29.7362 112.166 29.932 112.532 30.0557C112.898 30.1794 113.285 30.2285 113.67 30.2C114.141 30.2338 114.612 30.1402 115.035 29.9291C115.457 29.718 115.815 29.397 116.07 29H116.13V30H117.93V25.19C117.93 23 116.27 21.73 114.14 21.73L114.09 21.7ZM113.86 28.55C113.25 28.55 112.4 28.24 112.4 27.49C112.4 26.49 113.46 26.16 114.4 26.16C114.994 26.1453 115.581 26.2904 116.1 26.58C116.037 27.1214 115.781 27.622 115.379 27.9895C114.977 28.357 114.455 28.5667 113.91 28.58L113.86 28.55ZM124.49 22L122.35 27.42H122.29L120.07 22H118.07L121.4 29.58L119.5 33.79H121.45L126.57 22H124.49ZM107.68 30H109.55V17.5H107.68V30Z" fill="white"/>
<path d="M11.19 7.54C10.8641 7.93111 10.6995 8.4318 10.73 8.94V31.06C10.6995 31.5682 10.8641 32.0689 11.19 32.46L11.26 32.53L23.65 20.15V19.86L11.26 7.47L11.19 7.54Z" fill="url(#paint0_linear_6258_11921)"/>
<path d="M27.75 24.28L23.65 20.15V19.86L27.75 15.72L27.84 15.77L32.75 18.56C34.15 19.35 34.15 20.65 32.75 21.45L27.86 24.23L27.75 24.28Z" fill="url(#paint1_linear_6258_11921)"/>
<path d="M27.87 24.22L23.65 20L11.19 32.46C11.4754 32.7109 11.8394 32.8541 12.2192 32.8651C12.599 32.876 12.9707 32.754 13.27 32.52L27.88 24.22" fill="url(#paint2_linear_6258_11921)"/>
<path d="M27.87 15.78L13.26 7.47999C12.9606 7.246 12.589 7.12394 12.2092 7.13489C11.8294 7.14585 11.4654 7.28914 11.18 7.53999L23.65 20L27.87 15.78Z" fill="url(#paint3_linear_6258_11921)"/>
<path opacity="0.2" d="M27.75 24.13L13.26 32.38C12.9713 32.5959 12.6205 32.7125 12.26 32.7125C11.8995 32.7125 11.5487 32.5959 11.26 32.38L11.19 32.45L11.26 32.52C11.5481 32.7374 11.8991 32.855 12.26 32.855C12.6209 32.855 12.9719 32.7374 13.26 32.52L27.87 24.22L27.75 24.13Z" fill="black"/>
<path opacity="0.12" d="M11.19 32.32C10.8641 31.9289 10.6995 31.4282 10.73 30.92V31.07C10.6995 31.5782 10.8641 32.0789 11.19 32.47L11.26 32.4L11.19 32.32ZM32.75 21.3L27.75 24.13L27.84 24.22L32.75 21.44C33.0286 21.3091 33.2677 21.1071 33.4433 20.8543C33.6189 20.6014 33.7247 20.3068 33.75 20C33.6938 20.2787 33.5744 20.5408 33.401 20.7662C33.2277 20.9915 33.0049 21.1742 32.75 21.3Z" fill="black"/>
<path opacity="0.25" d="M13.26 7.62L32.75 18.7C33.005 18.8258 33.2277 19.0085 33.401 19.2338C33.5744 19.4592 33.6938 19.7213 33.75 20C33.7247 19.6932 33.6189 19.3986 33.4433 19.1457C33.2678 18.8929 33.0286 18.6909 32.75 18.56L13.26 7.48C11.86 6.69 10.72 7.35 10.72 8.95V9.1C10.75 7.49 11.87 6.83 13.26 7.62Z" fill="white"/>
</g>
<defs>
<linearGradient id="paint0_linear_6258_11921" x1="18.6142" y1="8.70997" x2="7.99292" y2="19.3313" gradientUnits="userSpaceOnUse">
<stop stop-color="#00A0FF"/>
<stop offset="0.01" stop-color="#00A1FF"/>
<stop offset="0.26" stop-color="#00BEFF"/>
<stop offset="0.51" stop-color="#00D2FF"/>
<stop offset="0.76" stop-color="#00DFFF"/>
<stop offset="1" stop-color="#00E3FF"/>
</linearGradient>
<linearGradient id="paint1_linear_6258_11921" x1="34.58" y1="20" x2="10.39" y2="20" gradientUnits="userSpaceOnUse">
<stop stop-color="#FFE000"/>
<stop offset="0.41" stop-color="#FFBD00"/>
<stop offset="0.78" stop-color="#FFA500"/>
<stop offset="1" stop-color="#FF9C00"/>
</linearGradient>
<linearGradient id="paint2_linear_6258_11921" x1="25.58" y1="23.9769" x2="7.43557" y2="42.1135" gradientUnits="userSpaceOnUse">
<stop stop-color="#FF3A44"/>
<stop offset="1" stop-color="#C31162"/>
</linearGradient>
<linearGradient id="paint3_linear_6258_11921" x1="8.04995" y1="5.61194" x2="16.1487" y2="13.7107" gradientUnits="userSpaceOnUse">
<stop stop-color="#32A071"/>
<stop offset="0.07" stop-color="#2DA771"/>
<stop offset="0.48" stop-color="#15CF74"/>
<stop offset="0.8" stop-color="#06E775"/>
<stop offset="1" stop-color="#00F076"/>
</linearGradient>
<clipPath id="clip0_6258_11921">
<rect width="135" height="40" fill="white" transform="translate(0.75)"/>
</clipPath>
</defs>
</svg>
