<svg width="45" height="44" viewBox="0 0 45 44" fill="none" xmlns="http://www.w3.org/2000/svg">
<rect x="4.5" y="4" width="36" height="36" rx="9" fill="#FFD0D8"/>
<path d="M29.9847 18.5032C29.8805 18.4601 29.7885 18.4232 29.6904 18.3862C29.7395 18.3062 29.7763 18.2262 29.8314 18.1523C30.0889 17.7768 30.1809 17.3582 30.187 16.9212C30.1993 16.2133 30.1564 13.5171 30.1319 12.8831C30.1135 12.4029 30.3894 12.0213 30.8431 11.6888C31.0638 11.5288 31.4684 11.1964 31.7014 11.0425C31.7225 11.0336 31.743 11.0233 31.7627 11.0117C31.7627 11.0425 31.7566 11.0548 31.7566 11.0733C31.6708 11.4488 31.4746 11.9043 31.4746 12.8092C31.4378 13.1416 31.4746 16.0286 31.4684 16.3487C31.4684 16.8904 31.1312 17.3459 30.7266 17.7768C30.4997 18.0169 30.2545 18.2447 30.0154 18.4786C30.0092 18.4847 29.997 18.4909 29.9847 18.5032Z" fill="white"/>
<path d="M19.035 19.0534C18.3003 18.8505 17.603 18.6552 16.8758 18.4523C16.9745 17.7946 17.2039 17.1635 17.5506 16.5964C18.5477 14.9584 20.0621 14.1169 21.9739 13.9666C23.196 13.869 24.403 13.9441 25.5651 14.3799C27.3944 15.0711 28.3465 16.4086 28.549 18.287C28.6014 18.7754 28.6164 26.0787 28.6164 29.2344V29.6251H26.5172V27.9872C26.4422 28.0398 26.4048 28.0473 26.3823 28.0698C25.4151 29.287 24.1031 29.8806 22.5662 30.0384C21.3891 30.1586 20.2346 30.091 19.125 29.6853C17.3856 29.0466 16.336 27.4612 16.396 25.6354C16.426 24.5835 16.6959 23.6292 17.4681 22.8553C18.0406 22.2937 18.7365 21.8742 19.4998 21.6306C20.6769 21.2399 21.8765 20.9318 23.061 20.5712C23.6908 20.3758 24.3205 20.1729 24.9278 19.9175C25.6251 19.6244 26.1049 19.106 26.1274 18.3246C26.1574 17.5281 25.775 16.8819 25.0628 16.5063C24.6005 16.2707 24.1006 16.1182 23.5858 16.0554C22.3638 15.9127 21.1717 16.0254 20.1896 16.8895C19.5973 17.4154 19.2899 18.0992 19.08 18.843C19.065 18.9106 19.05 18.9707 19.035 19.0534ZM26.2398 20.9243C25.8125 21.4728 25.2502 21.7358 24.6729 21.9386C23.6458 22.2993 22.5962 22.6074 21.5541 22.9455C20.8418 23.1784 20.1446 23.4339 19.5298 23.8847C18.3528 24.7488 18.4053 27.1982 20.1596 27.7392C20.6103 27.8775 21.076 27.9607 21.5466 27.9872C22.5812 28.0398 23.6083 27.9346 24.5305 27.4311C25.5801 26.8601 26.2398 26.0036 26.2548 24.7788C26.2698 23.5541 26.2623 22.3369 26.2548 21.1197C26.2671 21.0544 26.262 20.9869 26.2398 20.9243Z" fill="#1A1A1A"/>
</svg>
